<svg id="Layer_1" data-name="Layer 1" xmlns="http://www.w3.org/2000/svg" viewBox="0 0 250.55 109.79"><defs><style>.cls-1{isolation:isolate;}.cls-2{fill:#231f20;}.cls-3{fill:#99f;}.cls-4{fill:#ff878b;}</style></defs><g class="cls-1"><polygon class="cls-2" points="20.06 14.11 21.1 14.89 15.06 14.89 14.02 14.11 20.06 14.11"/><polygon class="cls-3" points="20.06 14.11 21.1 14.89 17.36 43.03 16.32 42.26 20.06 14.11"/><polygon class="cls-2" points="21.13 13.14 22.17 13.92 19.03 37.51 17.99 36.74 21.13 13.14"/><polygon class="cls-2" points="14.02 14.11 15.06 14.89 11.74 47.69 10.7 46.91 14.02 14.11"/><polygon class="cls-2" points="25.67 22.94 26.71 23.72 17.36 43.03 16.32 42.26 25.67 22.94"/><polygon class="cls-2" points="31.61 22.94 32.65 23.72 26.71 23.72 25.67 22.94 31.61 22.94"/><polygon class="cls-3" points="27.61 27.31 28.65 28.09 19.08 47.69 18.05 46.91 27.61 27.31"/><polygon class="cls-3" points="18.05 46.91 19.08 47.69 11.74 47.69 10.7 46.91 18.05 46.91"/><polygon class="cls-2" points="26.37 31.91 27.41 32.68 19.62 48.66 18.58 47.88 26.37 31.91"/><polygon class="cls-2" points="18.58 47.88 19.62 48.66 10.71 48.66 9.67 47.88 18.58 47.88"/><polygon class="cls-2" points="48.7 14.11 49.73 14.89 43.4 14.89 42.36 14.11 48.7 14.11"/><polygon class="cls-3" points="31.61 22.94 32.65 23.72 31.52 42.9 30.49 42.13 31.61 22.94"/><polygon class="cls-2" points="32.6 21.98 33.64 22.75 32.77 37.65 31.73 36.87 32.6 21.98"/><polygon class="cls-2" points="27.61 27.31 28.65 28.09 27.37 47.69 26.33 46.91 27.61 27.31"/><polygon class="cls-2" points="42.36 14.11 43.4 14.89 31.52 42.9 30.49 42.13 42.36 14.11"/><polygon class="cls-3" points="33.72 46.91 34.76 47.69 27.37 47.69 26.33 46.91 33.72 46.91"/><polygon class="cls-3" points="48.7 14.11 49.73 14.89 34.76 47.69 33.72 46.91 48.7 14.11"/><path class="cls-2" d="M42.13,14.19h8.35L34.62,48.93H25.68l1-16-7.78,16H10l3.52-34.74h7.94l-3.13,23.6L25.48,23h7.46l-.86,14.89ZM34.06,48l15-32.8H42.71l-11.88,28L32,24H26L16.66,43.31l3.75-28.15h-6L11.05,48h7.34L28,28.36,26.68,48h7.38" transform="translate(-0.35 -1.05)"/><polygon class="cls-3" points="48.7 14.11 33.72 46.91 26.33 46.91 27.61 27.31 18.05 46.91 10.7 46.91 14.02 14.11 20.06 14.11 16.32 42.26 25.67 22.94 31.61 22.94 30.49 42.13 42.36 14.11 48.7 14.11"/><polygon class="cls-2" points="34.27 47.88 35.31 48.66 26.38 48.66 25.34 47.88 34.27 47.88"/><polygon class="cls-2" points="50.13 13.14 51.17 13.92 35.31 48.66 34.27 47.88 50.13 13.14"/><path class="cls-3" d="M62.28,22.89l-3.91,5.55,2.88-6.33-3.91,5.56a13.94,13.94,0,0,1,3.91-5.56Z" transform="translate(-0.35 -1.05)"/><polygon class="cls-2" points="71.31 27.25 72.34 28.03 57.77 28.03 56.73 27.25 71.31 27.25"/><polygon class="cls-3" points="56.99 26.62 58.03 27.39 57.77 28.03 56.73 27.25 56.99 26.62"/><polygon class="cls-3" points="55.24 32.9 56.28 33.67 56.18 34.07 55.14 33.3 55.24 32.9"/><path class="cls-3" d="M55.48,34.34l1,.78c-.09.35-.17.69-.23,1l-1-.78C55.31,35,55.39,34.69,55.48,34.34Z" transform="translate(-0.35 -1.05)"/><path class="cls-3" d="M67.75,21a8.65,8.65,0,0,0-5.47,1.89l-1-.78a8.6,8.6,0,0,1,5.46-1.88Z" transform="translate(-0.35 -1.05)"/><path class="cls-3" d="M55.25,35.34l1,.78c-.06.3-.11.61-.16,1l-1-.78C55.14,36,55.19,35.65,55.25,35.34Z" transform="translate(-0.35 -1.05)"/><path class="cls-2" d="M56.29,34.91l1,.78a5,5,0,0,0-.12.53c-.06.29-.11.59-.15.88l-1-.77c0-.3.1-.6.15-.89S56.24,35.09,56.29,34.91Z" transform="translate(-0.35 -1.05)"/><path class="cls-3" d="M71.37,22a5.89,5.89,0,0,0-3.62-1l-1-.77a5.89,5.89,0,0,1,3.62,1Z" transform="translate(-0.35 -1.05)"/><path class="cls-2" d="M69.74,22.07l1,.78A5.06,5.06,0,0,0,67.66,22a7.56,7.56,0,0,0-4.85,1.67,12.26,12.26,0,0,0-3.3,4.47l-1-.77a12.17,12.17,0,0,1,3.29-4.48,7.62,7.62,0,0,1,4.85-1.67A5.13,5.13,0,0,1,69.74,22.07Z" transform="translate(-0.35 -1.05)"/><path class="cls-2" d="M70.33,21.26l1,.78a4.27,4.27,0,0,1,.63.57l-1-.78A4.27,4.27,0,0,0,70.33,21.26Z" transform="translate(-0.35 -1.05)"/><path class="cls-2" d="M75.08,16.54l1,.78a12.6,12.6,0,0,0-7.74-2.26,17.07,17.07,0,0,0-7.24,1.6A18.73,18.73,0,0,0,55,21.25,24.06,24.06,0,0,0,50.85,28a27.65,27.65,0,0,0-2,8.08c-.43,4.41.47,7.81,2.64,10.09a8.81,8.81,0,0,0,1.12,1l-1-.78a8.81,8.81,0,0,1-1.12-1c-2.17-2.27-3.06-5.67-2.64-10.09a28.07,28.07,0,0,1,2-8.08A23.81,23.81,0,0,1,54,20.47a18.81,18.81,0,0,1,6.12-4.59,17.13,17.13,0,0,1,7.23-1.59A12.6,12.6,0,0,1,75.08,16.54Z" transform="translate(-0.35 -1.05)"/><path class="cls-2" d="M58.62,41.34l-1-.78-.19-.15A4.39,4.39,0,0,1,56,36.33l1,.77a4.4,4.4,0,0,0,1.37,4.09Z" transform="translate(-0.35 -1.05)"/><path class="cls-3" d="M58,42.15l-1-.78-.23-.18a5.37,5.37,0,0,1-1.66-4.9l1,.78A5.32,5.32,0,0,0,57.79,42,2.11,2.11,0,0,0,58,42.15Z" transform="translate(-0.35 -1.05)"/><path class="cls-3" d="M76.12,17.32a9.28,9.28,0,0,1,1.36,1.23l-1-.78a10.57,10.57,0,0,0-1.36-1.23Z" transform="translate(-0.35 -1.05)"/><path class="cls-2" d="M75.68,15.74l1,.77a11,11,0,0,1,1.48,1.34l-1-.78A10.91,10.91,0,0,0,75.68,15.74Z" transform="translate(-0.35 -1.05)"/><path class="cls-2" d="M71,21.83l1,.78A5.51,5.51,0,0,1,73.21,27c0,.26-.07.53-.13.83l-1-.78c.06-.3.1-.56.13-.83A5.47,5.47,0,0,0,71,21.83Z" transform="translate(-0.35 -1.05)"/><path class="cls-2" d="M72,27.05l1,.78a5.34,5.34,0,0,1-.26.9l-1-.78A4.36,4.36,0,0,0,72,27.05Z" transform="translate(-0.35 -1.05)"/><polygon class="cls-2" points="71.44 26.91 72.48 27.68 72.34 28.03 71.31 27.25 71.44 26.91"/><path class="cls-3" d="M61.8,49.61c-3.95,0-7-.82-9.22-2.45l-1-.78c2.18,1.63,5.27,2.46,9.22,2.46Z" transform="translate(-0.35 -1.05)"/><path class="cls-3" d="M77.48,18.55c2.12,2.3,3,5.41,2.64,9.23l-1-.77c.37-3.83-.51-6.93-2.64-9.24C76.75,18,77.19,18.29,77.48,18.55Z" transform="translate(-0.35 -1.05)"/><path class="cls-3" d="M80.12,27.78a28.19,28.19,0,0,1-.48,3.09l-1-.78A28,28,0,0,0,79.08,27Z" transform="translate(-0.35 -1.05)"/><path class="cls-3" d="M68,49a30.82,30.82,0,0,1-6.17.62l-1-.77a30,30,0,0,0,6.17-.63Z" transform="translate(-0.35 -1.05)"/><path class="cls-3" d="M79.64,30.87l-.9,3.85-.14-4.63-.9,3.85c.38-1.48.68-2.78.9-3.85Z" transform="translate(-0.35 -1.05)"/><polygon class="cls-3" points="77.36 32.9 78.4 33.67 56.28 33.67 55.24 32.9 77.36 32.9"/><path class="cls-2" d="M58,42.15l-1-.78a9.41,9.41,0,0,0,5.67,1.44,23.58,23.58,0,0,0,6.51-1,25.29,25.29,0,0,0,5.29-2.21l1,.77a25,25,0,0,1-5.29,2.21,23.23,23.23,0,0,1-6.51,1A9.48,9.48,0,0,1,58,42.15Z" transform="translate(-0.35 -1.05)"/><path class="cls-3" d="M73.59,47.22A28.65,28.65,0,0,1,68,49l-1-.78a29.62,29.62,0,0,0,5.63-1.76Z" transform="translate(-0.35 -1.05)"/><polygon class="cls-3" points="74.11 38.6 75.14 39.38 73.25 46.17 72.21 45.4 74.11 38.6"/><path class="cls-2" d="M77.16,17.07c2.29,2.5,3.25,5.84,2.86,9.94a30.17,30.17,0,0,1-.5,3.19c-.24,1.18-.58,2.63-1,4.31l-.11.4H56.29c0,.18-.09.36-.12.53s-.11.59-.15.89a4.39,4.39,0,0,0,1.37,4.08q1.7,1.43,5.36,1.43A22.4,22.4,0,0,0,69,40.92a23.68,23.68,0,0,0,6-2.66l1-.59-2.64,9.45-.23.11a31.09,31.09,0,0,1-6,1.93,32,32,0,0,1-6.36.64c-4.92,0-8.6-1.24-11-3.69S46.4,40,46.85,35.3A28.44,28.44,0,0,1,49,26.92a25.05,25.05,0,0,1,4.37-7.06A20,20,0,0,1,59.79,15a18,18,0,0,1,7.64-1.69C71.6,13.32,74.87,14.58,77.16,17.07Zm1.44,13A28,28,0,0,0,79.08,27c.37-3.83-.51-6.93-2.64-9.24s-5.18-3.48-9.1-3.48a17.13,17.13,0,0,0-7.23,1.59A18.81,18.81,0,0,0,54,20.47a23.81,23.81,0,0,0-4.17,6.75,28.07,28.07,0,0,0-2,8.08c-.42,4.42.47,7.82,2.64,10.09s5.66,3.45,10.34,3.45a30,30,0,0,0,6.17-.63,29.62,29.62,0,0,0,5.63-1.76l1.89-6.8a25.29,25.29,0,0,1-5.29,2.21,23.58,23.58,0,0,1-6.51,1c-2.63,0-4.62-.55-5.9-1.62a5.37,5.37,0,0,1-1.66-4.9c0-.34.1-.64.16-.95s.14-.65.23-1l.11-.4H77.7c.38-1.48.68-2.78.9-3.85" transform="translate(-0.35 -1.05)"/><path class="cls-2" d="M71,21.83a5.47,5.47,0,0,1,1.21,4.39c0,.27-.07.53-.13.83a4.36,4.36,0,0,1-.26.9l-.13.35H57.07l.27-.63a13.94,13.94,0,0,1,3.91-5.56,8.6,8.6,0,0,1,5.46-1.88A5.5,5.5,0,0,1,71,21.83Zm.17,5.11a6.64,6.64,0,0,0,.11-.72,4.55,4.55,0,0,0-1-3.69,4.7,4.7,0,0,0-3.63-1.34,7.62,7.62,0,0,0-4.85,1.67,12.17,12.17,0,0,0-3.29,4.48H71c0-.13.07-.27.1-.4" transform="translate(-0.35 -1.05)"/><path class="cls-2" d="M77.16,17.07l1,.78c2.29,2.49,3.25,5.84,2.86,9.93a30.17,30.17,0,0,1-.5,3.19c-.24,1.19-.58,2.64-1,4.32l-1-.78c.43-1.68.77-3.13,1-4.31A30.17,30.17,0,0,0,80,27C80.41,22.91,79.45,19.57,77.16,17.07Z" transform="translate(-0.35 -1.05)"/><polygon class="cls-2" points="78.06 33.86 79.09 34.64 56.98 34.64 55.94 33.86 78.06 33.86"/><polygon class="cls-2" points="78.16 33.46 79.2 34.24 79.09 34.64 78.06 33.86 78.16 33.46"/><path class="cls-3" d="M76.44,17.77c2.13,2.31,3,5.41,2.64,9.24a28,28,0,0,1-.48,3.08c-.22,1.07-.52,2.37-.9,3.85H55.59l-.11.4c-.09.35-.17.69-.23,1s-.11.61-.16.95a5.37,5.37,0,0,0,1.66,4.9c1.28,1.07,3.27,1.62,5.9,1.62a23.58,23.58,0,0,0,6.51-1,25.29,25.29,0,0,0,5.29-2.21l-1.89,6.8a29.62,29.62,0,0,1-5.63,1.76,30,30,0,0,1-6.17.63c-4.68,0-8.15-1.16-10.34-3.45s-3.06-5.67-2.64-10.09a28.07,28.07,0,0,1,2-8.08A23.81,23.81,0,0,1,54,20.47a18.81,18.81,0,0,1,6.12-4.59,17.13,17.13,0,0,1,7.23-1.59C71.26,14.29,74.32,15.46,76.44,17.77ZM72,27.05c.06-.3.1-.56.13-.83A5.47,5.47,0,0,0,71,21.83a5.5,5.5,0,0,0-4.25-1.6,8.6,8.6,0,0,0-5.46,1.88,13.94,13.94,0,0,0-3.91,5.56l-.27.63H71.65l.13-.35a4.36,4.36,0,0,0,.26-.9" transform="translate(-0.35 -1.05)"/><path class="cls-2" d="M52,48l-1-.78c2.33,1.75,5.59,2.63,9.74,2.63A32,32,0,0,0,67,49.16a31.09,31.09,0,0,0,6-1.93l1,.77a29.67,29.67,0,0,1-6.06,1.93,31.09,31.09,0,0,1-6.35.65C57.56,50.58,54.3,49.69,52,48Z" transform="translate(-0.35 -1.05)"/><polygon class="cls-2" points="72.97 46.08 74.01 46.85 73.77 46.95 72.73 46.18 72.97 46.08"/><polygon class="cls-2" points="75.61 36.63 76.64 37.4 74.01 46.85 72.97 46.08 75.61 36.63"/></g><g class="cls-1"><polygon class="cls-2" points="102.05 0.96 103.09 1.74 95.5 1.74 94.47 0.96 102.05 0.96"/><polygon class="cls-3" points="102.05 0.96 103.09 1.74 97.34 21.8 96.3 21.02 102.05 0.96"/><polygon class="cls-2" points="103.28 0 104.32 0.78 99.53 17.48 98.49 16.7 103.28 0"/><polygon class="cls-2" points="97.81 18.96 98.85 19.74 97.34 21.8 96.3 21.02 97.81 18.96"/><path class="cls-3" d="M97.71,25.8c-.36.53-.69,1.09-1,1.66l-1-.77a17.46,17.46,0,0,1,1-1.67Z" transform="translate(-0.35 -1.05)"/><path class="cls-3" d="M96.71,27.46l-.08.17-1-.77.09-.17Z" transform="translate(-0.35 -1.05)"/><path class="cls-3" d="M100.55,22.7a12,12,0,0,0-2.84,3.1l-1-.78a12.52,12.52,0,0,1,2.84-3.1Z" transform="translate(-0.35 -1.05)"/><path class="cls-3" d="M100.58,22.67l0,0-1-.78,0,0Z" transform="translate(-0.35 -1.05)"/><path class="cls-3" d="M100.77,22.54l-.19.13-1-.77.2-.14Z" transform="translate(-0.35 -1.05)"/><path class="cls-3" d="M100.77,22.54l-1-.78.3-.2,1,.78Z" transform="translate(-0.35 -1.05)"/><path class="cls-3" d="M101.38,22.16l-.3.18-1-.78.3-.18Z" transform="translate(-0.35 -1.05)"/><polygon class="cls-2" points="94.47 0.96 95.5 1.74 82.45 47.69 81.41 46.91 94.47 0.96"/><path class="cls-3" d="M101.38,22.16l-1-.78a5.91,5.91,0,0,1,2.88-.76l1,.77A5.91,5.91,0,0,0,101.38,22.16Z" transform="translate(-0.35 -1.05)"/><path class="cls-3" d="M96.63,27.63a23.46,23.46,0,0,0-2.39,8.57l-1-.78a23.36,23.36,0,0,1,2.39-8.56Z" transform="translate(-0.35 -1.05)"/><path class="cls-3" d="M106.81,22.17a4.1,4.1,0,0,0-2.56-.78l-1-.77a4.15,4.15,0,0,1,2.55.77Z" transform="translate(-0.35 -1.05)"/><polygon class="cls-3" points="91.45 38.36 92.49 39.14 90.03 47.69 88.99 46.91 91.45 38.36"/><polygon class="cls-2" points="91.45 38.36 92.49 39.14 92.63 41.86 91.59 41.09 91.45 38.36"/><path class="cls-2" d="M112.17,15.67l1,.78a7.12,7.12,0,0,0-4.42-1.32,10.09,10.09,0,0,0-5.09,1.41,15.08,15.08,0,0,0-4.5,4.25l-1-.78a15.06,15.06,0,0,1,4.51-4.24,10,10,0,0,1,5.08-1.42A7.12,7.12,0,0,1,112.17,15.67Z" transform="translate(-0.35 -1.05)"/><path class="cls-3" d="M94.24,36.2a8.14,8.14,0,0,0,.9,5.21l-1-.77a8.19,8.19,0,0,1-.9-5.22Z" transform="translate(-0.35 -1.05)"/><polygon class="cls-3" points="88.99 46.91 90.03 47.69 82.45 47.69 81.41 46.91 88.99 46.91"/><path class="cls-3" d="M95.14,41.41a4.4,4.4,0,0,0,1.07,1.19l-1-.78a4.39,4.39,0,0,1-1.08-1.18l.52.39.07,0,.07.05.13.1.13.09Z" transform="translate(-0.35 -1.05)"/><path class="cls-2" d="M105.17,22.19l1,.78a3.29,3.29,0,0,0-2-.61c-2.06,0-3.92,1.29-5.7,3.94a21.11,21.11,0,0,0-3.29,9.9,7.3,7.3,0,0,0,.77,4.63,3.77,3.77,0,0,0,.88,1l-1-.78a3.68,3.68,0,0,1-.87-1,7.26,7.26,0,0,1-.78-4.64,21.15,21.15,0,0,1,3.29-9.9c1.78-2.65,3.65-3.94,5.7-3.94A3.29,3.29,0,0,1,105.17,22.19Z" transform="translate(-0.35 -1.05)"/><polygon class="cls-2" points="89.67 47.88 90.7 48.66 81.22 48.66 80.18 47.88 89.67 47.88"/><polygon class="cls-2" points="90.97 43.34 92 44.12 90.7 48.66 89.67 47.88 90.97 43.34"/><path class="cls-3" d="M113.21,16.45l-1-.78a7.14,7.14,0,0,1,1.66,1.79l-6.08-3.11,7.12,3.89-6.08-3.11C114.39,17.51,113.84,16.92,113.21,16.45Z" transform="translate(-0.35 -1.05)"/><path class="cls-2" d="M112.78,14.89l1,.77a7.82,7.82,0,0,1,1.84,2l-1-.78A7.64,7.64,0,0,0,112.78,14.89Z" transform="translate(-0.35 -1.05)"/><path class="cls-2" d="M95.53,48.35l-1-.77c-.2-.16-.4-.33-.59-.51a7.25,7.25,0,0,1-2-4.94l1,.78a7.24,7.24,0,0,0,2,4.94A5.57,5.57,0,0,0,95.53,48.35Z" transform="translate(-0.35 -1.05)"/><path class="cls-2" d="M105.77,21.39l1,.78a4,4,0,0,1,1,1.11,8,8,0,0,1,.82,5,23.5,23.5,0,0,1-3.39,10.59c-1.91,3-4.07,4.52-6.39,4.52a4.34,4.34,0,0,1-2.64-.81l-1-.78a4.26,4.26,0,0,0,2.63.81c2.33,0,4.48-1.52,6.39-4.51a23.58,23.58,0,0,0,3.39-10.6,8,8,0,0,0-.82-5A3.83,3.83,0,0,0,105.77,21.39Z" transform="translate(-0.35 -1.05)"/><path class="cls-3" d="M99.8,49.61a6.94,6.94,0,0,1-4.27-1.26l-1-.77a7,7,0,0,0,4.27,1.26Z" transform="translate(-0.35 -1.05)"/><path class="cls-3" d="M114.87,18.24c1.38,2.1,1.91,5,1.56,8.7l-1-.78c.35-3.67-.18-6.59-1.56-8.7Z" transform="translate(-0.35 -1.05)"/><path class="cls-3" d="M116.43,26.94a37.28,37.28,0,0,1-1.62,7.75l-1-.78a36.52,36.52,0,0,0,1.62-7.75Z" transform="translate(-0.35 -1.05)"/><path class="cls-3" d="M106.2,47.53a11.5,11.5,0,0,1-6.4,2.08l-1-.77a11.51,11.51,0,0,0,6.4-2.09Z" transform="translate(-0.35 -1.05)"/><path class="cls-3" d="M114.81,34.69a34.23,34.23,0,0,1-3.12,7l-1-.78a33.46,33.46,0,0,0,3.12-7Z" transform="translate(-0.35 -1.05)"/><path class="cls-3" d="M111.69,41.64a18.6,18.6,0,0,1-5.49,5.89l-1-.78a18.5,18.5,0,0,0,5.49-5.89Z" transform="translate(-0.35 -1.05)"/><path class="cls-2" d="M114.63,16.87c1.49,2.28,2.06,5.41,1.69,9.29a37.33,37.33,0,0,1-1.66,8,34.48,34.48,0,0,1-3.23,7.19,19.78,19.78,0,0,1-5.82,6.23,12.48,12.48,0,0,1-6.94,2.25,7.47,7.47,0,0,1-5.45-2,7.26,7.26,0,0,1-1.91-3.41L90,48.93H80.53L94.13,1.05h9.5l-4.79,16.7a14.81,14.81,0,0,1,3.43-2.81,11,11,0,0,1,5.57-1.56A7.63,7.63,0,0,1,114.63,16.87Zm-.86,17a36.52,36.52,0,0,0,1.62-7.75c.35-3.67-.18-6.59-1.56-8.7a6.76,6.76,0,0,0-6.08-3.11,10,10,0,0,0-5.08,1.42A15.06,15.06,0,0,0,98.16,20l-1.51,2.06L102.4,2H94.81L81.75,48h7.59l2.46-8.55.13,2.72a7.25,7.25,0,0,0,2,4.94,6.67,6.67,0,0,0,4.86,1.77,11.51,11.51,0,0,0,6.4-2.09,18.5,18.5,0,0,0,5.49-5.89,33.46,33.46,0,0,0,3.12-7" transform="translate(-0.35 -1.05)"/><path class="cls-3" d="M113.83,17.46c1.38,2.11,1.91,5,1.56,8.7a36.52,36.52,0,0,1-1.62,7.75,33.46,33.46,0,0,1-3.12,7,18.5,18.5,0,0,1-5.49,5.89,11.51,11.51,0,0,1-6.4,2.09,6.67,6.67,0,0,1-4.86-1.77,7.25,7.25,0,0,1-2-4.94l-.13-2.72L89.34,48H81.75L94.81,2h7.59L96.65,22.07,98.16,20a15.06,15.06,0,0,1,4.51-4.24,10,10,0,0,1,5.08-1.42A6.76,6.76,0,0,1,113.83,17.46ZM104.2,38.12a23.58,23.58,0,0,0,3.39-10.6,8,8,0,0,0-.82-5,3.9,3.9,0,0,0-3.55-1.88c-2.38,0-4.59,1.48-6.55,4.4a22.33,22.33,0,0,0-3.47,10.4,8.19,8.19,0,0,0,.9,5.22,4.14,4.14,0,0,0,3.71,2c2.33,0,4.48-1.52,6.39-4.51" transform="translate(-0.35 -1.05)"/><path class="cls-2" d="M106.77,22.5a3.9,3.9,0,0,0-3.55-1.88c-2.38,0-4.59,1.48-6.55,4.4a22.33,22.33,0,0,0-3.47,10.4,8.19,8.19,0,0,0,.9,5.22,4.14,4.14,0,0,0,3.71,2c2.33,0,4.48-1.52,6.39-4.51a23.58,23.58,0,0,0,3.39-10.6A8,8,0,0,0,106.77,22.5Zm-.11,5a22.53,22.53,0,0,1-3.23,10.12c-1.7,2.67-3.56,4-5.53,4a3.3,3.3,0,0,1-3-1.6,7.26,7.26,0,0,1-.78-4.64,21.15,21.15,0,0,1,3.29-9.9c1.78-2.65,3.65-3.94,5.7-3.94a3.08,3.08,0,0,1,2.85,1.5,7.12,7.12,0,0,1,.69,4.44" transform="translate(-0.35 -1.05)"/><path class="cls-2" d="M94.93,49.15l-1-.77a7.83,7.83,0,0,0,4.78,1.42,12.48,12.48,0,0,0,6.94-2.25,19.78,19.78,0,0,0,5.82-6.23,34.48,34.48,0,0,0,3.23-7.19,37.33,37.33,0,0,0,1.66-8c.37-3.88-.2-7-1.69-9.29l1,.78c1.5,2.27,2.07,5.4,1.7,9.29a38.37,38.37,0,0,1-1.66,8,34.25,34.25,0,0,1-3.23,7.19,19.82,19.82,0,0,1-5.82,6.24,12.49,12.49,0,0,1-7,2.25A7.76,7.76,0,0,1,94.93,49.15Z" transform="translate(-0.35 -1.05)"/></g><g class="cls-1"><polygon class="cls-2" points="21.78 62.41 22.82 63.19 15.23 63.19 14.2 62.41 21.78 62.41"/><polygon class="cls-4" points="21.78 62.41 22.82 63.19 20.92 69.83 19.89 69.05 21.78 62.41"/><polygon class="cls-2" points="23.01 61.44 24.05 62.22 23 65.92 21.96 65.14 23.01 61.44"/><polygon class="cls-2" points="21.3 67.27 22.34 68.05 20.92 69.83 19.89 69.05 21.3 67.27"/><path class="cls-4" d="M21.3,74.1c-.36.53-.7,1.09-1,1.66l-1-.78a18.73,18.73,0,0,1,1-1.66Z" transform="translate(-0.35 -1.05)"/><path class="cls-4" d="M20.29,75.76a.54.54,0,0,1-.07.13l-1-.77a.91.91,0,0,1,.07-.14Z" transform="translate(-0.35 -1.05)"/><path class="cls-4" d="M24.15,71a12.36,12.36,0,0,0-2.85,3.1l-1-.78a12.55,12.55,0,0,1,2.85-3.1Z" transform="translate(-0.35 -1.05)"/><path class="cls-4" d="M24.25,70.93l-.1.07-1-.78.1-.07Z" transform="translate(-0.35 -1.05)"/><path class="cls-4" d="M24.44,70.79l-.19.14-1-.78L23.4,70Z" transform="translate(-0.35 -1.05)"/><path class="cls-4" d="M24.44,70.79l-1-.78.26-.16,1,.78Z" transform="translate(-0.35 -1.05)"/><path class="cls-4" d="M24.94,70.48l-.25.15-1-.78.24-.14Z" transform="translate(-0.35 -1.05)"/><path class="cls-4" d="M24.94,70.48l-1-.77a6,6,0,0,1,2.94-.8l1,.78A6,6,0,0,0,24.94,70.48Z" transform="translate(-0.35 -1.05)"/><path class="cls-4" d="M20.22,75.89a23.14,23.14,0,0,0-2.42,8.6l-1-.78a23.15,23.15,0,0,1,2.43-8.59Z" transform="translate(-0.35 -1.05)"/><path class="cls-4" d="M30.43,70.46a4.09,4.09,0,0,0-2.55-.77l-1-.78a4.2,4.2,0,0,1,2.56.77Z" transform="translate(-0.35 -1.05)"/><polygon class="cls-4" points="14.85 86.81 15.88 87.59 9.85 108.83 8.81 108.05 14.85 86.81"/><polygon class="cls-2" points="14.85 86.81 15.88 87.59 16.07 90.14 15.04 89.37 14.85 86.81"/><polygon class="cls-2" points="14.2 62.41 15.23 63.19 2.27 108.83 1.23 108.05 14.2 62.41"/><path class="cls-2" d="M35.81,64l1,.78a7.16,7.16,0,0,0-4.44-1.32,9.91,9.91,0,0,0-5,1.4,17.41,17.41,0,0,0-4.73,4.27l-1-.77A17.16,17.16,0,0,1,26.38,64a9.86,9.86,0,0,1,5-1.4A7.19,7.19,0,0,1,35.81,64Z" transform="translate(-0.35 -1.05)"/><path class="cls-4" d="M17.8,84.49a8.12,8.12,0,0,0,.91,5.22h0l-1-.77a8.23,8.23,0,0,1-.91-5.23Z" transform="translate(-0.35 -1.05)"/><path class="cls-2" d="M28.8,70.49l1,.78a3.33,3.33,0,0,0-2.05-.61c-2,0-4,1.32-5.74,3.94a20.9,20.9,0,0,0-3.31,9.89,7.33,7.33,0,0,0,.76,4.64,3.68,3.68,0,0,0,.87,1l-1-.78a3.63,3.63,0,0,1-.87-1,7.37,7.37,0,0,1-.76-4.65A20.93,20.93,0,0,1,21,73.82c1.78-2.62,3.7-3.94,5.74-3.94A3.33,3.33,0,0,1,28.8,70.49Z" transform="translate(-0.35 -1.05)"/><path class="cls-4" d="M18.71,89.71a4.33,4.33,0,0,0,1.06,1.18l-1-.78a4.43,4.43,0,0,1-1.06-1.17Z" transform="translate(-0.35 -1.05)"/><path class="cls-4" d="M36.85,64.74l-1-.78a6.93,6.93,0,0,1,1.65,1.79l-6.08-3.11,7.12,3.89-6.09-3.11C38,65.8,37.48,65.21,36.85,64.74Z" transform="translate(-0.35 -1.05)"/><path class="cls-2" d="M36.42,63.18l1,.78a7.61,7.61,0,0,1,1.84,2l-1-.78A7.6,7.6,0,0,0,36.42,63.18Z" transform="translate(-0.35 -1.05)"/><path class="cls-2" d="M19,96.64l-1-.77a6.68,6.68,0,0,1-.57-.49,7.55,7.55,0,0,1-2-5l1,.77a7.52,7.52,0,0,0,2,5A6.57,6.57,0,0,0,19,96.64Z" transform="translate(-0.35 -1.05)"/><polygon class="cls-4" points="8.81 108.05 9.85 108.83 2.27 108.83 1.23 108.05 8.81 108.05"/><polygon class="cls-2" points="14.44 91.58 15.47 92.36 10.53 109.79 9.49 109.01 14.44 91.58"/><polygon class="cls-2" points="9.49 109.01 10.53 109.79 1.04 109.79 0 109.01 9.49 109.01"/><path class="cls-2" d="M29.4,69.68l1,.78a4,4,0,0,1,1,1.11,8.08,8.08,0,0,1,.82,5,23.56,23.56,0,0,1-3.43,10.58c-1.94,3-4.09,4.52-6.42,4.52a4.34,4.34,0,0,1-2.64-.81l-1-.78a4.29,4.29,0,0,0,2.64.81c2.33,0,4.49-1.52,6.42-4.52a23.56,23.56,0,0,0,3.43-10.58,8,8,0,0,0-.82-5A4,4,0,0,0,29.4,69.68Z" transform="translate(-0.35 -1.05)"/><path class="cls-4" d="M23.36,97.91A7,7,0,0,1,19,96.64l-1-.77a7.07,7.07,0,0,0,4.32,1.27Z" transform="translate(-0.35 -1.05)"/><path class="cls-4" d="M37.46,65.75c1.38,2.12,1.9,5,1.55,8.71a35.66,35.66,0,0,1-1.63,7.7,34.23,34.23,0,0,1-3.17,7,18.69,18.69,0,0,1-5.48,5.89,11.59,11.59,0,0,1-6.41,2.09,6.75,6.75,0,0,1-4.89-1.76,7.55,7.55,0,0,1-2-5l-.19-2.56-6,21.24H1.57l13-45.64h7.59l-1.9,6.64,1.42-1.78A17.16,17.16,0,0,1,26.38,64a9.86,9.86,0,0,1,5-1.4A6.73,6.73,0,0,1,37.46,65.75ZM27.79,86.4a23.56,23.56,0,0,0,3.43-10.58,8,8,0,0,0-.82-5,3.92,3.92,0,0,0-3.56-1.89c-2.39,0-4.59,1.49-6.58,4.41a22.05,22.05,0,0,0-3.5,10.39,8.23,8.23,0,0,0,.91,5.23,4.12,4.12,0,0,0,3.7,2c2.33,0,4.49-1.52,6.42-4.52" transform="translate(-0.35 -1.05)"/><path class="cls-2" d="M26.84,68.91A3.92,3.92,0,0,1,30.4,70.8a8,8,0,0,1,.82,5A23.56,23.56,0,0,1,27.79,86.4c-1.93,3-4.09,4.52-6.42,4.52a4.12,4.12,0,0,1-3.7-2,8.23,8.23,0,0,1-.91-5.23,22.05,22.05,0,0,1,3.5-10.39C22.25,70.4,24.45,68.91,26.84,68.91Zm.19,17a22.5,22.5,0,0,0,3.25-10.1,7.14,7.14,0,0,0-.69-4.45,3.1,3.1,0,0,0-2.84-1.49c-2,0-4,1.32-5.74,3.94a20.93,20.93,0,0,0-3.31,9.89,7.37,7.37,0,0,0,.76,4.65,3.33,3.33,0,0,0,3,1.6c2,0,3.83-1.36,5.56-4" transform="translate(-0.35 -1.05)"/><path class="cls-4" d="M38.5,66.53c1.38,2.11,1.9,5,1.55,8.71l-1-.78c.35-3.67-.17-6.59-1.55-8.71A10.07,10.07,0,0,1,38.5,66.53Z" transform="translate(-0.35 -1.05)"/><path class="cls-4" d="M40.05,75.24a35.44,35.44,0,0,1-1.63,7.69l-1-.77A35.66,35.66,0,0,0,39,74.46Z" transform="translate(-0.35 -1.05)"/><path class="cls-4" d="M29.76,95.83a11.52,11.52,0,0,1-6.4,2.08l-1-.77a11.59,11.59,0,0,0,6.41-2.09Z" transform="translate(-0.35 -1.05)"/><path class="cls-4" d="M38.42,82.93a34,34,0,0,1-3.17,7h0l-1-.77a34.23,34.23,0,0,0,3.17-7Z" transform="translate(-0.35 -1.05)"/><path class="cls-4" d="M35.25,89.93a18.76,18.76,0,0,1-5.49,5.9l-1-.78a18.69,18.69,0,0,0,5.48-5.89Z" transform="translate(-0.35 -1.05)"/><path class="cls-2" d="M18.44,97.45l-1-.78a7.89,7.89,0,0,0,4.83,1.43,12.47,12.47,0,0,0,7-2.26A19.76,19.76,0,0,0,35,89.61a35.17,35.17,0,0,0,3.28-7.23,37,37,0,0,0,1.67-7.92c.38-3.89-.19-7-1.68-9.3l1,.78c1.49,2.28,2.06,5.41,1.68,9.3a37,37,0,0,1-1.67,7.92A35.08,35.08,0,0,1,36,90.38a19.69,19.69,0,0,1-5.81,6.24,12.58,12.58,0,0,1-6.95,2.26A7.87,7.87,0,0,1,18.44,97.45Z" transform="translate(-0.35 -1.05)"/><path class="cls-2" d="M38.26,65.16c1.49,2.28,2.06,5.41,1.68,9.3a37,37,0,0,1-1.67,7.92A35.17,35.17,0,0,1,35,89.61a19.76,19.76,0,0,1-5.81,6.23,12.47,12.47,0,0,1-6.95,2.26,7.54,7.54,0,0,1-5.48-2,7.43,7.43,0,0,1-2-3.48L9.84,110.06H.35L13.87,62.49h9.49l-1.06,3.7a16.54,16.54,0,0,1,3.69-3,10.79,10.79,0,0,1,5.48-1.53A7.61,7.61,0,0,1,38.26,65.16Zm-.88,17A35.66,35.66,0,0,0,39,74.46c.35-3.67-.17-6.59-1.55-8.71a6.73,6.73,0,0,0-6.08-3.11,9.86,9.86,0,0,0-5,1.4,17.16,17.16,0,0,0-4.73,4.28L20.23,70.1l1.9-6.64H14.54l-13,45.64H9.16l6-21.24.19,2.56a7.55,7.55,0,0,0,2,5,6.75,6.75,0,0,0,4.89,1.76,11.59,11.59,0,0,0,6.41-2.09,18.69,18.69,0,0,0,5.48-5.89,34.23,34.23,0,0,0,3.17-7" transform="translate(-0.35 -1.05)"/></g><g class="cls-1"><polygon class="cls-2" points="50.92 63.83 51.96 64.6 50.2 70.94 49.16 70.16 50.92 63.83"/><polygon class="cls-2" points="48.61 71.43 49.65 72.21 48.78 72.62 47.74 71.84 48.61 71.43"/><path class="cls-4" d="M54.09,82.7A6.55,6.55,0,0,0,50.94,88l-1-.78a6.53,6.53,0,0,1,3.14-5.26Z" transform="translate(-0.35 -1.05)"/><path class="cls-2" d="M45.74,96.36l-1-.78a6.18,6.18,0,0,1-1-1c-1.46-1.65-2.06-3.94-1.79-6.79a12.52,12.52,0,0,1,5.25-9.51C50.28,76.12,54.7,75,60.26,75l1,.78c-5.56,0-10,1.12-13.12,3.33a12.5,12.5,0,0,0-5.25,9.51c-.27,2.85.32,5.14,1.79,6.79A7,7,0,0,0,45.74,96.36Z" transform="translate(-0.35 -1.05)"/><path class="cls-4" d="M65.7,69.28l1,.77-.21-.15a8.12,8.12,0,0,0-4.3-1,22,22,0,0,0-5.77.88A41.71,41.71,0,0,0,50.55,72l-1-.78A41.71,41.71,0,0,1,55.42,69a22,22,0,0,1,5.77-.87,8,8,0,0,1,4.3,1A1.37,1.37,0,0,1,65.7,69.28Z" transform="translate(-0.35 -1.05)"/><path class="cls-2" d="M65.1,70.07l1,.78L66,70.74a7.12,7.12,0,0,0-3.81-.84,20.85,20.85,0,0,0-5.55.85A41,41,0,0,0,50,73.26l-1-.78A42.64,42.64,0,0,1,55.58,70a21.26,21.26,0,0,1,5.54-.85,7.28,7.28,0,0,1,3.82.84Z" transform="translate(-0.35 -1.05)"/><path class="cls-4" d="M50.94,88a4.49,4.49,0,0,0,1,3.48h0l-1-.78a4.47,4.47,0,0,1-1-3.48Z" transform="translate(-0.35 -1.05)"/><path class="cls-4" d="M51.93,91.44a3.9,3.9,0,0,0,.63.59l-1-.78a3.9,3.9,0,0,1-.63-.59l.52.39.4.3A.34.34,0,0,1,51.93,91.44Z" transform="translate(-0.35 -1.05)"/><path class="cls-2" d="M72,64.85l1,.78c-2-1.47-5-2.21-9.12-2.21a29.26,29.26,0,0,0-5.55.58,45,45,0,0,0-6,1.65l-1-.78a46.54,46.54,0,0,1,6-1.65,29.36,29.36,0,0,1,5.56-.58C67,62.64,70,63.39,72,64.85Z" transform="translate(-0.35 -1.05)"/><path class="cls-4" d="M61.93,81.06c-3.42,0-6.06.54-7.84,1.64l-1-.78c1.79-1.09,4.43-1.64,7.84-1.64Z" transform="translate(-0.35 -1.05)"/><path class="cls-2" d="M65.7,69.28l1,.77A3,3,0,0,1,68,73c0,.26,0,.45-.07.57l-1-.78c0-.12,0-.31.07-.57A3,3,0,0,0,65.7,69.28Z" transform="translate(-0.35 -1.05)"/><path class="cls-2" d="M66.84,72.74l1,.78c0,.12,0,.24-.08.38l-1-.78C66.79,73,66.82,72.86,66.84,72.74Z" transform="translate(-0.35 -1.05)"/><path class="cls-2" d="M53.15,91.22l-1-.77a3.17,3.17,0,0,1-.5-.47,3.57,3.57,0,0,1-.78-2.8,5.44,5.44,0,0,1,2.63-4.44c1.62-1,4.09-1.5,7.32-1.5l1,.78c-3.23,0-5.7.51-7.32,1.5A5.39,5.39,0,0,0,51.88,88a3.37,3.37,0,0,0,1.27,3.26Z" transform="translate(-0.35 -1.05)"/><polygon class="cls-2" points="66.41 72.08 67.45 72.85 66.97 74.73 65.93 73.95 66.41 72.08"/><polygon class="cls-2" points="65.93 73.95 66.97 74.73 60.95 74.73 59.91 73.95 65.93 73.95"/><polygon class="cls-2" points="63.19 80.2 64.23 80.97 61.49 80.97 60.45 80.2 63.19 80.2"/><polygon class="cls-4" points="64.39 79.23 65.43 80.01 61.58 80.01 60.54 79.23 64.39 79.23"/><polygon class="cls-2" points="64.39 79.23 65.43 80.01 65.28 80.57 64.24 79.8 64.39 79.23"/><path class="cls-2" d="M52.56,92l-1-.78A4.23,4.23,0,0,0,54.1,92a8.52,8.52,0,0,0,6.41-3,19,19,0,0,0,4.08-8.23l1,.78a18.92,18.92,0,0,1-4.08,8.22,8.51,8.51,0,0,1-6.41,3A4.23,4.23,0,0,1,52.56,92Z" transform="translate(-0.35 -1.05)"/><path class="cls-4" d="M45.74,96.36l-1-.78a8.78,8.78,0,0,0,5.38,1.56A14,14,0,0,0,55.74,96a14.24,14.24,0,0,0,4.63-3.35l1,.78a14.65,14.65,0,0,1-4.63,3.35,14,14,0,0,1-5.65,1.12A8.83,8.83,0,0,1,45.74,96.36Z" transform="translate(-0.35 -1.05)"/><polygon class="cls-4" points="61.31 90.24 62.35 91.01 61.06 92.39 60.02 91.61 61.31 90.24"/><path class="cls-2" d="M45.15,97.16l-1-.78A9.59,9.59,0,0,0,50,98.1a14.83,14.83,0,0,0,6-1.21,14.59,14.59,0,0,0,3.75-2.41l1,.78a14.37,14.37,0,0,1-3.74,2.41,14.9,14.9,0,0,1-6,1.21A9.59,9.59,0,0,1,45.15,97.16Z" transform="translate(-0.35 -1.05)"/><polygon class="cls-2" points="61.31 90.24 62.35 91.01 60.91 95.99 59.87 95.21 61.31 90.24"/><path class="cls-4" d="M73,65.63C75,67.07,75.75,69.14,75.48,72l-1-.77c.27-2.82-.53-4.89-2.45-6.33Z" transform="translate(-0.35 -1.05)"/><path class="cls-4" d="M75.48,72A22.58,22.58,0,0,1,75,74.66l-1-.78a22.45,22.45,0,0,0,.46-2.7Z" transform="translate(-0.35 -1.05)"/><path class="cls-4" d="M75,74.66l-.92,3.49L74,73.88l-.92,3.5c.38-1.28.68-2.46.92-3.5Z" transform="translate(-0.35 -1.05)"/><polygon class="cls-4" points="72.72 76.33 73.76 77.1 68.43 95.99 67.39 95.21 72.72 76.33"/><polygon class="cls-4" points="67.39 95.21 68.43 95.99 60.91 95.99 59.87 95.21 67.39 95.21"/><path class="cls-2" d="M72.59,64.05c2.14,1.62,3.08,4,2.78,7.13A22.62,22.62,0,0,1,74.89,74c-.24,1.06-.55,2.26-.93,3.56L68.42,97.22H59l.8-2.74A14.59,14.59,0,0,1,56,96.89a14.83,14.83,0,0,1-6,1.21,8.93,8.93,0,0,1-7-2.78c-1.63-1.84-2.3-4.36-2-7.48a13.55,13.55,0,0,1,5.71-10.29C50,75.22,54.59,74,60.35,74h5.23L65.85,73c0-.11.05-.22.07-.32s0-.26.06-.48a2.19,2.19,0,0,0-1-2.21,7.28,7.28,0,0,0-3.82-.84,21.26,21.26,0,0,0-5.54.85A42.64,42.64,0,0,0,49,72.48l-.87.41,2.43-8.75.26-.08a47.66,47.66,0,0,1,6.46-1.78,29.55,29.55,0,0,1,5.73-.6C67.25,61.68,70.49,62.48,72.59,64.05ZM74,73.88a22.45,22.45,0,0,0,.46-2.7c.27-2.82-.53-4.89-2.45-6.33s-5-2.21-9.11-2.21a29.36,29.36,0,0,0-5.56.58,46.54,46.54,0,0,0-6,1.65l-1.76,6.34A41.71,41.71,0,0,1,55.42,69a22,22,0,0,1,5.77-.87,8,8,0,0,1,4.3,1,3,3,0,0,1,1.42,3c0,.26,0,.45-.07.57s0,.25-.08.38L66.28,75h-6c-5.56,0-10,1.12-13.12,3.33a12.52,12.52,0,0,0-5.25,9.51c-.27,2.85.33,5.14,1.79,6.79a8.13,8.13,0,0,0,6.41,2.51A14,14,0,0,0,55.74,96a14.24,14.24,0,0,0,4.63-3.35l1.28-1.37-1.43,5h7.52l5.32-18.88c.38-1.28.68-2.46.92-3.5" transform="translate(-0.35 -1.05)"/><path class="cls-4" d="M72,64.85c1.92,1.44,2.72,3.51,2.45,6.33a22.45,22.45,0,0,1-.46,2.7c-.24,1-.54,2.22-.92,3.5L67.74,96.26H60.22l1.43-5-1.28,1.37A14.24,14.24,0,0,1,55.74,96a14,14,0,0,1-5.65,1.13,8.13,8.13,0,0,1-6.41-2.51c-1.46-1.65-2.06-3.94-1.79-6.79a12.52,12.52,0,0,1,5.25-9.51C50.28,76.12,54.7,75,60.26,75h6l.48-1.88c0-.13.06-.26.08-.38s0-.31.07-.57a3,3,0,0,0-1.42-3,8,8,0,0,0-4.3-1,22,22,0,0,0-5.77.87,41.71,41.71,0,0,0-5.91,2.18l1.76-6.34a46.54,46.54,0,0,1,6-1.65,29.36,29.36,0,0,1,5.56-.58C67,62.64,70,63.39,72,64.85Zm-7.4,16,.15-.56H60.89c-3.41,0-6,.55-7.84,1.64a6.53,6.53,0,0,0-3.14,5.26,4.47,4.47,0,0,0,1,3.48A4.06,4.06,0,0,0,54.1,92a8.52,8.52,0,0,0,6.41-3,19,19,0,0,0,4.08-8.23" transform="translate(-0.35 -1.05)"/><path class="cls-2" d="M53.05,81.92c1.79-1.09,4.43-1.64,7.84-1.64h3.85l-.15.56a19,19,0,0,1-4.08,8.23,8.52,8.52,0,0,1-6.41,3,4.06,4.06,0,0,1-3.21-1.38,4.47,4.47,0,0,1-1-3.48A6.53,6.53,0,0,1,53.05,81.92Zm6.82,6.51a17.28,17.28,0,0,0,3.66-7.19H60.79c-3.23,0-5.7.51-7.32,1.5a5.44,5.44,0,0,0-2.63,4.44,3.57,3.57,0,0,0,.78,2.8,3.21,3.21,0,0,0,2.58,1.09,7.46,7.46,0,0,0,5.67-2.64" transform="translate(-0.35 -1.05)"/><path class="cls-2" d="M72.59,64.05l1,.78c2.14,1.61,3.08,4,2.78,7.12a25.12,25.12,0,0,1-.48,2.84c-.24,1.06-.55,2.26-.93,3.55l-1-.77c.38-1.3.69-2.5.93-3.56a22.62,22.62,0,0,0,.48-2.83C75.67,68.07,74.73,65.67,72.59,64.05Z" transform="translate(-0.35 -1.05)"/><polygon class="cls-2" points="68.07 96.17 69.11 96.95 59.67 96.95 58.64 96.17 68.07 96.17"/><polygon class="cls-2" points="73.61 76.52 74.65 77.3 69.11 96.95 68.07 96.17 73.61 76.52"/></g><g class="cls-1"><polygon class="cls-2" points="93.64 62.41 94.68 63.19 87.1 63.19 86.06 62.41 93.64 62.41"/><polygon class="cls-4" points="93.64 62.41 94.68 63.19 92.78 69.83 91.74 69.05 93.64 62.41"/><polygon class="cls-2" points="94.87 61.44 95.91 62.22 94.85 65.92 93.81 65.14 94.87 61.44"/><polygon class="cls-2" points="93.16 67.27 94.19 68.05 92.78 69.83 91.74 69.05 93.16 67.27"/><path class="cls-4" d="M93.15,74.1a18.25,18.25,0,0,0-1,1.66l-1-.78c.31-.57.64-1.13,1-1.66Z" transform="translate(-0.35 -1.05)"/><path class="cls-4" d="M92.15,75.76a.83.83,0,0,1-.07.13l-1-.77a.91.91,0,0,0,.07-.14Z" transform="translate(-0.35 -1.05)"/><path class="cls-4" d="M96,71a12.57,12.57,0,0,0-2.86,3.1l-1-.78A12.57,12.57,0,0,1,95,70.22Z" transform="translate(-0.35 -1.05)"/><path class="cls-4" d="M96.11,70.93,96,71l-1-.78.1-.07Z" transform="translate(-0.35 -1.05)"/><path class="cls-4" d="M96.3,70.79l-.19.14-1-.78.19-.14Z" transform="translate(-0.35 -1.05)"/><path class="cls-4" d="M96.3,70.79l-1-.78.25-.16,1,.78Z" transform="translate(-0.35 -1.05)"/><path class="cls-4" d="M96.8,70.48l-.25.15-1-.78.25-.14Z" transform="translate(-0.35 -1.05)"/><path class="cls-4" d="M96.8,70.48l-1-.77a6,6,0,0,1,2.94-.8l.58.44.33.24a.64.64,0,0,0,.13.1A6,6,0,0,0,96.8,70.48Z" transform="translate(-0.35 -1.05)"/><path class="cls-4" d="M92.08,75.89a23.14,23.14,0,0,0-2.42,8.6l-1-.78A23.28,23.28,0,0,1,91,75.12Z" transform="translate(-0.35 -1.05)"/><path class="cls-4" d="M102.29,70.46a4.09,4.09,0,0,0-2.55-.77h0l-1-.78a4.15,4.15,0,0,1,2.55.77Z" transform="translate(-0.35 -1.05)"/><polygon class="cls-4" points="86.7 86.81 87.74 87.59 81.71 108.83 80.67 108.05 86.7 86.81"/><polygon class="cls-2" points="86.7 86.81 87.74 87.59 87.93 90.14 86.89 89.37 86.7 86.81"/><polygon class="cls-2" points="86.06 62.41 87.1 63.19 74.12 108.83 73.08 108.05 86.06 62.41"/><path class="cls-2" d="M107.68,64l1,.78a7.19,7.19,0,0,0-4.45-1.32,9.88,9.88,0,0,0-5,1.4,17.27,17.27,0,0,0-4.73,4.27l-1-.77A17.16,17.16,0,0,1,98.23,64a9.88,9.88,0,0,1,5-1.4A7.25,7.25,0,0,1,107.68,64Z" transform="translate(-0.35 -1.05)"/><path class="cls-4" d="M89.66,84.49a8.19,8.19,0,0,0,.9,5.22l-1-.77a8.23,8.23,0,0,1-.9-5.23Z" transform="translate(-0.35 -1.05)"/><path class="cls-4" d="M90.56,89.71a4.17,4.17,0,0,0,1.07,1.17l-1-.77a4.64,4.64,0,0,1-1.07-1.17l.52.39.2.15.2.14Z" transform="translate(-0.35 -1.05)"/><path class="cls-2" d="M100.66,70.49l1,.78a3.34,3.34,0,0,0-2.06-.61c-2,0-4,1.32-5.74,3.94a21,21,0,0,0-3.31,9.89,7.33,7.33,0,0,0,.77,4.64,3.68,3.68,0,0,0,.87,1l-1-.78a3.45,3.45,0,0,1-.86-1,7.36,7.36,0,0,1-.78-4.65,21.16,21.16,0,0,1,3.31-9.89c1.79-2.62,3.71-3.94,5.74-3.94A3.34,3.34,0,0,1,100.66,70.49Z" transform="translate(-0.35 -1.05)"/><path class="cls-4" d="M108.72,64.74l-1-.78a7.3,7.3,0,0,1,1.65,1.79l-6.1-3.11,7.13,3.89-6.09-3.11C109.89,65.81,109.34,65.21,108.72,64.74Z" transform="translate(-0.35 -1.05)"/><path class="cls-2" d="M108.29,63.18l1,.78a7.58,7.58,0,0,1,1.83,2l-1-.78A7.91,7.91,0,0,0,108.29,63.18Z" transform="translate(-0.35 -1.05)"/><path class="cls-2" d="M90.9,96.64l-1-.77a6.68,6.68,0,0,1-.57-.49,7.45,7.45,0,0,1-2.05-5l1,.77a7.47,7.47,0,0,0,2,5A6.57,6.57,0,0,0,90.9,96.64Z" transform="translate(-0.35 -1.05)"/><polygon class="cls-4" points="80.67 108.05 81.71 108.83 74.12 108.83 73.08 108.05 80.67 108.05"/><polygon class="cls-2" points="86.3 91.58 87.34 92.36 82.39 109.79 81.35 109.01 86.3 91.58"/><polygon class="cls-2" points="81.35 109.01 82.39 109.79 72.89 109.79 71.86 109.01 81.35 109.01"/><path class="cls-2" d="M101.25,69.68l1,.78a4,4,0,0,1,1,1.11,8,8,0,0,1,.82,5,23.43,23.43,0,0,1-3.42,10.58c-1.93,3-4.09,4.52-6.42,4.52a4.28,4.28,0,0,1-2.64-.82l-1-.77a4.27,4.27,0,0,0,2.64.81c2.33,0,4.49-1.52,6.42-4.52a23.43,23.43,0,0,0,3.42-10.58,8,8,0,0,0-.82-5A3.74,3.74,0,0,0,101.25,69.68Z" transform="translate(-0.35 -1.05)"/><path class="cls-2" d="M98.7,68.91a3.89,3.89,0,0,1,3.55,1.89,8,8,0,0,1,.82,5A23.43,23.43,0,0,1,99.65,86.4c-1.93,3-4.09,4.52-6.42,4.52a4.16,4.16,0,0,1-3.71-2,8.23,8.23,0,0,1-.9-5.23,22.15,22.15,0,0,1,3.49-10.39C94.1,70.4,96.32,68.91,98.7,68.91Zm.19,17a22.5,22.5,0,0,0,3.25-10.1,7.14,7.14,0,0,0-.69-4.45,3.09,3.09,0,0,0-2.85-1.49c-2,0-3.95,1.32-5.74,3.94a21.16,21.16,0,0,0-3.31,9.89,7.36,7.36,0,0,0,.78,4.65,3.3,3.3,0,0,0,3,1.6c2,0,3.84-1.36,5.57-4" transform="translate(-0.35 -1.05)"/><path class="cls-4" d="M110.36,66.53c1.38,2.11,1.9,5,1.55,8.71l-1-.78c.35-3.67-.17-6.59-1.54-8.71A9,9,0,0,1,110.36,66.53Z" transform="translate(-0.35 -1.05)"/><path class="cls-4" d="M95.22,97.91a7,7,0,0,1-4.32-1.27l-1-.77a7.07,7.07,0,0,0,4.32,1.27Z" transform="translate(-0.35 -1.05)"/><path class="cls-4" d="M111.91,75.24a36.67,36.67,0,0,1-1.63,7.69l-1-.77a36.89,36.89,0,0,0,1.63-7.7Z" transform="translate(-0.35 -1.05)"/><path class="cls-4" d="M101.62,95.83a11.5,11.5,0,0,1-6.4,2.08l-1-.77a11.51,11.51,0,0,0,6.4-2.09Z" transform="translate(-0.35 -1.05)"/><path class="cls-4" d="M110.28,82.93a33.47,33.47,0,0,1-3.17,7h0l-1-.77a33.7,33.7,0,0,0,3.17-7Z" transform="translate(-0.35 -1.05)"/><path class="cls-4" d="M107.11,89.93a18.64,18.64,0,0,1-5.49,5.9l-1-.78a18.49,18.49,0,0,0,5.49-5.89Z" transform="translate(-0.35 -1.05)"/><path class="cls-2" d="M110.12,65.16c1.49,2.28,2,5.41,1.68,9.3a37,37,0,0,1-1.68,7.92,34.12,34.12,0,0,1-3.27,7.23A19.67,19.67,0,0,1,101,95.84a12.44,12.44,0,0,1-6.94,2.26,7.54,7.54,0,0,1-5.48-2,7.33,7.33,0,0,1-2-3.48l-5,17.43H72.2L85.73,62.49h9.48l-1,3.7a17,17,0,0,1,3.68-3,10.79,10.79,0,0,1,5.48-1.53A7.63,7.63,0,0,1,110.12,65.16Zm-.88,17a36.89,36.89,0,0,0,1.63-7.7c.35-3.67-.17-6.59-1.54-8.71a6.76,6.76,0,0,0-6.1-3.11,9.88,9.88,0,0,0-5,1.4,17.16,17.16,0,0,0-4.73,4.28L92.09,70.1,94,63.46H86.41l-13,45.64H81l6-21.24.19,2.56a7.45,7.45,0,0,0,2.05,5,6.75,6.75,0,0,0,4.89,1.76,11.51,11.51,0,0,0,6.4-2.09,18.49,18.49,0,0,0,5.49-5.89,33.7,33.7,0,0,0,3.17-7" transform="translate(-0.35 -1.05)"/><path class="cls-4" d="M109.33,65.75c1.37,2.12,1.89,5,1.54,8.71a36.89,36.89,0,0,1-1.63,7.7,33.7,33.7,0,0,1-3.17,7,18.49,18.49,0,0,1-5.49,5.89,11.51,11.51,0,0,1-6.4,2.09,6.75,6.75,0,0,1-4.89-1.76,7.45,7.45,0,0,1-2.05-5l-.19-2.56L81,109.1H73.43l13-45.64H94l-1.9,6.64,1.41-1.78A17.16,17.16,0,0,1,98.23,64a9.88,9.88,0,0,1,5-1.4A6.76,6.76,0,0,1,109.33,65.75ZM99.65,86.4a23.43,23.43,0,0,0,3.42-10.58,8,8,0,0,0-.82-5,3.89,3.89,0,0,0-3.55-1.89c-2.38,0-4.6,1.49-6.59,4.41a22.15,22.15,0,0,0-3.49,10.39,8.23,8.23,0,0,0,.9,5.23,4.16,4.16,0,0,0,3.71,2c2.33,0,4.49-1.52,6.42-4.52" transform="translate(-0.35 -1.05)"/><path class="cls-2" d="M90.29,97.44l-1-.78a7.81,7.81,0,0,0,4.83,1.44A12.44,12.44,0,0,0,101,95.84a19.67,19.67,0,0,0,5.82-6.23,34.12,34.12,0,0,0,3.27-7.23,37,37,0,0,0,1.68-7.92c.37-3.89-.19-7-1.68-9.3l1,.78c1.49,2.28,2,5.41,1.68,9.3a37,37,0,0,1-1.68,7.92,34.54,34.54,0,0,1-3.27,7.22,19.6,19.6,0,0,1-5.82,6.24,12.52,12.52,0,0,1-6.94,2.26A7.86,7.86,0,0,1,90.29,97.44Z" transform="translate(-0.35 -1.05)"/></g><g class="cls-1"><path class="cls-4" d="M129.51,71.19l-3.91,5.55,2.87-6.33L124.56,76a13.87,13.87,0,0,1,3.91-5.56Z" transform="translate(-0.35 -1.05)"/><polygon class="cls-2" points="138.53 75.55 139.57 76.33 124.98 76.33 123.94 75.55 138.53 75.55"/><polygon class="cls-4" points="124.22 74.92 125.25 75.7 124.98 76.33 123.94 75.55 124.22 74.92"/><polygon class="cls-4" points="122.47 81.19 123.51 81.96 123.39 82.36 122.36 81.59 122.47 81.19"/><path class="cls-4" d="M122.7,82.64l1,.77c-.09.36-.17.69-.23,1l-1-.77C122.54,83.32,122.61,83,122.7,82.64Z" transform="translate(-0.35 -1.05)"/><path class="cls-4" d="M135,69.29a8.56,8.56,0,0,0-5.46,1.9l-1-.78a8.55,8.55,0,0,1,5.46-1.89Z" transform="translate(-0.35 -1.05)"/><path class="cls-4" d="M122.47,83.64l1,.77c-.05.31-.11.62-.17,1l-1-.78C122.36,84.25,122.42,84,122.47,83.64Z" transform="translate(-0.35 -1.05)"/><path class="cls-2" d="M123.51,83.2l1,.78c0,.18-.07.36-.11.53s-.11.59-.16.88l-1-.77c0-.3.09-.59.16-.89S123.46,83.38,123.51,83.2Z" transform="translate(-0.35 -1.05)"/><path class="cls-2" d="M137,70.36l1,.77a5.12,5.12,0,0,0-3.11-.87A7.57,7.57,0,0,0,130,71.93a12.18,12.18,0,0,0-3.31,4.48l-1-.77A12.25,12.25,0,0,1,129,71.15a7.63,7.63,0,0,1,4.84-1.67A5.12,5.12,0,0,1,137,70.36Z" transform="translate(-0.35 -1.05)"/><path class="cls-4" d="M138.58,70.34a5.88,5.88,0,0,0-3.61-1l-1-.77a5.93,5.93,0,0,1,3.62,1Z" transform="translate(-0.35 -1.05)"/><path class="cls-2" d="M137.55,69.56l1,.78a4.92,4.92,0,0,1,.64.57l-1-.78A4.84,4.84,0,0,0,137.55,69.56Z" transform="translate(-0.35 -1.05)"/><path class="cls-2" d="M142.31,64.83l1,.78a12.58,12.58,0,0,0-7.74-2.25,17.07,17.07,0,0,0-7.24,1.6,18.7,18.7,0,0,0-6.1,4.59,23.72,23.72,0,0,0-4.19,6.74,27.71,27.71,0,0,0-2,8.08c-.43,4.42.46,7.81,2.63,10.09a8.81,8.81,0,0,0,1.12,1l-1-.78a8.81,8.81,0,0,1-1.12-1c-2.17-2.27-3.06-5.66-2.63-10.09a27.73,27.73,0,0,1,2-8.07,23.86,23.86,0,0,1,4.19-6.75,18.7,18.7,0,0,1,6.1-4.59,17.07,17.07,0,0,1,7.24-1.6A12.67,12.67,0,0,1,142.31,64.83Z" transform="translate(-0.35 -1.05)"/><path class="cls-4" d="M125.23,90.43l-1-.77-.22-.17a5.34,5.34,0,0,1-1.67-4.9l1,.78A5.34,5.34,0,0,0,125,90.26Z" transform="translate(-0.35 -1.05)"/><path class="cls-2" d="M125.85,89.65l-1-.78-.2-.16a4.41,4.41,0,0,1-1.37-4.09l1,.77a4.45,4.45,0,0,0,1.38,4.1Z" transform="translate(-0.35 -1.05)"/><path class="cls-4" d="M143.34,65.61a10,10,0,0,1,1.37,1.23l-1-.77a9.47,9.47,0,0,0-1.37-1.24Z" transform="translate(-0.35 -1.05)"/><path class="cls-2" d="M142.89,64l1,.78a10,10,0,0,1,1.49,1.35l-1-.78A10.49,10.49,0,0,0,142.89,64Z" transform="translate(-0.35 -1.05)"/><path class="cls-2" d="M138.18,70.13l1,.78a5.47,5.47,0,0,1,1.21,4.38c0,.26-.07.54-.12.83l-1-.78c0-.29.09-.56.12-.82A5.48,5.48,0,0,0,138.18,70.13Z" transform="translate(-0.35 -1.05)"/><path class="cls-2" d="M139.27,75.34l1,.78a6.54,6.54,0,0,1-.27.9l-1-.77A6.67,6.67,0,0,0,139.27,75.34Z" transform="translate(-0.35 -1.05)"/><path class="cls-2" d="M138.18,70.13a5.48,5.48,0,0,1,1.21,4.39c0,.26-.07.53-.12.82a6.67,6.67,0,0,1-.27.91l-.12.35H124.29l.27-.63a13.87,13.87,0,0,1,3.91-5.56,8.55,8.55,0,0,1,5.46-1.89A5.5,5.5,0,0,1,138.18,70.13Zm.16,5.11a7.2,7.2,0,0,0,.12-.72,4.54,4.54,0,0,0-1-3.69,4.65,4.65,0,0,0-3.63-1.35A7.63,7.63,0,0,0,129,71.15a12.25,12.25,0,0,0-3.31,4.49h12.56a3.24,3.24,0,0,0,.09-.4" transform="translate(-0.35 -1.05)"/><polygon class="cls-2" points="138.66 75.2 139.7 75.97 139.57 76.33 138.53 75.55 138.66 75.2"/><path class="cls-4" d="M129,97.91c-3.94,0-7-.83-9.22-2.46l-1-.78c2.18,1.64,5.28,2.47,9.22,2.47Z" transform="translate(-0.35 -1.05)"/><path class="cls-4" d="M144.71,66.84c2.11,2.31,3,5.42,2.64,9.24l-1-.77c.37-3.83-.53-6.94-2.64-9.24C144,66.3,144.42,66.58,144.71,66.84Z" transform="translate(-0.35 -1.05)"/><path class="cls-4" d="M147.35,76.08a28.31,28.31,0,0,1-.49,3.08l-1-.78a28.55,28.55,0,0,0,.49-3.07Z" transform="translate(-0.35 -1.05)"/><path class="cls-4" d="M135.2,97.29a31,31,0,0,1-6.18.62l-1-.77a31,31,0,0,0,6.18-.63Z" transform="translate(-0.35 -1.05)"/><polygon class="cls-4" points="144.58 81.19 145.62 81.96 123.51 81.96 122.47 81.19 144.58 81.19"/><path class="cls-4" d="M146.86,79.16,146,83l-.14-4.63-.9,3.86c.38-1.48.69-2.78.9-3.86Z" transform="translate(-0.35 -1.05)"/><path class="cls-2" d="M125.23,90.43l-1-.77a9.44,9.44,0,0,0,5.67,1.44,23.47,23.47,0,0,0,6.51-.95,24.77,24.77,0,0,0,5.29-2.21l1,.77a24.77,24.77,0,0,1-5.29,2.21,23.23,23.23,0,0,1-6.51,1A9.42,9.42,0,0,1,125.23,90.43Z" transform="translate(-0.35 -1.05)"/><path class="cls-2" d="M144.37,65.37l1,.78c2.3,2.49,3.27,5.83,2.87,9.93-.09.92-.26,2-.5,3.19s-.59,2.64-1,4.31l-1-.78c.43-1.67.77-3.11,1-4.31a30.14,30.14,0,0,0,.49-3.18C147.64,71.2,146.67,67.87,144.37,65.37Z" transform="translate(-0.35 -1.05)"/><polygon class="cls-2" points="145.27 82.15 146.31 82.93 124.2 82.93 123.16 82.15 145.27 82.15"/><polygon class="cls-2" points="145.38 81.75 146.42 82.53 146.31 82.93 145.27 82.15 145.38 81.75"/><path class="cls-4" d="M143.67,66.07c2.11,2.3,3,5.41,2.64,9.24a28.55,28.55,0,0,1-.49,3.07c-.21,1.08-.52,2.38-.9,3.86h-22.1l-.12.4c-.09.35-.16.68-.23,1s-.11.61-.16,1a5.34,5.34,0,0,0,1.67,4.9c1.27,1.07,3.25,1.61,5.89,1.61a23.47,23.47,0,0,0,6.51-.95,24.77,24.77,0,0,0,5.29-2.21l-1.9,6.81a30.16,30.16,0,0,1-5.61,1.76,31,31,0,0,1-6.18.63c-4.67,0-8.15-1.17-10.34-3.46S114.58,88,115,83.59a27.73,27.73,0,0,1,2-8.07,23.86,23.86,0,0,1,4.19-6.75,18.7,18.7,0,0,1,6.1-4.59,17.07,17.07,0,0,1,7.24-1.6C138.48,62.58,141.55,63.75,143.67,66.07Zm-4.4,9.27c0-.29.09-.56.12-.82a5,5,0,0,0-5.46-6,8.55,8.55,0,0,0-5.46,1.89A13.87,13.87,0,0,0,124.56,76l-.27.63h14.59l.12-.35a6.67,6.67,0,0,0,.27-.91" transform="translate(-0.35 -1.05)"/><polygon class="cls-4" points="141.32 86.89 142.36 87.67 140.47 94.47 139.43 93.7 141.32 86.89"/><path class="cls-4" d="M140.81,95.52a29.46,29.46,0,0,1-5.61,1.77l-1-.78a30.16,30.16,0,0,0,5.61-1.76Z" transform="translate(-0.35 -1.05)"/><path class="cls-2" d="M119.2,96.25l-1-.78c2.33,1.75,5.59,2.63,9.73,2.63a31.91,31.91,0,0,0,6.36-.64,31.33,31.33,0,0,0,6.05-1.93l1,.77a30.21,30.21,0,0,1-6.05,1.93,31.19,31.19,0,0,1-6.36.65C124.79,98.88,121.53,98,119.2,96.25Z" transform="translate(-0.35 -1.05)"/><polygon class="cls-2" points="140.19 94.38 141.22 95.15 141 95.26 139.96 94.48 140.19 94.38"/><polygon class="cls-2" points="142.83 84.92 143.87 85.69 141.22 95.15 140.19 94.38 142.83 84.92"/><path class="cls-2" d="M144.37,65.37c2.3,2.5,3.27,5.83,2.87,9.94a30.14,30.14,0,0,1-.49,3.18c-.25,1.2-.59,2.64-1,4.31l-.11.4H123.51c-.05.18-.08.37-.11.53s-.12.59-.16.89a4.41,4.41,0,0,0,1.37,4.09c1.12,1,2.93,1.43,5.35,1.43a22.92,22.92,0,0,0,6.26-.92,23.77,23.77,0,0,0,6-2.66l1-.59-2.65,9.45-.23.11a31.33,31.33,0,0,1-6.05,1.93,31.91,31.91,0,0,1-6.36.64c-4.92,0-8.6-1.25-11-3.7s-3.33-6.11-2.87-10.81a28.91,28.91,0,0,1,2.11-8.38,25.13,25.13,0,0,1,4.38-7.06A19.73,19.73,0,0,1,127,63.3a18,18,0,0,1,7.64-1.69C138.82,61.61,142.09,62.88,144.37,65.37Zm1.45,13a28.55,28.55,0,0,0,.49-3.07c.37-3.83-.53-6.94-2.64-9.24s-5.19-3.49-9.11-3.49a17.07,17.07,0,0,0-7.24,1.6,18.7,18.7,0,0,0-6.1,4.59A23.86,23.86,0,0,0,117,75.52a27.73,27.73,0,0,0-2,8.07c-.43,4.43.46,7.82,2.63,10.09s5.67,3.46,10.34,3.46a31,31,0,0,0,6.18-.63,30.16,30.16,0,0,0,5.61-1.76l1.9-6.81a24.77,24.77,0,0,1-5.29,2.21,23.47,23.47,0,0,1-6.51.95c-2.64,0-4.62-.54-5.89-1.61a5.34,5.34,0,0,1-1.67-4.9c0-.34.11-.64.16-1s.14-.65.23-1l.12-.4h22.1c.38-1.48.69-2.78.9-3.86" transform="translate(-0.35 -1.05)"/></g><g class="cls-1"><polygon class="cls-2" points="168.68 62.41 169.72 63.19 162.13 63.19 161.09 62.41 168.68 62.41"/><polygon class="cls-4" points="168.68 62.41 169.72 63.19 167.64 70.35 166.6 69.57 168.68 62.41"/><polygon class="cls-2" points="169.91 61.44 170.94 62.22 169.85 65.98 168.81 65.2 169.91 61.44"/><polygon class="cls-2" points="168.14 67.43 169.18 68.21 167.64 70.35 166.6 69.57 168.14 67.43"/><polygon class="cls-2" points="161.09 62.41 162.13 63.19 152.78 95.99 151.74 95.21 161.09 62.41"/><polygon class="cls-4" points="163.69 80.04 164.72 80.82 160.43 95.99 159.39 95.21 163.69 80.04"/><polygon class="cls-4" points="159.39 95.21 160.43 95.99 152.78 95.99 151.74 95.21 159.39 95.21"/><path class="cls-4" d="M182.89,70.93l1,.78a8.37,8.37,0,0,0-2.07-1.14,11.6,11.6,0,0,0-4-.64,11.45,11.45,0,0,0-8,2.79c-2,1.83-3.58,4.91-4.78,9.14l-1-.77c1.2-4.24,2.81-7.31,4.79-9.15a11.41,11.41,0,0,1,8-2.79,11.3,11.3,0,0,1,4,.65A8,8,0,0,1,182.89,70.93Z" transform="translate(-0.35 -1.05)"/><polygon class="cls-2" points="164.58 80.23 165.62 81.01 161.11 96.95 160.07 96.17 164.58 80.23"/><polygon class="cls-2" points="160.07 96.17 161.11 96.95 151.55 96.95 150.51 96.17 160.07 96.17"/><path class="cls-2" d="M182.89,70.93l1,.78.44.35-1-.78Z" transform="translate(-0.35 -1.05)"/><polygon class="cls-4" points="185.01 63.07 186.05 63.85 184.02 71.01 182.99 70.23 185.01 63.07"/><path class="cls-2" d="M185.36,64.12l1,.78a9.53,9.53,0,0,0-2.4-1.05,12.17,12.17,0,0,0-3.26-.43A13.4,13.4,0,0,0,174.45,65a14,14,0,0,0-4.93,4.31l-1-.78a14,14,0,0,1,4.93-4.31,13.4,13.4,0,0,1,6.28-1.53,11.73,11.73,0,0,1,3.26.44A9.74,9.74,0,0,1,185.36,64.12Z" transform="translate(-0.35 -1.05)"/><path class="cls-2" d="M182.31,71.73l1,.78a8,8,0,0,0-1.88-1,10.62,10.62,0,0,0-3.67-.59,10.49,10.49,0,0,0-7.36,2.52c-1.82,1.69-3.33,4.59-4.47,8.65l-1-.78c1.14-4,2.65-7,4.48-8.65a10.45,10.45,0,0,1,7.35-2.51,10.62,10.62,0,0,1,3.67.59A7.62,7.62,0,0,1,182.31,71.73Z" transform="translate(-0.35 -1.05)"/><path class="cls-2" d="M186.18,63.47l.26.17-2.67,9.46-.56-.57a7.5,7.5,0,0,0-2.78-1.82,10.62,10.62,0,0,0-3.67-.59,10.45,10.45,0,0,0-7.35,2.51c-1.83,1.69-3.34,4.6-4.48,8.65l-4.52,15.94h-9.55l9.9-34.73h9.49l-1.09,3.76a14.84,14.84,0,0,1,3.9-2.93,14.35,14.35,0,0,1,6.72-1.64,12.24,12.24,0,0,1,3.5.47A9.88,9.88,0,0,1,186.18,63.47Zm-2.85,7.81,2-7.16a9.74,9.74,0,0,0-2.41-1,11.73,11.73,0,0,0-3.26-.44,13.4,13.4,0,0,0-6.28,1.53,14,14,0,0,0-4.93,4.31l-1.54,2.14L169,63.46h-7.59l-9.35,32.8h7.64L164,81.09c1.2-4.24,2.81-7.31,4.79-9.15a11.41,11.41,0,0,1,8-2.79,11.3,11.3,0,0,1,4,.65,8.27,8.27,0,0,1,2.51,1.48" transform="translate(-0.35 -1.05)"/><path class="cls-4" d="M179.69,62.64a11.73,11.73,0,0,1,3.26.44,9.74,9.74,0,0,1,2.41,1l-2,7.16a8.27,8.27,0,0,0-2.51-1.48,11.3,11.3,0,0,0-4-.65,11.41,11.41,0,0,0-8,2.79c-2,1.84-3.59,4.91-4.79,9.15l-4.3,15.17h-7.64l9.35-32.8H169l-2.09,7.16,1.54-2.14a14,14,0,0,1,4.93-4.31A13.4,13.4,0,0,1,179.69,62.64Z" transform="translate(-0.35 -1.05)"/><polygon class="cls-2" points="186.1 62.59 187.13 63.37 184.46 72.83 183.42 72.05 186.1 62.59"/></g><g class="cls-1"><path class="cls-4" d="M200.34,73.16l-1-.77v0h0l1,.78h0Z" transform="translate(-0.35 -1.05)"/><path class="cls-4" d="M200.34,73.16a2.8,2.8,0,0,0,1,2.54l-1-.78a2.81,2.81,0,0,1-1-2.53Z" transform="translate(-0.35 -1.05)"/><path class="cls-4" d="M201.35,75.7l.12.1-1-.78-.12-.1h0l1,.78Z" transform="translate(-0.35 -1.05)"/><path class="cls-2" d="M202.08,75l-1-.78-.11-.08a2,2,0,0,1-.71-1.8,3.08,3.08,0,0,1,1.62-2.42l1,.77a3.11,3.11,0,0,0-1.62,2.43,2,2,0,0,0,.71,1.8Z" transform="translate(-0.35 -1.05)"/><polygon class="cls-2" points="185.11 94.91 186.15 95.69 185.78 95.55 184.75 94.78 185.11 94.91"/><polygon class="cls-2" points="187.8 87.52 188.83 88.29 186.92 94.92 185.88 94.14 187.8 87.52"/><path class="cls-4" d="M199,82.43a11,11,0,0,1-3.29-1.6l-1-.78a11,11,0,0,0,3.29,1.6Z" transform="translate(-0.35 -1.05)"/><path class="cls-2" d="M195.08,81.63l-1-.78a11.52,11.52,0,0,0,3.55,1.73l1,.78A11.52,11.52,0,0,1,195.08,81.63Z" transform="translate(-0.35 -1.05)"/><polygon class="cls-4" points="200.07 81.33 201.11 82.1 198.62 81.38 197.58 80.61 200.07 81.33"/><polygon class="cls-2" points="199.73 82.26 200.77 83.03 198.28 82.31 197.24 81.53 199.73 82.26"/><path class="cls-2" d="M201.47,75.8l-1-.78a16.85,16.85,0,0,0,4.66,1.92l1,.78A17.51,17.51,0,0,1,201.47,75.8Z" transform="translate(-0.35 -1.05)"/><polygon class="cls-2" points="206.84 76.53 207.88 77.3 205.78 76.67 204.74 75.89 206.84 76.53"/><polygon class="cls-4" points="217.02 63.3 218.06 64.08 216.19 70.61 215.15 69.83 217.02 63.3"/><path class="cls-2" d="M195.68,80.83l-1-.78a6.07,6.07,0,0,1-1.4-1.42,7.53,7.53,0,0,1-1.06-5.17,10.46,10.46,0,0,1,4.52-7.79,17.47,17.47,0,0,1,10.56-3,31.44,31.44,0,0,1,5.3.46,32.71,32.71,0,0,1,4.81,1.25l1,.78a30.72,30.72,0,0,0-10.11-1.71,17.47,17.47,0,0,0-10.56,3,10.48,10.48,0,0,0-4.52,7.8,7.49,7.49,0,0,0,1.06,5.16A6.1,6.1,0,0,0,195.68,80.83Z" transform="translate(-0.35 -1.05)"/><path class="cls-2" d="M204.35,85.05l1,.77a16.27,16.27,0,0,0-4.28-1.74l-1-.78A16.5,16.5,0,0,1,204.35,85.05Z" transform="translate(-0.35 -1.05)"/><path class="cls-4" d="M206,85c-.71-.53-2.21-1.15.21.18l-4.75-2.06,3.72,1.29-4.75-2.07A18,18,0,0,1,205,84.25Z" transform="translate(-0.35 -1.05)"/><path class="cls-4" d="M202.48,69.89a4.16,4.16,0,0,0-2.14,3.24l-1-.78a4.17,4.17,0,0,1,2.14-3.24A8.8,8.8,0,0,1,206.13,68a17,17,0,0,1,5.31.83,15,15,0,0,1,4.06,2.07l1,.78a14.69,14.69,0,0,0-4.06-2.07,16.68,16.68,0,0,0-5.31-.84A8.78,8.78,0,0,0,202.48,69.89Z" transform="translate(-0.35 -1.05)"/><path class="cls-2" d="M215.14,71.85l1,.78a14.23,14.23,0,0,0-4.07-2.12,16.1,16.1,0,0,0-5-.79,8,8,0,0,0-4.19,1l-1-.77a7.88,7.88,0,0,1,4.19-1,16.05,16.05,0,0,1,5,.79A14.49,14.49,0,0,1,215.14,71.85Z" transform="translate(-0.35 -1.05)"/><path class="cls-2" d="M210.73,79.28l1,.78a11.74,11.74,0,0,0-3.55-1.71l-1-.77A11.44,11.44,0,0,1,210.73,79.28Z" transform="translate(-0.35 -1.05)"/><path class="cls-4" d="M197.45,97.14h0l.92.68Z" transform="translate(-0.35 -1.05)"/><polygon class="cls-2" points="218.16 62.65 219.2 63.43 216.68 72.24 215.64 71.46 218.16 62.65"/><path class="cls-2" d="M205,84.25l1,.78.21.18a3,3,0,0,1,.81,2.54,4.51,4.51,0,0,1-2.36,3.56,10.39,10.39,0,0,1-5.35,1.2,17.37,17.37,0,0,1-5.53-.91,18.49,18.49,0,0,1-4.59-2.26l-1-.78a18.49,18.49,0,0,0,4.59,2.26,17.43,17.43,0,0,0,5.53.92,10.49,10.49,0,0,0,5.35-1.2A4.51,4.51,0,0,0,206,87a3,3,0,0,0-.8-2.54Z" transform="translate(-0.35 -1.05)"/><path class="cls-4" d="M192.57,97.39,187.27,96l4.26.64-5.3-1.42a31.59,31.59,0,0,0,5.3,1.42l.15.12.89.66-1-.78a34.56,34.56,0,0,0,5.92.53h0l1,.77-1-.77c4.63,0,8.38-1,11.16-3l1,.78-.48-.37-.55-.41a10.91,10.91,0,0,0,4.61-8.22l1,.77-1-.77a7.55,7.55,0,0,0-1.11-5.24,6.19,6.19,0,0,0-1.38-1.37l1,.78a6.19,6.19,0,0,1,1.38,1.37,7.52,7.52,0,0,1,1.11,5.23,10.91,10.91,0,0,1-4.62,8.23c-2.77,2-6.52,3-11.15,3a34.55,34.55,0,0,1-5.92-.52Z" transform="translate(-0.35 -1.05)"/><path class="cls-4" d="M207.26,62.64a31.44,31.44,0,0,1,5.3.46,32.71,32.71,0,0,1,4.81,1.25l-1.87,6.53a15,15,0,0,0-4.06-2.07,17,17,0,0,0-5.31-.83,8.8,8.8,0,0,0-4.69,1.13,4.17,4.17,0,0,0-2.14,3.24,2.83,2.83,0,0,0,1,2.57,15.11,15.11,0,0,0,4.78,2l2.1.64a9.17,9.17,0,0,1,4.92,3.07,7.55,7.55,0,0,1,1.11,5.24,10.91,10.91,0,0,1-4.61,8.22c-2.78,2-6.53,3-11.16,3a34.56,34.56,0,0,1-5.92-.53,31.59,31.59,0,0,1-5.3-1.42l1.91-6.63a18.49,18.49,0,0,0,4.59,2.26,17.43,17.43,0,0,0,5.53.92,10.49,10.49,0,0,0,5.35-1.2A4.51,4.51,0,0,0,206,87a3,3,0,0,0-.8-2.54c-.6-.57-2.15-1.24-4.75-2.06l-2.49-.72a8.65,8.65,0,0,1-4.69-3,7.53,7.53,0,0,1-1.06-5.17,10.46,10.46,0,0,1,4.52-7.79A17.47,17.47,0,0,1,207.26,62.64Z" transform="translate(-0.35 -1.05)"/><path class="cls-2" d="M211.34,78.48l1,.78a7,7,0,0,1,1.54,1.54,8.42,8.42,0,0,1,1.27,5.86,12.07,12.07,0,0,1-5.06,9c-2.95,2.13-6.89,3.22-11.73,3.22a35.33,35.33,0,0,1-6.08-.54,33.59,33.59,0,0,1-5.82-1.6l-1-.78a32,32,0,0,0,5.83,1.6,34.25,34.25,0,0,0,6.07.54c4.84,0,8.78-1.09,11.73-3.22a12.05,12.05,0,0,0,5.06-9A8.41,8.41,0,0,0,212.88,80,7.06,7.06,0,0,0,211.34,78.48Z" transform="translate(-0.35 -1.05)"/><path class="cls-2" d="M201.85,69.93a3.08,3.08,0,0,0-1.62,2.42,2,2,0,0,0,.71,1.8c.42.36,1.54,1,4.5,1.87l2.09.63A10,10,0,0,1,212.88,80a8.41,8.41,0,0,1,1.27,5.86,12.05,12.05,0,0,1-5.06,9c-3,2.13-6.89,3.22-11.73,3.22a34.25,34.25,0,0,1-6.07-.54,32,32,0,0,1-5.83-1.6l-.37-.14L187.64,87l.54.39a17.77,17.77,0,0,0,4.92,2.52,16.52,16.52,0,0,0,5.26.87,9.46,9.46,0,0,0,4.85-1.06A3.43,3.43,0,0,0,205,87a2,2,0,0,0-.55-1.8c-.34-.33-1.38-.92-4.42-1.87l-2.48-.72a9.41,9.41,0,0,1-5.13-3.33,8.42,8.42,0,0,1-1.22-5.79,11.68,11.68,0,0,1,5-8.57,18.5,18.5,0,0,1,11.14-3.21,31.1,31.1,0,0,1,5.45.47,33.27,33.27,0,0,1,5.33,1.42l.38.13L216,72.51l-.54-.43a14.55,14.55,0,0,0-4.37-2.35,16.05,16.05,0,0,0-5-.79A7.88,7.88,0,0,0,201.85,69.93Zm-2.55,2.42a4.17,4.17,0,0,1,2.14-3.24A8.8,8.8,0,0,1,206.13,68a17,17,0,0,1,5.31.83,15,15,0,0,1,4.06,2.07l1.87-6.53a32.71,32.71,0,0,0-4.81-1.25,31.44,31.44,0,0,0-5.3-.46,17.47,17.47,0,0,0-10.56,3,10.46,10.46,0,0,0-4.52,7.79,7.53,7.53,0,0,0,1.06,5.17,8.65,8.65,0,0,0,4.69,3l2.49.72c2.6.82,4.15,1.49,4.75,2.06A3,3,0,0,1,206,87a4.51,4.51,0,0,1-2.36,3.57,10.49,10.49,0,0,1-5.35,1.2,17.43,17.43,0,0,1-5.53-.92,18.49,18.49,0,0,1-4.59-2.26l-1.91,6.63a31.59,31.59,0,0,0,5.3,1.42,34.56,34.56,0,0,0,5.92.53c4.63,0,8.38-1,11.16-3a10.91,10.91,0,0,0,4.61-8.22,7.55,7.55,0,0,0-1.11-5.24,9.17,9.17,0,0,0-4.92-3.07l-2.1-.64a15.11,15.11,0,0,1-4.78-2,2.83,2.83,0,0,1-1-2.57" transform="translate(-0.35 -1.05)"/></g><g class="cls-1"><polygon class="cls-2" points="248.29 51.16 249.33 51.94 242.53 51.94 241.49 51.16 248.29 51.16"/><polygon class="cls-2" points="241.49 51.16 242.53 51.94 236.98 71.3 235.94 70.52 241.49 51.16"/><polygon class="cls-2" points="235.94 70.52 236.98 71.3 235.09 81.48 234.06 80.71 235.94 70.52"/><polygon class="cls-4" points="248.29 51.16 249.33 51.94 243.91 71.07 242.87 70.29 248.29 51.16"/><polygon class="cls-2" points="249.51 50.2 250.55 50.97 244.79 71.3 243.76 70.52 249.51 50.2"/><polygon class="cls-4" points="241.49 51.16 248.29 51.16 242.87 70.29 239 80.71 234.06 80.71 235.94 70.52 241.49 51.16"/><polygon class="cls-4" points="239 80.71 240.03 81.48 235.09 81.48 234.06 80.71 239 80.71"/><polygon class="cls-4" points="242.87 70.29 243.91 71.07 240.03 81.48 239 80.71 242.87 70.29"/><polygon class="cls-2" points="243.76 70.52 244.79 71.3 240.65 82.45 239.61 81.67 243.76 70.52"/><polygon class="cls-2" points="239.61 81.67 240.65 82.45 233.98 82.45 232.94 81.67 239.61 81.67"/><path class="cls-2" d="M241.16,51.24h8.7L244.1,71.57,240,82.72h-6.68l2.11-11.29Zm2.06,20.1,5.41-19.13h-6.79l-5.55,19.36L234.4,81.76h4.94l3.88-10.42" transform="translate(-0.35 -1.05)"/></g><g class="cls-1"><polygon class="cls-2" points="231.11 87.65 232.15 88.42 230 95.99 228.96 95.21 231.11 87.65"/><polygon class="cls-2" points="237.91 87.65 238.95 88.42 232.15 88.42 231.11 87.65 237.91 87.65"/><polygon class="cls-4" points="235.76 95.21 236.8 95.99 230 95.99 228.96 95.21 235.76 95.21"/><polygon class="cls-4" points="237.91 87.65 238.95 88.42 236.8 95.99 235.76 95.21 237.91 87.65"/><path class="cls-2" d="M228.09,97.22l2.69-9.5h8.7l-2.7,9.5Zm10.17-8.53h-6.8l-2.16,7.57h6.81l2.15-7.57" transform="translate(-0.35 -1.05)"/><polygon class="cls-4" points="228.96 95.21 231.11 87.65 237.91 87.65 235.76 95.21 228.96 95.21"/><polygon class="cls-2" points="236.44 96.17 237.47 96.95 228.78 96.95 227.74 96.17 236.44 96.17"/><polygon class="cls-2" points="239.14 86.67 240.18 87.45 237.47 96.95 236.44 96.17 239.14 86.67"/></g></svg>