<svg id="Layer_1" data-name="Layer 1" xmlns="http://www.w3.org/2000/svg" xmlns:xlink="http://www.w3.org/1999/xlink" viewBox="0 0 421.74 83.18"><defs><style>.cls-1,.cls-2{fill:none;}.cls-2{stroke:#3db659;stroke-linecap:round;stroke-linejoin:round;stroke-width:18px;}.cls-3{isolation:isolate;}.cls-4{fill:#9b696a;}.cls-5{fill:#8c5e5f;}.cls-6{fill:#946365;}.cls-7{fill:#9e6b6d;}.cls-8{fill:#d28e8f;}.cls-9{fill:#966567;}.cls-10{fill:#966566;}.cls-11{clip-path:url(#clip-path);}.cls-12{fill:#906062;}.cls-13{fill:#996769;}.cls-14{clip-path:url(#clip-path-2);}.cls-15{fill:#9b686a;}.cls-16{fill:#9f6b6d;}.cls-17{clip-path:url(#clip-path-3);}.cls-18{clip-path:url(#clip-path-4);}.cls-19{clip-path:url(#clip-path-5);}.cls-20{clip-path:url(#clip-path-6);}.cls-21{clip-path:url(#clip-path-7);}.cls-22{clip-path:url(#clip-path-8);}.cls-23{fill:#a26e70;}.cls-24{fill:#a67072;}.cls-25{clip-path:url(#clip-path-9);}.cls-26{clip-path:url(#clip-path-10);}.cls-27{clip-path:url(#clip-path-11);}.cls-28{clip-path:url(#clip-path-12);}.cls-29{clip-path:url(#clip-path-13);}.cls-30{clip-path:url(#clip-path-14);}.cls-31{clip-path:url(#clip-path-15);}.cls-32{clip-path:url(#clip-path-16);}.cls-33{clip-path:url(#clip-path-17);}.cls-34{clip-path:url(#clip-path-18);}.cls-35{clip-path:url(#clip-path-19);}.cls-36{clip-path:url(#clip-path-20);}.cls-37{clip-path:url(#clip-path-21);}.cls-38{clip-path:url(#clip-path-22);}.cls-39{clip-path:url(#clip-path-23);}.cls-40{clip-path:url(#clip-path-24);}.cls-41{clip-path:url(#clip-path-25);}.cls-42{clip-path:url(#clip-path-26);}.cls-43{fill:#936365;}.cls-44{clip-path:url(#clip-path-27);}.cls-45{clip-path:url(#clip-path-28);}.cls-46{clip-path:url(#clip-path-29);}.cls-47{clip-path:url(#clip-path-30);}.cls-48{fill:#976667;}.cls-49{clip-path:url(#clip-path-31);}.cls-50{clip-path:url(#clip-path-32);}.cls-51{clip-path:url(#clip-path-33);}.cls-52{clip-path:url(#clip-path-34);}.cls-53{clip-path:url(#clip-path-35);}.cls-54{clip-path:url(#clip-path-36);}.cls-55{clip-path:url(#clip-path-37);}.cls-56{clip-path:url(#clip-path-38);}.cls-57{clip-path:url(#clip-path-39);}.cls-58{clip-path:url(#clip-path-40);}.cls-59{clip-path:url(#clip-path-41);}.cls-60{clip-path:url(#clip-path-42);}.cls-61{clip-path:url(#clip-path-43);}.cls-62{clip-path:url(#clip-path-44);}.cls-63{clip-path:url(#clip-path-45);}.cls-64{clip-path:url(#clip-path-46);}.cls-65{clip-path:url(#clip-path-47);}.cls-66{clip-path:url(#clip-path-48);}.cls-67{clip-path:url(#clip-path-49);}.cls-68{clip-path:url(#clip-path-50);}.cls-69{clip-path:url(#clip-path-51);}.cls-70{clip-path:url(#clip-path-52);}.cls-71{clip-path:url(#clip-path-53);}.cls-72{clip-path:url(#clip-path-54);}.cls-73{clip-path:url(#clip-path-55);}.cls-74{clip-path:url(#clip-path-56);}.cls-75{clip-path:url(#clip-path-57);}.cls-76{clip-path:url(#clip-path-58);}.cls-77{clip-path:url(#clip-path-59);}.cls-78{clip-path:url(#clip-path-60);}.cls-79{clip-path:url(#clip-path-61);}.cls-80{clip-path:url(#clip-path-62);}.cls-81{clip-path:url(#clip-path-63);}.cls-82{clip-path:url(#clip-path-64);}.cls-83{clip-path:url(#clip-path-65);}.cls-84{clip-path:url(#clip-path-66);}.cls-85{clip-path:url(#clip-path-67);}.cls-86{clip-path:url(#clip-path-68);}.cls-87{clip-path:url(#clip-path-69);}.cls-88{clip-path:url(#clip-path-70);}.cls-89{clip-path:url(#clip-path-71);}.cls-90{clip-path:url(#clip-path-72);}.cls-91{clip-path:url(#clip-path-73);}.cls-92{clip-path:url(#clip-path-74);}.cls-93{clip-path:url(#clip-path-75);}.cls-94{fill:#976567;}</style><clipPath id="clip-path" transform="translate(-9.79 -6.09)"><path class="cls-1" d="M107.73,40.1a13.72,13.72,0,0,0-9,3.12L97,41.47a13.69,13.69,0,0,1,9-3.11Z"/></clipPath><clipPath id="clip-path-2" transform="translate(-9.79 -6.09)"><path class="cls-1" d="M89.07,61.86l1.75,1.75c-.1.59-.18,1.14-.24,1.66s-.09,1-.12,1.58L88.71,65.1c0-.55.07-1.06.13-1.57S89,62.46,89.07,61.86Z"/></clipPath><clipPath id="clip-path-3" transform="translate(-9.79 -6.09)"><path class="cls-1" d="M115.17,42.73a10.36,10.36,0,0,0-7.44-2.63L106,38.36A10.33,10.33,0,0,1,113.43,41Z"/></clipPath><clipPath id="clip-path-4" transform="translate(-9.79 -6.09)"><path class="cls-1" d="M112.84,41.81l1.75,1.74-.11-.1a9.36,9.36,0,0,0-6.75-2.34A12.66,12.66,0,0,0,99.37,44a18.54,18.54,0,0,0-5.26,8.1l-1.75-1.75a18.51,18.51,0,0,1,5.27-8.09A12.64,12.64,0,0,1,106,39.37a9.36,9.36,0,0,1,6.75,2.34Z"/></clipPath><clipPath id="clip-path-5" transform="translate(-9.79 -6.09)"><path class="cls-1" d="M113.55,41.11l1.75,1.74a9.55,9.55,0,0,1,2.61,7,13,13,0,0,1-.08,1.35l-1.75-1.74a13.1,13.1,0,0,0,.09-1.35A9.52,9.52,0,0,0,113.55,41.11Z"/></clipPath><clipPath id="clip-path-6" transform="translate(-9.79 -6.09)"><path class="cls-1" d="M115.3,42.85l-.13-.12L113.43,41l.12.12Z"/></clipPath><clipPath id="clip-path-7" transform="translate(-9.79 -6.09)"><path class="cls-1" d="M90,62.45l1.75,1.74c-.07.42-.12.81-.16,1.18s-.1,1-.13,1.5l-1.74-1.74c0-.5.07-1,.13-1.5S89.93,62.86,90,62.45Z"/></clipPath><clipPath id="clip-path-8" transform="translate(-9.79 -6.09)"><path class="cls-1" d="M90.46,66.85a11.46,11.46,0,0,0,.7,4.18l-1.74-1.75a11.63,11.63,0,0,1-.71-4.18Z"/></clipPath><clipPath id="clip-path-9" transform="translate(-9.79 -6.09)"><path class="cls-1" d="M91.27,71.3l-1.74-1.75c0-.09-.08-.18-.11-.27l.2.2.22.22.22.22.23.23.23.23.22.23.22.21.2.21Z"/></clipPath><clipPath id="clip-path-10" transform="translate(-9.79 -6.09)"><path class="cls-1" d="M91.27,71.3l.15.32-1.75-1.74-.14-.33.91.91Z"/></clipPath><clipPath id="clip-path-11" transform="translate(-9.79 -6.09)"><path class="cls-1" d="M91.58,71.94,89.83,70.2c0-.11-.11-.22-.16-.32l.21.2.21.22.23.22.23.23.22.23.23.22.21.22.21.2A3.18,3.18,0,0,0,91.58,71.94Z"/></clipPath><clipPath id="clip-path-12" transform="translate(-9.79 -6.09)"><path class="cls-1" d="M123.09,34l1.74,1.75c-.11-.12-.22-.22-.34-.33-4.14-3.95-9.74-5.95-16.65-5.95a29,29,0,0,0-12.47,2.72,28.66,28.66,0,0,0-10,7.8,35.4,35.4,0,0,0-6.21,11.46,43.07,43.07,0,0,0-2.23,13.7c0,7.21,2,12.83,5.83,16.71L81,80.13c-3.88-3.88-5.84-9.49-5.84-16.7a43.31,43.31,0,0,1,2.23-13.7,35.5,35.5,0,0,1,6.22-11.46A28.54,28.54,0,0,1,106.1,27.75c6.91,0,12.51,2,16.65,5.94Z"/></clipPath><clipPath id="clip-path-13" transform="translate(-9.79 -6.09)"><path class="cls-1" d="M83.3,82.39l-.53-.51L81,80.14l.53.5Z"/></clipPath><clipPath id="clip-path-14" transform="translate(-9.79 -6.09)"><path class="cls-1" d="M93.78,73.28,92,71.54a8.62,8.62,0,0,1-2.33-6.41l1.74,1.74A8.61,8.61,0,0,0,93.78,73.28Z"/></clipPath><clipPath id="clip-path-15" transform="translate(-9.79 -6.09)"><path class="cls-1" d="M91.58,71.94A8.34,8.34,0,0,0,93.09,74l-1.74-1.75a8.51,8.51,0,0,1-1.52-2.06l.19.18.19.2.21.2.2.21.21.21.2.2.2.2.19.18S91.53,71.88,91.58,71.94Z"/></clipPath><clipPath id="clip-path-16" transform="translate(-9.79 -6.09)"><path class="cls-1" d="M116.08,49.5l1.75,1.74a9.91,9.91,0,0,1-.29,1.48L115.79,51A8.06,8.06,0,0,0,116.08,49.5Z"/></clipPath><clipPath id="clip-path-17" transform="translate(-9.79 -6.09)"><path class="cls-1" d="M124.83,35.77c3.91,3.91,5.89,9.1,5.89,15.44L129,49.47c0-6.34-2-11.54-5.89-15.45C123.61,34.54,124.31,35.24,124.83,35.77Z"/></clipPath><clipPath id="clip-path-18" transform="translate(-9.79 -6.09)"><path class="cls-1" d="M93.09,74l-1.74-1.75a8.43,8.43,0,0,0,1,.83c2.34,1.76,5.82,2.66,10.34,2.66a40.69,40.69,0,0,0,20.47-5.62l1.74,1.74a39.46,39.46,0,0,1-9.37,4,40.1,40.1,0,0,1-11.1,1.6c-4.52,0-8-.9-10.34-2.67A8.35,8.35,0,0,1,93.09,74Z"/></clipPath><clipPath id="clip-path-19" transform="translate(-9.79 -6.09)"><path class="cls-1" d="M130.72,51.21c0,1.51-.13,3.26-.34,5.23l-1.75-1.75a48.07,48.07,0,0,0,.34-5.22l.21.2.21.22.23.22.22.23.23.23.23.22.21.22Z"/></clipPath><clipPath id="clip-path-20" transform="translate(-9.79 -6.09)"><path class="cls-1" d="M102.09,88.26c-8.23,0-14.55-2-18.79-5.87l-1.74-1.75c4.24,3.9,10.56,5.88,18.78,5.88Z"/></clipPath><clipPath id="clip-path-21" transform="translate(-9.79 -6.09)"><path class="cls-1" d="M130.38,56.44c-.21,1.88-.54,4.15-1,6.75l-1.75-1.74c.44-2.6.76-4.88,1-6.76l.21.21.21.21.23.23.22.23.23.22L130,56l.21.22Z"/></clipPath><clipPath id="clip-path-22" transform="translate(-9.79 -6.09)"><path class="cls-1" d="M112.8,87.21a53.81,53.81,0,0,1-10.71,1.05l-1.75-1.74a53.1,53.1,0,0,0,10.72-1.06Z"/></clipPath><clipPath id="clip-path-23" transform="translate(-9.79 -6.09)"><path class="cls-1" d="M122.51,84.15a48.51,48.51,0,0,1-9.71,3.06l-1.74-1.75a48.39,48.39,0,0,0,9.7-3Z"/></clipPath><clipPath id="clip-path-24" transform="translate(-9.79 -6.09)"><path class="cls-1" d="M123.81,33.33l1.75,1.75c4.09,4.09,6.16,9.52,6.15,16.13a50.12,50.12,0,0,1-.34,5.34c-.22,2-.58,4.43-1.05,7.23L128.58,62c.47-2.79.82-5.23,1-7.23a49.79,49.79,0,0,0,.34-5.33C130,42.86,127.91,37.43,123.81,33.33Z"/></clipPath><clipPath id="clip-path-25" transform="translate(-9.79 -6.09)"><path class="cls-1" d="M82.05,82.57l-1.74-1.75.57.55c4.43,4.09,11,6.15,19.46,6.15a54.26,54.26,0,0,0,10.91-1.08,49.45,49.45,0,0,0,10.16-3.22L123.16,85A49.48,49.48,0,0,1,113,88.19a55,55,0,0,1-10.92,1.08c-8.47,0-15-2.07-19.45-6.15Z"/></clipPath><clipPath id="clip-path-26" transform="translate(-9.79 -6.09)"><path class="cls-1" d="M161,48c-.26.43-.51.87-.74,1.32l-1.74-1.74c.23-.45.48-.89.74-1.33a22.14,22.14,0,0,1,2-2.84L163,45.19A22.28,22.28,0,0,0,161,48Z"/></clipPath><clipPath id="clip-path-27" transform="translate(-9.79 -6.09)"><path class="cls-1" d="M163.08,45.05l-.52-.52-.66-.66-.17-.17-.16-.17-.16-.15s-.08-.05-.08-.08a11.88,11.88,0,0,1,5.46-3.84l.2.2.22.22.22.22.23.23.23.23.22.22.22.22.2.2A11.88,11.88,0,0,0,163.08,45.05Z"/></clipPath><clipPath id="clip-path-28" transform="translate(-9.79 -6.09)"><path class="cls-1" d="M160.22,49.36c-.18.34-.35.69-.51,1L158,48.65c.17-.35.34-.69.52-1Z"/></clipPath><clipPath id="clip-path-29" transform="translate(-9.79 -6.09)"><path class="cls-1" d="M169.26,41l-.73.2-.31-.31-.22-.22-.23-.23-.23-.23-.22-.22-.22-.22-.11-.11c-.06-.06-.17-.12-.2-.2a6.05,6.05,0,0,1,.73-.2Z"/></clipPath><clipPath id="clip-path-30" transform="translate(-9.79 -6.09)"><path class="cls-1" d="M158.78,52.61,157,50.87c.28-.76.59-1.5.92-2.22l.42.42.23.22.22.23.23.23.23.23.21.21.21.21C159.37,51.11,159.06,51.85,158.78,52.61Z"/></clipPath><clipPath id="clip-path-31" transform="translate(-9.79 -6.09)"><path class="cls-1" d="M158.78,52.61l-.22.6-1.74-1.75c.07-.2.14-.4.22-.59Z"/></clipPath><clipPath id="clip-path-32" transform="translate(-9.79 -6.09)"><path class="cls-1" d="M157.2,58.68l-1.75-1.74a33.27,33.27,0,0,1,1.37-5.48l.42.42.22.23.23.23.87.87A33.15,33.15,0,0,0,157.2,58.68Z"/></clipPath><clipPath id="clip-path-33" transform="translate(-9.79 -6.09)"><path class="cls-1" d="M169.26,41l-.39-.39-.73-.73-.1-.09-.44-.45s-.08-.05-.08-.08a9.13,9.13,0,0,1,2.1-.23,7.41,7.41,0,0,1,5.48,2.13l1.74,1.74a7.44,7.44,0,0,0-5.47-2.13A9.81,9.81,0,0,0,169.26,41Z"/></clipPath><clipPath id="clip-path-34" transform="translate(-9.79 -6.09)"><path class="cls-1" d="M156.67,65.37a21.51,21.51,0,0,0,.17,2.73l-1.74-1.74a21.51,21.51,0,0,1-.17-2.73,41.8,41.8,0,0,1,.47-6.36L157.14,59A43,43,0,0,0,156.67,65.37Z"/></clipPath><clipPath id="clip-path-35" transform="translate(-9.79 -6.09)"><path class="cls-1" d="M156.84,68.1c0,.22.06.43.1.64L155.19,67l-.09-.64.2.2.22.22.22.22.23.23.11.11.23.23.22.22.11.11C156.7,68,156.8,68,156.84,68.1Z"/></clipPath><clipPath id="clip-path-36" transform="translate(-9.79 -6.09)"><path class="cls-1" d="M159.05,74c-.58-.58-1.17-1.16-1.75-1.75A11.9,11.9,0,0,1,155.19,67l1.75,1.74A11.71,11.71,0,0,0,159.05,74Z"/></clipPath><clipPath id="clip-path-37" transform="translate(-9.79 -6.09)"><path class="cls-1" d="M174.39,41.85l1.74,1.75a6.41,6.41,0,0,0-4.77-1.83c-3.65,0-6.86,2.28-9.55,6.78s-4.13,10.25-4.14,16.82c0,3.39.73,6.08,2.18,8a7.64,7.64,0,0,0,.74.85l-1.75-1.75a8.77,8.77,0,0,1-.73-.85c-1.45-1.91-2.19-4.6-2.18-8,0-6.58,1.4-12.24,4.14-16.82S166,40,169.62,40A6.45,6.45,0,0,1,174.39,41.85Z"/></clipPath><clipPath id="clip-path-38" transform="translate(-9.79 -6.09)"><path class="cls-1" d="M163.08,45.05l-.13.14-1-1-.23-.23-.11-.11-.11-.11-.21-.21s-.1-.06-.1-.1l.12-.15.16.15.16.16.17.17L162,44l.17.17.17.17.16.16.15.16.05,0,.06.05.05.06.06.06.06.05.05.06Z"/></clipPath><clipPath id="clip-path-39" transform="translate(-9.79 -6.09)"><path class="cls-1" d="M157.2,58.68l-.06.34-1.74-1.75c0-.11,0-.22,0-.33Z"/></clipPath><clipPath id="clip-path-40" transform="translate(-9.79 -6.09)"><path class="cls-1" d="M186.61,31.81l1.74,1.75a13.74,13.74,0,0,0-10.12-4A16.93,16.93,0,0,0,169.45,32a22.72,22.72,0,0,0-7.26,7.23l-1.74-1.75a22.72,22.72,0,0,1,7.26-7.23,16.92,16.92,0,0,1,8.78-2.43A13.79,13.79,0,0,1,186.61,31.81Z"/></clipPath><clipPath id="clip-path-41" transform="translate(-9.79 -6.09)"><path class="cls-1" d="M188.35,33.56A15.05,15.05,0,0,1,189.58,35l-1.75-1.74a13.75,13.75,0,0,0-1.22-1.4Z"/></clipPath><clipPath id="clip-path-42" transform="translate(-9.79 -6.09)"><path class="cls-1" d="M187.31,31.11l1.75,1.74a17.22,17.22,0,0,1,1.31,1.49l-1.74-1.75A17.16,17.16,0,0,0,187.31,31.11Z"/></clipPath><clipPath id="clip-path-43" transform="translate(-9.79 -6.09)"><path class="cls-1" d="M159.05,74a7.3,7.3,0,0,0,.81.93l-1.75-1.74a10.75,10.75,0,0,1-.81-.94L159.05,74Z"/></clipPath><clipPath id="clip-path-44" transform="translate(-9.79 -6.09)"><path class="cls-1" d="M158.7,84.65,157,82.9A13.76,13.76,0,0,1,153.23,75L155,76.71A13.85,13.85,0,0,0,158.7,84.65Z"/></clipPath><clipPath id="clip-path-45" transform="translate(-9.79 -6.09)"><path class="cls-1" d="M175.1,41.16l1.74,1.74a7.62,7.62,0,0,1,.78.91c1.47,2,2.2,4.76,2.2,8.27,0,6.89-1.4,12.83-4.12,17.67s-6.19,7.44-10.12,7.44a7.77,7.77,0,0,1-5.72-2.29l-1.75-1.74a7.83,7.83,0,0,0,5.73,2.28c3.93,0,7.33-2.5,10.12-7.43s4.1-10.79,4.11-17.68c0-3.51-.73-6.29-2.19-8.26A8.84,8.84,0,0,0,175.1,41.16Z"/></clipPath><clipPath id="clip-path-46" transform="translate(-9.79 -6.09)"><path class="cls-1" d="M159.3,85.21c-.2-.18-.41-.37-.6-.56L157,82.9a8.08,8.08,0,0,0,.6.57,13.27,13.27,0,0,0,8.95,3l1.75,1.74-1.74-1.74a19.15,19.15,0,0,0,11-3.57,27.72,27.72,0,0,0,8.69-10l1.75,1.75-1.75-1.75a50.3,50.3,0,0,0,4.31-11.78A57,57,0,0,0,192,48.05c0-6.25-1.4-11.25-4.21-14.84L189.58,35c2.8,3.6,4.21,8.59,4.21,14.84a57.7,57.7,0,0,1-1.55,13.11,50.62,50.62,0,0,1-4.3,11.78,27.9,27.9,0,0,1-8.69,10,19.17,19.17,0,0,1-11,3.56A13.23,13.23,0,0,1,159.3,85.21Z"/></clipPath><clipPath id="clip-path-47" transform="translate(-9.79 -6.09)"><path class="cls-1" d="M158,85.34l-1.75-1.75c.22.22.45.43.68.63a14.15,14.15,0,0,0,9.6,3.3,20.2,20.2,0,0,0,11.56-3.74,28.79,28.79,0,0,0,9-10.38,51.25,51.25,0,0,0,4.4-12A58.09,58.09,0,0,0,193,48.05c0-6.48-1.48-11.68-4.41-15.46l1.74,1.75c2.94,3.78,4.42,9,4.42,15.45a58.66,58.66,0,0,1-1.58,13.34,51.61,51.61,0,0,1-4.39,12,29,29,0,0,1-9,10.38,20.2,20.2,0,0,1-11.55,3.74,14.18,14.18,0,0,1-9.6-3.3C158.42,85.76,158.19,85.55,158,85.34Z"/></clipPath><clipPath id="clip-path-48" transform="translate(-9.79 -6.09)"><path class="cls-1" d="M241.25,25.67c-1.87-1.39-4.9-2.05-9.28-2.05l-1.74-1.75c4.38,0,7.41.67,9.28,2.05l1.74,1.75Z"/></clipPath><clipPath id="clip-path-49" transform="translate(-9.79 -6.09)"><path class="cls-1" d="M239.48,25.21,241.22,27a4.37,4.37,0,0,0-.56-.49c-1.66-1.23-4.59-1.85-8.69-1.85l-1.74-1.75c4.1,0,7,.62,8.68,1.85A5.27,5.27,0,0,1,239.48,25.21Z"/></clipPath><clipPath id="clip-path-50" transform="translate(-9.79 -6.09)"><path class="cls-1" d="M241.25,25.67l-.07-.08-1.25-1.25-.42-.42a6.39,6.39,0,0,1,.68.59l1.75,1.75A5.64,5.64,0,0,0,241.25,25.67Z"/></clipPath><clipPath id="clip-path-51" transform="translate(-9.79 -6.09)"><path class="cls-1" d="M252.58,16.3,254.32,18a15,15,0,0,0-1.7-1.46c-4.07-3-10.11-4.55-17.94-4.55l-1.75-1.74c7.84,0,13.88,1.53,17.94,4.54A15.33,15.33,0,0,1,252.58,16.3Z"/></clipPath><clipPath id="clip-path-52" transform="translate(-9.79 -6.09)"><path class="cls-1" d="M240.19,24.51l1.75,1.75c1.42,1.43,2.15,3.57,2.15,6.38,0,4.69-1.31,8.27-3.86,10.64s-6.39,3.56-11.43,3.56l-1.75-1.74c5,0,8.9-1.2,11.44-3.57s3.85-5.94,3.85-10.64C242.35,28.08,241.62,25.94,240.19,24.51Z"/></clipPath><clipPath id="clip-path-53" transform="translate(-9.79 -6.09)"><path class="cls-1" d="M258.67,29.7A36.3,36.3,0,0,1,256.82,41l-1.74-1.74A36.65,36.65,0,0,0,256.93,28c0-4.85-1.46-8.76-4.35-11.65L254.32,18C257.22,20.94,258.68,24.84,258.67,29.7Z"/></clipPath><clipPath id="clip-path-54" transform="translate(-9.79 -6.09)"><path class="cls-1" d="M256.82,41h0l-1.74-1.74h0Z"/></clipPath><clipPath id="clip-path-55" transform="translate(-9.79 -6.09)"><path class="cls-1" d="M242.48,56.4c-3.86,1.34-8.94,2-15.12,2-.51-.52-1-1-1.54-1.54l-.2-.21c6.18,0,11.26-.68,15.11-2a22.19,22.19,0,0,0,9.64-6.53l1.75,1.74-1.75-1.74a25.31,25.31,0,0,0,4.71-8.86l.2.2.22.22.45.45.87.87a25.13,25.13,0,0,1-4.7,8.86A22.22,22.22,0,0,1,242.48,56.4Z"/></clipPath><clipPath id="clip-path-56" transform="translate(-9.79 -6.09)"><path class="cls-1" d="M253.3,15.6l1.75,1.75c3.07,3.07,4.63,7.22,4.62,12.35a37.63,37.63,0,0,1-1.89,11.62,26.3,26.3,0,0,1-4.91,9.21,23.13,23.13,0,0,1-10.06,6.82,48.36,48.36,0,0,1-15.45,2.08l-1.74-1.75c6.28,0,11.48-.7,15.44-2.08a23.07,23.07,0,0,0,10.07-6.82,26,26,0,0,0,4.9-9.21A37.3,37.3,0,0,0,257.93,28C257.93,22.82,256.38,18.68,253.3,15.6Z"/></clipPath><clipPath id="clip-path-57" transform="translate(-9.79 -6.09)"><path class="cls-1" d="M303.82,25.67c-1.86-1.39-4.9-2.05-9.27-2.05l-1.75-1.75c4.38,0,7.42.67,9.28,2.05l1.74,1.75-1.74-1.75q.36.28.69.6l1.74,1.75A5,5,0,0,0,303.82,25.67Z"/></clipPath><clipPath id="clip-path-58" transform="translate(-9.79 -6.09)"><path class="cls-1" d="M302.05,25.22,303.8,27a4.55,4.55,0,0,0-.58-.49c-1.66-1.23-4.58-1.85-8.67-1.85l-1.75-1.75c4.1,0,7,.62,8.68,1.85A5.37,5.37,0,0,1,302.05,25.22Z"/></clipPath><clipPath id="clip-path-59" transform="translate(-9.79 -6.09)"><path class="cls-1" d="M315.14,16.29,316.88,18a15,15,0,0,0-1.69-1.45c-4.07-3-10.1-4.55-17.94-4.55l-1.74-1.74c7.83,0,13.87,1.53,17.94,4.54A14.89,14.89,0,0,1,315.14,16.29Z"/></clipPath><clipPath id="clip-path-60" transform="translate(-9.79 -6.09)"><path class="cls-1" d="M302.77,24.52l1.74,1.75c1.43,1.42,2.15,3.56,2.14,6.37,0,4.69-1.3,8.27-3.85,10.64s-6.38,3.56-11.43,3.56l-1.74-1.74c5,0,8.89-1.2,11.43-3.57s3.84-5.94,3.85-10.64C304.91,28.09,304.2,26,302.77,24.52Z"/></clipPath><clipPath id="clip-path-61" transform="translate(-9.79 -6.09)"><path class="cls-1" d="M305.05,56.4a47.17,47.17,0,0,1-15.11,2l-1.75-1.75c6.17,0,11.26-.68,15.12-2a22.22,22.22,0,0,0,9.63-6.53l1.74,1.74-1.74-1.74a25.31,25.31,0,0,0,4.71-8.86l.88.87.45.45.21.22.21.2a25.14,25.14,0,0,1-4.72,8.86A22.07,22.07,0,0,1,305.05,56.4Z"/></clipPath><clipPath id="clip-path-62" transform="translate(-9.79 -6.09)"><path class="cls-1" d="M321.24,29.7A36.58,36.58,0,0,1,319.4,41l-1.75-1.74A36.34,36.34,0,0,0,319.49,28l1.75,1.75L319.49,28c0-4.86-1.46-8.76-4.35-11.66L316.88,18C319.78,20.93,321.24,24.84,321.24,29.7Z"/></clipPath><clipPath id="clip-path-63" transform="translate(-9.79 -6.09)"><path class="cls-1" d="M315.87,15.6l1.74,1.75c3.08,3.07,4.63,7.22,4.63,12.35a37.35,37.35,0,0,1-1.9,11.62,26.13,26.13,0,0,1-4.9,9.21,23.16,23.16,0,0,1-10.07,6.82,48.27,48.27,0,0,1-15.43,2.08l-1.75-1.75c6.29,0,11.48-.7,15.44-2.08a23,23,0,0,0,10.06-6.82,26.21,26.21,0,0,0,4.91-9.21A37.29,37.29,0,0,0,320.49,28C320.5,22.82,318.94,18.68,315.87,15.6Z"/></clipPath><clipPath id="clip-path-64" transform="translate(-9.79 -6.09)"><path class="cls-1" d="M338.31,57.83l-1.75-1.74a18.91,18.91,0,0,0,8.1,4.37l1.74,1.74A18.76,18.76,0,0,1,338.31,57.83Z"/></clipPath><clipPath id="clip-path-65" transform="translate(-9.79 -6.09)"><path class="cls-1" d="M337.6,58.54l-1.74-1.75a19.63,19.63,0,0,0,8.52,4.63l1.75,1.75A19.83,19.83,0,0,1,337.6,58.54Z"/></clipPath><clipPath id="clip-path-66" transform="translate(-9.79 -6.09)"><path class="cls-1" d="M338.31,57.83l-1.75-1.74c-.26-.27-.51-.54-.74-.82a13.67,13.67,0,0,1-2.77-8.9A16.12,16.12,0,0,1,339.78,33c4.49-3.42,10.57-5.14,18.07-5.14a56.93,56.93,0,0,1,9.36.78,60.37,60.37,0,0,1,8.89,2.19l1.74,1.75a61.7,61.7,0,0,0-8.89-2.2,56.93,56.93,0,0,0-9.36-.78c-7.49,0-13.58,1.73-18.07,5.15a16.1,16.1,0,0,0-6.72,13.38A13.58,13.58,0,0,0,337.56,57,8.28,8.28,0,0,0,338.31,57.83Z"/></clipPath><clipPath id="clip-path-67" transform="translate(-9.79 -6.09)"><path class="cls-1" d="M349.08,49.79l-1.74-1.74a8,8,0,0,0,.61.53c1.31,1,4.1,2.07,8.56,3.35l1.75,1.75c-4.46-1.29-7.26-2.39-8.56-3.36A6.4,6.4,0,0,1,349.08,49.79Z"/></clipPath><clipPath id="clip-path-68" transform="translate(-9.79 -6.09)"><path class="cls-1" d="M347.65,46.24a4.83,4.83,0,0,0,1.43,3.55l-1.74-1.74a4.87,4.87,0,0,1-1.43-3.56,6,6,0,0,1,3-5.19,14.52,14.52,0,0,1,7.83-1.85,31,31,0,0,1,9.28,1.4,29.51,29.51,0,0,1,7.73,3.68l1.74,1.75a29.8,29.8,0,0,0-7.72-3.69,31.09,31.09,0,0,0-9.28-1.39,14.55,14.55,0,0,0-7.84,1.85A5.94,5.94,0,0,0,347.65,46.24Z"/></clipPath><clipPath id="clip-path-69" transform="translate(-9.79 -6.09)"><path class="cls-1" d="M349.8,49.09l-1.75-1.75a3.88,3.88,0,0,1-1.14-2.85,5,5,0,0,1,2.56-4.34,13.67,13.67,0,0,1,7.3-1.7,30.12,30.12,0,0,1,9,1.35,28.77,28.77,0,0,1,8.07,4l1.74,1.75a28.4,28.4,0,0,0-8.07-4,30.11,30.11,0,0,0-9-1.35,13.64,13.64,0,0,0-7.3,1.7,4.93,4.93,0,0,0-2.56,4.35A3.84,3.84,0,0,0,349.8,49.09Z"/></clipPath><clipPath id="clip-path-70" transform="translate(-9.79 -6.09)"><path class="cls-1" d="M359.34,66.82c-1.1-.94-3.87-2-8.49-3.4l-1.74-1.75c4.62,1.36,7.39,2.47,8.48,3.4l1.75,1.75-1.75-1.75.29.27,1.74,1.74A3.45,3.45,0,0,0,359.34,66.82Z"/></clipPath><clipPath id="clip-path-71" transform="translate(-9.79 -6.09)"><path class="cls-1" d="M357.19,66.07l1.75,1.74-.25-.23c-1-.83-3.7-1.9-8.11-3.2l-1.74-1.74c4.4,1.29,7.13,2.36,8.1,3.2A2.73,2.73,0,0,1,357.19,66.07Z"/></clipPath><clipPath id="clip-path-72" transform="translate(-9.79 -6.09)"><path class="cls-1" d="M368.87,57.57l1.74,1.74a19.78,19.78,0,0,0-8.6-4.57L360.27,53A19.74,19.74,0,0,1,368.87,57.57Z"/></clipPath><clipPath id="clip-path-73" transform="translate(-9.79 -6.09)"><path class="cls-1" d="M357.88,65.34l1.74,1.74a5.11,5.11,0,0,1,1.44,3.78,6.42,6.42,0,0,1-3.37,5.72c-2.15,1.31-5.17,2-9,2A33,33,0,0,1,339,77a37.22,37.22,0,0,1-8.68-4l-1.74-1.74a36.6,36.6,0,0,0,8.68,4A32.67,32.67,0,0,0,347,76.81c3.8,0,6.81-.66,9-2a6.42,6.42,0,0,0,3.38-5.72A5.11,5.11,0,0,0,357.88,65.34Z"/></clipPath><clipPath id="clip-path-74" transform="translate(-9.79 -6.09)"><path class="cls-1" d="M337.76,87.39a62.07,62.07,0,0,1-9.78-2.5l-1.75-1.75a61.38,61.38,0,0,0,9.79,2.5h0s.06.07.08.09l.1.09.09.09.09.1.4.39.2.2.19.2.2.2.19.19.2.2-.3-.3-.78-.79-.2-.19-.1-.1-.27-.28s-.09,0-.09-.09a62.26,62.26,0,0,0,10.44.88h0s0,0,.06.06l.06.06.14.13.27.28.57.57.08.08.09.09.16.16L348,88l.08.08.08.08.07.07-1.74-1.74c8.14,0,14.57-1.73,19.12-5.15l1.74,1.75-1.74-1.75a16.76,16.76,0,0,0,6.79-14.09L374.11,69l-1.74-1.74a13.64,13.64,0,0,0-2.86-9L371.25,60l-1.74-1.75c-.2-.23-.42-.47-.64-.69l1.74,1.74c.23.23.44.46.64.7a13.52,13.52,0,0,1,2.86,9,16.74,16.74,0,0,1-6.79,14.1c-4.54,3.41-11,5.14-19.12,5.14A63.31,63.31,0,0,1,337.76,87.39Z"/></clipPath><clipPath id="clip-path-75" transform="translate(-9.79 -6.09)"><path class="cls-1" d="M369.59,56.87l1.74,1.74q.36.38.69.75a14.59,14.59,0,0,1,3.1,9.66c0,6.3-2.43,11.31-7.2,14.89s-11.35,5.36-19.72,5.36a64.4,64.4,0,0,1-10.61-.9,60.56,60.56,0,0,1-10.35-2.69l-1.74-1.74a61.48,61.48,0,0,0,10.35,2.68,63.15,63.15,0,0,0,10.61.9c8.36,0,15-1.8,19.72-5.36a17.71,17.71,0,0,0,7.2-14.88,14.62,14.62,0,0,0-3.1-9.66Q370,57.23,369.59,56.87Z"/></clipPath></defs><path class="cls-2" d="M24.79,12.09" transform="translate(-9.79 -6.09)"/><g class="cls-3"><polygon points="18.14 4.2 19.89 5.95 8.02 5.95 6.27 4.2 18.14 4.2"/><polygon points="38.58 23.84 40.33 25.58 29.08 25.58 27.34 23.84 38.58 23.84"/><polygon class="cls-4" points="18.14 4.2 19.89 5.95 14.02 64.7 12.28 62.95 18.14 4.2"/><polygon points="19.25 3.2 21 4.95 15.76 57.42 14.02 55.68 19.25 3.2"/><polygon points="67.4 4.2 69.14 5.95 56.9 5.95 55.16 4.2 67.4 4.2"/><polygon points="27.34 23.84 29.08 25.58 14.02 64.7 12.28 62.95 27.34 23.84"/><polygon points="6.27 4.2 8.02 5.95 2.81 80.71 1.07 78.96 6.27 4.2"/><polygon class="cls-5" points="13.8 78.96 15.54 80.71 2.81 80.71 1.07 78.96 13.8 78.96"/><polygon class="cls-6" points="30.79 37.21 32.53 38.95 15.54 80.71 13.8 78.96 30.79 37.21"/><polygon points="29.86 42.15 31.61 43.89 16.22 81.71 14.47 79.96 29.86 42.15"/><polygon points="14.47 79.96 16.22 81.71 1.74 81.71 0 79.96 14.47 79.96"/><polygon class="cls-7" points="38.58 23.84 40.33 25.58 40.94 64.6 39.19 62.85 38.58 23.84"/><polygon points="39.56 22.84 41.31 24.58 41.83 57.53 40.08 55.78 39.56 22.84"/><polygon points="55.16 4.2 56.9 5.95 40.94 64.6 39.19 62.85 55.16 4.2"/><polygon points="30.79 37.21 32.53 38.95 33.12 80.71 31.37 78.96 30.79 37.21"/><polygon class="cls-8" points="67.4 4.2 44.22 78.96 31.37 78.96 30.79 37.21 13.8 78.96 1.07 78.96 6.27 4.2 18.14 4.2 12.28 62.95 27.34 23.84 38.58 23.84 39.19 62.85 55.16 4.2 67.4 4.2"/><polygon class="cls-9" points="67.4 4.2 69.14 5.95 45.96 80.71 44.22 78.96 67.4 4.2"/><polygon class="cls-5" points="44.22 78.96 45.96 80.71 33.12 80.71 31.37 78.96 44.22 78.96"/><polygon points="68.75 3.2 70.49 4.95 46.7 81.71 44.95 79.96 68.75 3.2"/><path d="M64.18,9.29H78.53L54.74,86.05H40.18l-.53-37.81L24.26,86.05H9.79l0-.53,5.3-76.23H29L23.8,61.76,36.43,28.92H49.35l.52,32.95ZM54,85.05,77.18,10.29H64.94L49,68.94l-.61-39H37.13L22.07,69l5.86-58.75H16.06l-5.2,74.76H23.58l17-41.75.59,41.75H54" transform="translate(-9.79 -6.09)"/><polygon points="44.95 79.96 46.7 81.71 32.14 81.71 30.39 79.96 44.95 79.96"/><polygon class="cls-10" points="81.4 44.59 83.14 46.34 82.93 47 81.18 45.25 81.4 44.59"/><g class="cls-3"><g class="cls-11"><g class="cls-3"><path class="cls-12" d="M113.55,41.11l1.75,1.74-.13-.12a10.36,10.36,0,0,0-7.44-2.63,13.72,13.72,0,0,0-9,3.12,16.34,16.34,0,0,0-3.38,4l-1.74-1.74a16.18,16.18,0,0,1,3.38-4,13.69,13.69,0,0,1,9-3.11A10.33,10.33,0,0,1,113.43,41l.12.12" transform="translate(-9.79 -6.09)"/></g></g></g><polygon class="cls-13" points="79.36 55.36 81.11 57.11 81.03 57.52 79.29 55.77 79.36 55.36"/><g class="cls-3"><g class="cls-14"><g class="cls-3"><path class="cls-15" d="M89.07,61.86l1.75,1.75c-.1.59-.18,1.14-.24,1.66,0,.34-.06.67-.09,1l-1.74-1.75c0-.34,0-.68.09-1,0-.53.14-1.07.23-1.67" transform="translate(-9.79 -6.09)"/><path class="cls-16" d="M88.75,64.54l1.74,1.75,0,.56L88.71,65.1c0-.19,0-.37,0-.56" transform="translate(-9.79 -6.09)"/></g></g></g><g class="cls-3"><g class="cls-17"><g class="cls-3"><path class="cls-12" d="M113.55,41.11l1.75,1.74-.13-.12a10.36,10.36,0,0,0-7.44-2.63,13.72,13.72,0,0,0-9,3.12,16.34,16.34,0,0,0-3.38,4l-1.74-1.74a16.18,16.18,0,0,1,3.38-4,13.69,13.69,0,0,1,9-3.11A10.33,10.33,0,0,1,113.43,41l.12.12" transform="translate(-9.79 -6.09)"/></g></g></g><g class="cls-3"><g class="cls-18"><g class="cls-3"><path d="M112.84,41.81l1.75,1.74-.11-.1a9.36,9.36,0,0,0-6.75-2.34A12.66,12.66,0,0,0,99.37,44a15.17,15.17,0,0,0-3.17,3.72L94.46,46a14.91,14.91,0,0,1,3.17-3.71A12.64,12.64,0,0,1,106,39.37a9.36,9.36,0,0,1,6.75,2.34l.1.1" transform="translate(-9.79 -6.09)"/><path d="M94.46,46l1.74,1.75a22.86,22.86,0,0,0-1.85,3.74L92.6,49.71A23.4,23.4,0,0,1,94.46,46" transform="translate(-9.79 -6.09)"/><path d="M92.6,49.71l1.75,1.74-.24.64-1.75-1.75.24-.63" transform="translate(-9.79 -6.09)"/></g></g></g><g class="cls-3"><g class="cls-19"><g class="cls-3"><path d="M113.55,41.11l1.75,1.74a8.6,8.6,0,0,1,2.19,3.78l-1.75-1.74a8.54,8.54,0,0,0-2.19-3.78" transform="translate(-9.79 -6.09)"/><path d="M115.74,44.89l1.75,1.74a11.5,11.5,0,0,1,.37,2.1L116.12,47a10.57,10.57,0,0,0-.38-2.1" transform="translate(-9.79 -6.09)"/><path d="M116.12,47l1.74,1.74c0,.38,0,.76,0,1.16s0,.53,0,.81L116.13,49c0-.27,0-.55,0-.8s0-.79,0-1.16" transform="translate(-9.79 -6.09)"/><path d="M116.13,49l1.75,1.75c0,.18,0,.36,0,.54l-1.75-1.74c0-.19,0-.37,0-.55" transform="translate(-9.79 -6.09)"/></g></g></g><g class="cls-3"><g class="cls-20"><g class="cls-3"><path class="cls-12" d="M113.55,41.11l1.75,1.74-.13-.12a10.36,10.36,0,0,0-7.44-2.63,13.72,13.72,0,0,0-9,3.12,16.34,16.34,0,0,0-3.38,4l-1.74-1.74a16.18,16.18,0,0,1,3.38-4,13.69,13.69,0,0,1,9-3.11A10.33,10.33,0,0,1,113.43,41l.12.12" transform="translate(-9.79 -6.09)"/></g></g></g><g class="cls-3"><g class="cls-21"><g class="cls-3"><path d="M90,62.45l1.75,1.74c-.07.42-.12.81-.16,1.18s-.07.74-.1,1.1l-1.74-1.74c0-.37.06-.74.1-1.1s.09-.77.15-1.18" transform="translate(-9.79 -6.09)"/><path d="M89.74,64.73l1.74,1.74,0,.4-1.74-1.74,0-.4" transform="translate(-9.79 -6.09)"/></g></g></g><g class="cls-3"><g class="cls-22"><g class="cls-3"><path class="cls-16" d="M88.71,65.1l1.75,1.75a11.53,11.53,0,0,0,0,1.19L88.76,66.3c0-.39-.05-.79-.05-1.2" transform="translate(-9.79 -6.09)"/><path class="cls-23" d="M88.76,66.3,90.5,68a12,12,0,0,0,.39,2.16l-1.75-1.75a11.08,11.08,0,0,1-.38-2.15" transform="translate(-9.79 -6.09)"/><path class="cls-24" d="M89.14,68.45l1.75,1.75A8.66,8.66,0,0,0,93.09,74l-1.74-1.75a8.63,8.63,0,0,1-2.21-3.81" transform="translate(-9.79 -6.09)"/></g></g></g><g class="cls-3"><g class="cls-25"><g class="cls-3"><path class="cls-24" d="M89.14,68.45l1.75,1.75A8.66,8.66,0,0,0,93.09,74l-1.74-1.75a8.63,8.63,0,0,1-2.21-3.81" transform="translate(-9.79 -6.09)"/></g></g></g><g class="cls-3"><g class="cls-26"><g class="cls-3"><path class="cls-24" d="M89.14,68.45l1.75,1.75A8.66,8.66,0,0,0,93.09,74l-1.74-1.75a8.63,8.63,0,0,1-2.21-3.81" transform="translate(-9.79 -6.09)"/></g></g></g><g class="cls-3"><g class="cls-27"><g class="cls-3"><path class="cls-24" d="M89.14,68.45l1.75,1.75A8.66,8.66,0,0,0,93.09,74l-1.74-1.75a8.63,8.63,0,0,1-2.21-3.81" transform="translate(-9.79 -6.09)"/></g></g></g><g class="cls-3"><g class="cls-28"><g class="cls-3"><path d="M123.09,34l1.74,1.75c-.11-.12-.22-.22-.34-.33-4.14-3.95-9.74-5.95-16.65-5.95a29,29,0,0,0-12.47,2.72,28.66,28.66,0,0,0-10,7.8,31.61,31.61,0,0,0-2.54,3.55l-1.75-1.75a32.5,32.5,0,0,1,2.55-3.54A28.54,28.54,0,0,1,106.1,27.75c6.91,0,12.51,2,16.65,5.94l.34.33" transform="translate(-9.79 -6.09)"/><path d="M81.09,41.81l1.75,1.75a35.58,35.58,0,0,0-2.92,5.86l-1.75-1.75a37.23,37.23,0,0,1,2.92-5.86" transform="translate(-9.79 -6.09)"/><path d="M78.17,47.67l1.75,1.75c-.27.67-.52,1.35-.75,2A43.6,43.6,0,0,0,78,55.67l-1.74-1.74a43.55,43.55,0,0,1,1.17-4.2c.24-.7.49-1.39.75-2.06" transform="translate(-9.79 -6.09)"/><path d="M76.25,53.93,78,55.67A43.32,43.32,0,0,0,77.06,62l-1.75-1.74a43.13,43.13,0,0,1,.94-6.33" transform="translate(-9.79 -6.09)"/><path d="M75.31,60.26,77.06,62c-.08,1-.12,2.11-.12,3.17s0,2.08.12,3.07l-1.74-1.75c-.09-1-.13-2-.13-3.06s0-2.12.12-3.17" transform="translate(-9.79 -6.09)"/><path d="M75.32,66.49l1.74,1.75A28,28,0,0,0,78,73.49l-1.74-1.74a28.1,28.1,0,0,1-.93-5.26" transform="translate(-9.79 -6.09)"/><path d="M76.25,71.75,78,73.49a19,19,0,0,0,4.78,8.39L81,80.13a18.91,18.91,0,0,1-4.78-8.38" transform="translate(-9.79 -6.09)"/></g></g></g><g class="cls-3"><g class="cls-29"><g class="cls-3"><path class="cls-12" d="M120.76,82.41l1.75,1.74a48.51,48.51,0,0,1-9.71,3.06,53.81,53.81,0,0,1-10.71,1.05c-8.23,0-14.55-2-18.79-5.87l-.53-.51L81,80.13c.17.18.35.35.53.51,4.24,3.9,10.56,5.88,18.78,5.88a53.1,53.1,0,0,0,10.72-1.06,48.39,48.39,0,0,0,9.7-3" transform="translate(-9.79 -6.09)"/></g></g></g><g class="cls-3"><g class="cls-30"><g class="cls-3"><path d="M89.71,65.13l1.74,1.74c0,.39,0,.76,0,1.13l-1.75-1.75c0-.36,0-.74,0-1.12" transform="translate(-9.79 -6.09)"/><path d="M89.75,66.25,91.5,68a10.34,10.34,0,0,0,.34,1.93L90.1,68.19a10.44,10.44,0,0,1-.35-1.94" transform="translate(-9.79 -6.09)"/><path d="M90.1,68.19l1.74,1.74a7.6,7.6,0,0,0,1.94,3.35L92,71.54a7.62,7.62,0,0,1-1.94-3.35" transform="translate(-9.79 -6.09)"/></g></g></g><g class="cls-3"><g class="cls-31"><g class="cls-3"><path class="cls-24" d="M89.14,68.45l1.75,1.75A8.66,8.66,0,0,0,93.09,74l-1.74-1.75a8.63,8.63,0,0,1-2.21-3.81" transform="translate(-9.79 -6.09)"/></g></g></g><polygon points="105.52 45.25 107.27 47 82.93 47 81.18 45.25 105.52 45.25"/><g class="cls-3"><g class="cls-32"><g class="cls-3"><path d="M116.08,49.5l1.75,1.74a8.73,8.73,0,0,1-.16,1l-1.75-1.75a6.5,6.5,0,0,0,.16-1" transform="translate(-9.79 -6.09)"/><path d="M115.92,50.45l1.75,1.75c0,.17-.09.35-.13.52L115.79,51a5.11,5.11,0,0,0,.13-.53" transform="translate(-9.79 -6.09)"/></g></g></g><polygon points="106.01 44.89 107.75 46.64 107.64 47 105.9 45.25 106.01 44.89"/><polygon points="105.9 45.25 107.64 47 107.27 47 105.52 45.25 105.9 45.25"/><g class="cls-3"><g class="cls-33"><g class="cls-3"><path class="cls-24" d="M123.09,34l1.74,1.75a19.31,19.31,0,0,1,5,8.53l-1.74-1.75a19.46,19.46,0,0,0-5-8.53" transform="translate(-9.79 -6.09)"/><path class="cls-23" d="M128.07,42.55l1.74,1.75a23.6,23.6,0,0,1,.81,4.5l-1.75-1.75a23.75,23.75,0,0,0-.8-4.5" transform="translate(-9.79 -6.09)"/><path class="cls-16" d="M128.87,47.05l1.75,1.75c.06.78.1,1.59.1,2.41s-.05,1.81-.12,2.84l-1.74-1.75c.07-1,.11-2,.11-2.83s0-1.63-.1-2.42" transform="translate(-9.79 -6.09)"/></g></g></g><g class="cls-3"><g class="cls-34"><g class="cls-3"><path d="M123.11,70.13l1.74,1.74a39.46,39.46,0,0,1-9.37,4,40.1,40.1,0,0,1-11.1,1.6c-4.52,0-8-.9-10.34-2.67a8.35,8.35,0,0,1-1-.82l-1.74-1.75a8.43,8.43,0,0,0,1,.83c2.34,1.76,5.82,2.66,10.34,2.66a40.69,40.69,0,0,0,20.47-5.62" transform="translate(-9.79 -6.09)"/></g></g></g><path class="cls-8" d="M122.75,33.69c4.13,4,6.23,9.26,6.22,15.78a48.07,48.07,0,0,1-.34,5.22c-.21,1.88-.53,4.16-1,6.76H89.15l-.08.41c-.09.6-.18,1.14-.23,1.67s-.09,1-.13,1.57c0,3.5,1.2,6.19,3.59,8s5.82,2.66,10.34,2.66a40.69,40.69,0,0,0,20.47-5.62l-2.35,12.28a48.39,48.39,0,0,1-9.7,3,53.1,53.1,0,0,1-10.72,1.06c-8.22,0-14.54-2-18.78-5.88S75.19,71,75.19,63.43a43.31,43.31,0,0,1,2.23-13.7,35.5,35.5,0,0,1,6.22-11.46A28.54,28.54,0,0,1,106.1,27.75C113,27.75,118.61,29.74,122.75,33.69ZM116.08,49.5a13.1,13.1,0,0,0,.09-1.35A9.51,9.51,0,0,0,113.43,41,10.33,10.33,0,0,0,106,38.36a13.69,13.69,0,0,0-9,3.11,20.16,20.16,0,0,0-5.81,9.21l-.21.66h24.71l.11-.36a8.06,8.06,0,0,0,.29-1.48" transform="translate(-9.79 -6.09)"/><g class="cls-3"><g class="cls-35"><g class="cls-3"><path class="cls-16" d="M128.87,47.05l1.75,1.75c.06.78.1,1.59.1,2.41s-.05,1.81-.12,2.84l-1.74-1.75c.07-1,.11-2,.11-2.83s0-1.63-.1-2.42" transform="translate(-9.79 -6.09)"/><path class="cls-15" d="M128.86,52.3l1.74,1.75c-.06.75-.13,1.55-.22,2.39-.21,1.88-.54,4.15-1,6.75l-1.75-1.74c.44-2.6.76-4.88,1-6.76.1-.83.17-1.63.23-2.39" transform="translate(-9.79 -6.09)"/></g></g></g><g class="cls-3"><g class="cls-36"><g class="cls-3"><path class="cls-12" d="M120.76,82.41l1.75,1.74a48.51,48.51,0,0,1-9.71,3.06,53.81,53.81,0,0,1-10.71,1.05c-8.23,0-14.55-2-18.79-5.87l-.53-.51L81,80.13c.17.18.35.35.53.51,4.24,3.9,10.56,5.88,18.78,5.88a53.1,53.1,0,0,0,10.72-1.06,48.39,48.39,0,0,0,9.7-3" transform="translate(-9.79 -6.09)"/></g></g></g><g class="cls-3"><g class="cls-37"><g class="cls-3"><path class="cls-15" d="M128.86,52.3l1.74,1.75c-.06.75-.13,1.55-.22,2.39-.21,1.88-.54,4.15-1,6.75l-1.75-1.74c.44-2.6.76-4.88,1-6.76.1-.83.17-1.63.23-2.39" transform="translate(-9.79 -6.09)"/></g></g></g><polygon class="cls-5" points="117.88 55.36 119.62 57.11 81.11 57.11 79.36 55.36 117.88 55.36"/><g class="cls-3"><g class="cls-38"><g class="cls-3"><path class="cls-12" d="M120.76,82.41l1.75,1.74a48.51,48.51,0,0,1-9.71,3.06,53.81,53.81,0,0,1-10.71,1.05c-8.23,0-14.55-2-18.79-5.87l-.53-.51L81,80.13c.17.18.35.35.53.51,4.24,3.9,10.56,5.88,18.78,5.88a53.1,53.1,0,0,0,10.72-1.06,48.39,48.39,0,0,0,9.7-3" transform="translate(-9.79 -6.09)"/></g></g></g><polygon class="cls-13" points="113.32 64.04 115.07 65.79 112.72 78.06 110.98 76.32 113.32 64.04"/><g class="cls-3"><g class="cls-39"><g class="cls-3"><path class="cls-12" d="M120.76,82.41l1.75,1.74a48.51,48.51,0,0,1-9.71,3.06,53.81,53.81,0,0,1-10.71,1.05c-8.23,0-14.55-2-18.79-5.87l-.53-.51L81,80.13c.17.18.35.35.53.51,4.24,3.9,10.56,5.88,18.78,5.88a53.1,53.1,0,0,0,10.72-1.06,48.39,48.39,0,0,0,9.7-3" transform="translate(-9.79 -6.09)"/></g></g></g><path d="M123.44,33c4.34,4.14,6.54,9.69,6.53,16.5a49.79,49.79,0,0,1-.34,5.33c-.23,2-.58,4.44-1,7.23l-.07.42H90c-.06.41-.12.81-.15,1.18s-.1,1-.13,1.5c0,3.18,1,5.53,3.19,7.16s5.44,2.46,9.74,2.46a39.7,39.7,0,0,0,10.83-1.55,39.07,39.07,0,0,0,10.07-4.51l1-.62-2.86,15-.24.11a49.45,49.45,0,0,1-10.16,3.22,54.26,54.26,0,0,1-10.91,1.08c-8.47,0-15-2.06-19.46-6.15S74.19,71.24,74.2,63.43a44.18,44.18,0,0,1,2.27-14,36.62,36.62,0,0,1,6.4-11.78A29.74,29.74,0,0,1,93.2,29.55a30.23,30.23,0,0,1,12.9-2.81C113.28,26.74,119.1,28.83,123.44,33Zm5.19,21.72a48.07,48.07,0,0,0,.34-5.22c0-6.52-2.09-11.83-6.22-15.78S113,27.75,106.1,27.75A28.54,28.54,0,0,0,83.64,38.27a35.5,35.5,0,0,0-6.22,11.46,43.31,43.31,0,0,0-2.23,13.7c0,7.53,2.14,13.32,6.37,17.21s10.56,5.88,18.78,5.88a53.1,53.1,0,0,0,10.72-1.06,48.39,48.39,0,0,0,9.7-3l2.35-12.28a40.69,40.69,0,0,1-20.47,5.62c-4.52,0-8-.9-10.34-2.66s-3.59-4.49-3.59-8c0-.55.07-1.06.13-1.57s.14-1.07.23-1.67l.08-.41h38.51c.44-2.6.76-4.88,1-6.76" transform="translate(-9.79 -6.09)"/><path d="M113.43,41a9.51,9.51,0,0,1,2.74,7.16,13.1,13.1,0,0,1-.09,1.35,8.06,8.06,0,0,1-.29,1.48l-.11.36H91l.21-.66A20.16,20.16,0,0,1,97,41.47a13.69,13.69,0,0,1,9-3.11A10.33,10.33,0,0,1,113.43,41Zm1.66,8.4a11,11,0,0,0,.08-1.24,8.56,8.56,0,0,0-2.43-6.44A9.36,9.36,0,0,0,106,39.37a12.64,12.64,0,0,0-8.36,2.88,18.51,18.51,0,0,0-5.27,8.09h22.56a6.8,6.8,0,0,0,.17-1" transform="translate(-9.79 -6.09)"/><g class="cls-3"><g class="cls-40"><g class="cls-3"><path d="M123.81,33.33l1.75,1.75A20.28,20.28,0,0,1,130.77,44L129,42.26a20.34,20.34,0,0,0-5.22-8.93" transform="translate(-9.79 -6.09)"/><path d="M129,42.26,130.77,44a24.92,24.92,0,0,1,.84,4.7L129.87,47a24.81,24.81,0,0,0-.84-4.69" transform="translate(-9.79 -6.09)"/><path d="M129.87,47l1.74,1.75c.07.82.11,1.65.1,2.51s0,1.9-.12,3l-1.74-1.75c.08-1.07.12-2.07.12-3s0-1.7-.1-2.52" transform="translate(-9.79 -6.09)"/><path d="M129.85,52.44l1.74,1.75c-.05.75-.13,1.53-.22,2.36-.22,2-.58,4.43-1.05,7.23L128.58,62c.47-2.79.82-5.23,1-7.23.09-.82.16-1.61.22-2.36" transform="translate(-9.79 -6.09)"/></g></g></g><polygon points="118.79 55.95 120.54 57.69 120.46 58.1 118.72 56.36 118.79 55.95"/><polygon points="118.72 56.36 120.46 58.1 81.95 58.1 80.21 56.36 118.72 56.36"/><g class="cls-3"><g class="cls-41"><g class="cls-3"><path d="M121.41,83.22,123.16,85A49.48,49.48,0,0,1,113,88.19a55,55,0,0,1-10.92,1.08c-8.47,0-15-2.07-19.45-6.15l-.58-.55-1.74-1.75.57.55c4.43,4.09,11,6.15,19.46,6.15a54.26,54.26,0,0,0,10.91-1.08,49.45,49.45,0,0,0,10.16-3.22" transform="translate(-9.79 -6.09)"/></g></g></g><polygon points="114.73 61.98 116.47 63.73 113.6 78.77 111.86 77.02 114.73 61.98"/><polygon points="111.86 77.02 113.6 78.77 113.37 78.87 111.63 77.13 111.86 77.02"/></g><g class="cls-3"><polygon points="155.71 1 157.45 2.74 143.61 2.74 141.87 1 155.71 1"/><polygon class="cls-13" points="155.71 1 157.45 2.74 151 35.3 149.26 33.56 155.71 1"/><polygon points="156.94 0 158.68 1.75 152.93 30.72 151.19 28.97 156.94 0"/><polygon points="150.66 31.43 152.41 33.17 151 35.3 149.26 33.56 150.66 31.43"/><g class="cls-3"><g class="cls-42"><g class="cls-3"><path class="cls-12" d="M175.1,41.16l1.74,1.74a7.44,7.44,0,0,0-5.47-2.13c-3.92,0-7.34,2.31-10.17,6.87l-1.75-1.74c2.83-4.56,6.25-6.87,10.17-6.87a7.41,7.41,0,0,1,5.48,2.13" transform="translate(-9.79 -6.09)"/><path class="cls-43" d="M159.45,45.9l1.75,1.74L161,48a28.16,28.16,0,0,0-2,4l-1.74-1.75a27.13,27.13,0,0,1,2-4c.07-.13.15-.26.23-.39" transform="translate(-9.79 -6.09)"/></g></g></g><g class="cls-3"><g class="cls-44"><g class="cls-3"><path class="cls-12" d="M175.1,41.16l1.74,1.74a7.44,7.44,0,0,0-5.47-2.13c-3.92,0-7.34,2.31-10.17,6.87l-1.75-1.74c2.83-4.56,6.25-6.87,10.17-6.87a7.41,7.41,0,0,1,5.48,2.13" transform="translate(-9.79 -6.09)"/></g></g></g><g class="cls-3"><g class="cls-45"><g class="cls-3"><path class="cls-43" d="M159.45,45.9l1.75,1.74L161,48a28.16,28.16,0,0,0-2,4l-1.74-1.75a27.13,27.13,0,0,1,2-4c.07-.13.15-.26.23-.39" transform="translate(-9.79 -6.09)"/></g></g></g><g class="cls-3"><g class="cls-46"><g class="cls-3"><path class="cls-12" d="M175.1,41.16l1.74,1.74a7.44,7.44,0,0,0-5.47-2.13c-3.92,0-7.34,2.31-10.17,6.87l-1.75-1.74c2.83-4.56,6.25-6.87,10.17-6.87a7.41,7.41,0,0,1,5.48,2.13" transform="translate(-9.79 -6.09)"/></g></g></g><g class="cls-3"><g class="cls-47"><g class="cls-3"><path class="cls-43" d="M159.45,45.9l1.75,1.74L161,48a28.16,28.16,0,0,0-2,4l-1.74-1.75a27.13,27.13,0,0,1,2-4c.07-.13.15-.26.23-.39" transform="translate(-9.79 -6.09)"/><path class="cls-48" d="M157.25,50.3,159,52.05a31.14,31.14,0,0,0-1.39,4.57l-1.75-1.74a31.29,31.29,0,0,1,1.4-4.58" transform="translate(-9.79 -6.09)"/></g></g></g><g class="cls-3"><g class="cls-49"><g class="cls-3"><path class="cls-48" d="M157.25,50.3,159,52.05a31.14,31.14,0,0,0-1.39,4.57l-1.75-1.74a31.29,31.29,0,0,1,1.4-4.58" transform="translate(-9.79 -6.09)"/></g></g></g><g class="cls-3"><g class="cls-50"><g class="cls-3"><path class="cls-48" d="M157.25,50.3,159,52.05a31.14,31.14,0,0,0-1.39,4.57l-1.75-1.74a31.29,31.29,0,0,1,1.4-4.58" transform="translate(-9.79 -6.09)"/><path class="cls-15" d="M155.85,54.88l1.75,1.74a37,37,0,0,0-.81,5.52l-1.74-1.74a38,38,0,0,1,.8-5.52" transform="translate(-9.79 -6.09)"/></g></g></g><g class="cls-3"><g class="cls-51"><g class="cls-3"><path class="cls-12" d="M175.1,41.16l1.74,1.74a7.44,7.44,0,0,0-5.47-2.13c-3.92,0-7.34,2.31-10.17,6.87l-1.75-1.74c2.83-4.56,6.25-6.87,10.17-6.87a7.41,7.41,0,0,1,5.48,2.13" transform="translate(-9.79 -6.09)"/></g></g></g><g class="cls-3"><g class="cls-52"><g class="cls-3"><path class="cls-15" d="M155.85,54.88l1.75,1.74a37,37,0,0,0-.81,5.52l-1.74-1.74a38,38,0,0,1,.8-5.52" transform="translate(-9.79 -6.09)"/><path class="cls-16" d="M155.05,60.4l1.74,1.74c-.07,1-.11,2.13-.12,3.23,0,.65,0,1.27.08,1.87L155,65.5c-.06-.6-.08-1.23-.08-1.87,0-1.1,0-2.18.12-3.23" transform="translate(-9.79 -6.09)"/><path class="cls-23" d="M155,65.5l1.74,1.74a16,16,0,0,0,.55,3.1l-1.75-1.74a16,16,0,0,1-.54-3.1" transform="translate(-9.79 -6.09)"/></g></g></g><g class="cls-3"><g class="cls-53"><g class="cls-3"><path class="cls-23" d="M155,65.5l1.74,1.74a16,16,0,0,0,.55,3.1l-1.75-1.74a16,16,0,0,1-.54-3.1" transform="translate(-9.79 -6.09)"/></g></g></g><g class="cls-3"><g class="cls-54"><g class="cls-3"><path class="cls-23" d="M155,65.5l1.74,1.74a16,16,0,0,0,.55,3.1l-1.75-1.74a16,16,0,0,1-.54-3.1" transform="translate(-9.79 -6.09)"/><path class="cls-24" d="M155.55,68.6l1.75,1.74A10.75,10.75,0,0,0,159.05,74a7.3,7.3,0,0,0,.81.93l-1.75-1.74a10.75,10.75,0,0,1-.81-.94,11,11,0,0,1-1.75-3.62" transform="translate(-9.79 -6.09)"/></g></g></g><g class="cls-3"><g class="cls-55"><g class="cls-3"><path d="M174.39,41.85l1.74,1.75a6.41,6.41,0,0,0-4.77-1.83c-3.55,0-6.68,2.16-9.32,6.42l-1.75-1.75c2.64-4.26,5.78-6.42,9.33-6.42a6.45,6.45,0,0,1,4.77,1.83" transform="translate(-9.79 -6.09)"/><path d="M160.29,46.44,162,48.19l-.23.36a26.4,26.4,0,0,0-1.88,3.85l-1.75-1.74a27,27,0,0,1,1.89-3.85c.07-.13.15-.25.22-.37" transform="translate(-9.79 -6.09)"/><path d="M158.18,50.66l1.75,1.74a29.77,29.77,0,0,0-1.36,4.44l-1.74-1.74a30.21,30.21,0,0,1,1.35-4.44" transform="translate(-9.79 -6.09)"/><path d="M156.83,55.1l1.74,1.74a37.65,37.65,0,0,0-.78,5.38L156,60.47a35.94,35.94,0,0,1,.79-5.37" transform="translate(-9.79 -6.09)"/><path d="M156,60.47l1.75,1.75q-.12,1.53-.12,3.15c0,.62,0,1.21.07,1.78L156,65.41c-.05-.57-.07-1.17-.07-1.78,0-1.08,0-2.13.11-3.16" transform="translate(-9.79 -6.09)"/><path d="M156,65.41l1.74,1.74a14.92,14.92,0,0,0,.52,2.91l-1.75-1.75a15.47,15.47,0,0,1-.51-2.9" transform="translate(-9.79 -6.09)"/><path d="M156.51,68.31l1.75,1.75a9.89,9.89,0,0,0,1.59,3.31,7.64,7.64,0,0,0,.74.85l-1.75-1.75a8.77,8.77,0,0,1-.73-.85,9.81,9.81,0,0,1-1.6-3.31" transform="translate(-9.79 -6.09)"/></g></g></g><g class="cls-3"><g class="cls-56"><g class="cls-3"><path class="cls-12" d="M175.1,41.16l1.74,1.74a7.44,7.44,0,0,0-5.47-2.13c-3.92,0-7.34,2.31-10.17,6.87l-1.75-1.74c2.83-4.56,6.25-6.87,10.17-6.87a7.41,7.41,0,0,1,5.48,2.13" transform="translate(-9.79 -6.09)"/></g></g></g><g class="cls-3"><g class="cls-57"><g class="cls-3"><path class="cls-15" d="M155.85,54.88l1.75,1.74a37,37,0,0,0-.81,5.52l-1.74-1.74a38,38,0,0,1,.8-5.52" transform="translate(-9.79 -6.09)"/></g></g></g><g class="cls-3"><g class="cls-58"><g class="cls-3"><path d="M186.61,31.81l1.74,1.75a13.74,13.74,0,0,0-10.12-4A16.93,16.93,0,0,0,169.45,32a22.72,22.72,0,0,0-7.26,7.23l-1.74-1.75a22.72,22.72,0,0,1,7.26-7.23,16.92,16.92,0,0,1,8.78-2.43,13.79,13.79,0,0,1,10.12,4" transform="translate(-9.79 -6.09)"/></g></g></g><g class="cls-3"><g class="cls-59"><g class="cls-3"><path class="cls-24" d="M186.61,31.81l1.74,1.75A15.05,15.05,0,0,1,189.58,35l-1.75-1.74a13.75,13.75,0,0,0-1.22-1.4" transform="translate(-9.79 -6.09)"/></g></g></g><g class="cls-3"><g class="cls-60"><g class="cls-3"><path d="M187.31,31.11l1.75,1.74a17.22,17.22,0,0,1,1.31,1.49l-1.74-1.75a17.16,17.16,0,0,0-1.32-1.48" transform="translate(-9.79 -6.09)"/></g></g></g><polygon points="141.87 1 143.61 2.74 128.33 80.71 126.59 78.96 141.87 1"/><polygon class="cls-13" points="143.01 66.06 144.76 67.81 142.19 80.71 140.44 78.96 143.01 66.06"/><polygon points="143.01 66.06 144.76 67.81 145.18 70.63 143.44 68.88 143.01 66.06"/><g class="cls-3"><g class="cls-61"><g class="cls-3"><path class="cls-24" d="M155.55,68.6l1.75,1.74A10.75,10.75,0,0,0,159.05,74a7.3,7.3,0,0,0,.81.93l-1.75-1.74a10.75,10.75,0,0,1-.81-.94,11,11,0,0,1-1.75-3.62" transform="translate(-9.79 -6.09)"/></g></g></g><polygon class="cls-5" points="140.44 78.96 142.19 80.71 128.33 80.71 126.59 78.96 140.44 78.96"/><polygon points="141.26 79.96 143 81.71 127.12 81.71 125.38 79.96 141.26 79.96"/><polygon points="142.96 71.41 144.7 73.15 143 81.71 141.26 79.96 142.96 71.41"/><g class="cls-3"><g class="cls-62"><g class="cls-3"><path d="M153.23,75,155,76.71a18.09,18.09,0,0,0,.48,2.22l-1.75-1.74a17.1,17.1,0,0,1-.47-2.22" transform="translate(-9.79 -6.09)"/><path d="M153.7,77.19l1.75,1.74a12.93,12.93,0,0,0,3.25,5.72L157,82.9a12.82,12.82,0,0,1-3.26-5.71" transform="translate(-9.79 -6.09)"/></g></g></g><path d="M169.62,39a7.37,7.37,0,0,1,6.26,3c1.46,2,2.2,4.75,2.19,8.26,0,6.89-1.39,12.84-4.11,17.68s-6.19,7.43-10.12,7.43a7.81,7.81,0,0,1-6.54-3.22c-1.58-2.09-2.37-5-2.37-8.59,0-6.76,1.45-12.59,4.29-17.34S165.59,39,169.62,39Zm3.47,28.49c2.64-4.7,4-10.47,4-17.19,0-3.29-.66-5.87-2-7.67A6.36,6.36,0,0,0,169.62,40c-3.65,0-6.87,2.29-9.55,6.79s-4.13,10.24-4.14,16.82c0,3.39.73,6.08,2.18,8a6.74,6.74,0,0,0,5.73,2.83c3.54,0,6.66-2.33,9.25-6.93" transform="translate(-9.79 -6.09)"/><g class="cls-3"><g class="cls-63"><g class="cls-3"><path d="M175.1,41.16l1.74,1.74a7.62,7.62,0,0,1,.78.91,10.39,10.39,0,0,1,1.59,3.33l-1.75-1.75a10.12,10.12,0,0,0-1.58-3.32,8.84,8.84,0,0,0-.78-.91" transform="translate(-9.79 -6.09)"/><path d="M177.46,45.39l1.75,1.75a16.16,16.16,0,0,1,.53,3L178,48.44a16.25,16.25,0,0,0-.54-3" transform="translate(-9.79 -6.09)"/><path d="M178,48.44l1.74,1.74c0,.61.08,1.24.08,1.9,0,1.18,0,2.34-.13,3.47L178,53.81q.12-1.7.12-3.48c0-.66,0-1.29-.07-1.89" transform="translate(-9.79 -6.09)"/><path d="M178,53.81l1.74,1.74a40.13,40.13,0,0,1-.86,5.89l-1.74-1.75a41.17,41.17,0,0,0,.86-5.88" transform="translate(-9.79 -6.09)"/><path d="M177.09,59.69l1.74,1.75a32.19,32.19,0,0,1-1.46,4.79l-1.75-1.74a32.7,32.7,0,0,0,1.47-4.8" transform="translate(-9.79 -6.09)"/><path d="M175.62,64.49l1.75,1.74a28.47,28.47,0,0,1-1.67,3.52c-.18.32-.37.64-.55.94l-1.75-1.75c.19-.3.38-.61.56-.93a29.12,29.12,0,0,0,1.66-3.52" transform="translate(-9.79 -6.09)"/><path d="M173.4,68.94l1.75,1.75c-2.68,4.32-5.89,6.5-9.57,6.5a7.77,7.77,0,0,1-5.72-2.29l-1.75-1.74a7.83,7.83,0,0,0,5.73,2.28c3.67,0,6.89-2.18,9.56-6.5" transform="translate(-9.79 -6.09)"/></g></g></g><g class="cls-3"><g class="cls-64"><g class="cls-3"><path class="cls-24" d="M187.83,33.21,189.58,35a18.56,18.56,0,0,1,3.15,6.41L191,39.62a18.58,18.58,0,0,0-3.16-6.41" transform="translate(-9.79 -6.09)"/><path class="cls-23" d="M191,39.62l1.74,1.74a27.78,27.78,0,0,1,.93,5.27l-1.74-1.75a27.67,27.67,0,0,0-.93-5.26" transform="translate(-9.79 -6.09)"/><path class="cls-16" d="M191.92,44.88l1.74,1.75c.09,1,.13,2.07.13,3.16,0,1.36-.06,2.72-.16,4.08l-1.74-1.75c.1-1.36.15-2.72.15-4.07,0-1.1,0-2.15-.12-3.17" transform="translate(-9.79 -6.09)"/><path class="cls-15" d="M191.89,52.12l1.74,1.75a56.09,56.09,0,0,1-1.25,8.42l-1.74-1.74a57.74,57.74,0,0,0,1.25-8.43" transform="translate(-9.79 -6.09)"/><path class="cls-48" d="M190.64,60.55l1.74,1.74c0,.2-.09.41-.14.61A53.92,53.92,0,0,1,190,70.25l-1.74-1.74a53.63,53.63,0,0,0,2.29-7.36c.05-.2.09-.4.14-.6" transform="translate(-9.79 -6.09)"/><path class="cls-43" d="M188.21,68.51,190,70.25a46.09,46.09,0,0,1-2,4.43c-.35.64-.71,1.27-1.08,1.87l-1.74-1.75c.37-.6.73-1.22,1.07-1.87a44.65,44.65,0,0,0,2-4.42" transform="translate(-9.79 -6.09)"/><path class="cls-12" d="M185.12,74.8l1.74,1.75a27,27,0,0,1-7.61,8.15,19.17,19.17,0,0,1-11,3.56,13.23,13.23,0,0,1-9-3.05c-.2-.18-.41-.37-.6-.56L157,82.9a8.08,8.08,0,0,0,.6.57,13.27,13.27,0,0,0,8.95,3,19.16,19.16,0,0,0,11-3.57,26.94,26.94,0,0,0,7.62-8.15" transform="translate(-9.79 -6.09)"/></g></g></g><path class="cls-8" d="M187.83,33.21c2.81,3.59,4.22,8.59,4.21,14.84a57,57,0,0,1-1.54,13.1,50.3,50.3,0,0,1-4.31,11.78,27.72,27.72,0,0,1-8.69,10,19.16,19.16,0,0,1-11,3.57,13.27,13.27,0,0,1-8.95-3,13.53,13.53,0,0,1-4.33-8.5l-.43-2.82-2.57,12.9H136.38l15.27-78H165.5L159,39.65l1.41-2.14a22.72,22.72,0,0,1,7.26-7.23,16.92,16.92,0,0,1,8.78-2.43A13.63,13.63,0,0,1,187.83,33.21ZM174,68c2.72-4.84,4.1-10.79,4.11-17.68,0-3.51-.73-6.29-2.19-8.26a7.37,7.37,0,0,0-6.26-3c-4,0-7.53,2.44-10.4,7.26s-4.28,10.58-4.29,17.34c0,3.61.79,6.5,2.37,8.59a7.81,7.81,0,0,0,6.54,3.22c3.93,0,7.33-2.5,10.12-7.43" transform="translate(-9.79 -6.09)"/><path d="M188.63,32.59c2.93,3.78,4.42,9,4.41,15.46a58.09,58.09,0,0,1-1.57,13.34,51.25,51.25,0,0,1-4.4,12,28.79,28.79,0,0,1-9,10.38,20.2,20.2,0,0,1-11.56,3.74,14.15,14.15,0,0,1-9.6-3.3,13.59,13.59,0,0,1-4.16-6.72L151,86.05H135.16l15.67-80h15.89l-5.75,29a22.52,22.52,0,0,1,6.23-5.63,17.84,17.84,0,0,1,9.29-2.58A14.68,14.68,0,0,1,188.63,32.59Zm1.87,28.56A57,57,0,0,0,192,48.05c0-6.25-1.4-11.25-4.21-14.84a13.63,13.63,0,0,0-11.34-5.36,16.92,16.92,0,0,0-8.78,2.43,22.72,22.72,0,0,0-7.26,7.23L159,39.65,165.5,7.09H151.65l-15.27,78h13.85l2.57-12.9.43,2.82a13.53,13.53,0,0,0,4.33,8.5,13.27,13.27,0,0,0,8.95,3,19.16,19.16,0,0,0,11-3.57,27.72,27.72,0,0,0,8.69-10,50.3,50.3,0,0,0,4.31-11.78" transform="translate(-9.79 -6.09)"/><g class="cls-3"><g class="cls-65"><g class="cls-3"><path d="M188.63,32.59l1.74,1.75a19.73,19.73,0,0,1,3.32,6.75L192,39.34a19.82,19.82,0,0,0-3.32-6.75" transform="translate(-9.79 -6.09)"/><path d="M192,39.34l1.74,1.75a29,29,0,0,1,1,5.46l-1.75-1.75a29,29,0,0,0-1-5.46" transform="translate(-9.79 -6.09)"/><path d="M192.91,44.8l1.75,1.75c.08,1,.13,2.12.13,3.24,0,1.38-.06,2.76-.16,4.14l-1.74-1.74q.15-2.07.15-4.14c0-1.12,0-2.21-.13-3.25" transform="translate(-9.79 -6.09)"/><path d="M192.89,52.19l1.74,1.74a58.52,58.52,0,0,1-1.28,8.6l-1.74-1.75a58.39,58.39,0,0,0,1.28-8.59" transform="translate(-9.79 -6.09)"/><path d="M191.61,60.78l1.74,1.75c0,.2-.09.4-.14.6a55.39,55.39,0,0,1-2.32,7.48l-1.75-1.75a54.29,54.29,0,0,0,2.33-7.47c.05-.21.09-.41.14-.61" transform="translate(-9.79 -6.09)"/><path d="M189.14,68.86l1.75,1.75a49.64,49.64,0,0,1-2.07,4.54q-.54,1-1.11,1.92L186,75.33c.39-.62.76-1.26,1.11-1.93a44.78,44.78,0,0,0,2.07-4.54" transform="translate(-9.79 -6.09)"/><path d="M186,75.33l1.75,1.74a28,28,0,0,1-7.9,8.46,20.2,20.2,0,0,1-11.55,3.74,14.18,14.18,0,0,1-9.6-3.3c-.24-.21-.47-.42-.68-.63l-1.75-1.75c.22.22.45.43.68.63a14.15,14.15,0,0,0,9.6,3.3,20.2,20.2,0,0,0,11.56-3.74A27.91,27.91,0,0,0,186,75.33" transform="translate(-9.79 -6.09)"/></g></g></g></g><g class="cls-3"><polygon points="223.15 4.2 224.89 5.95 203.99 5.95 202.24 4.2 223.15 4.2"/><polygon class="cls-5" points="220.44 15.79 222.19 17.53 215.64 17.53 213.9 15.79 220.44 15.79"/><polygon class="cls-13" points="213.9 15.79 215.64 17.53 211.15 40.75 209.41 39.01 213.9 15.79"/><polygon points="220.44 16.78 222.19 18.53 216.46 18.53 214.71 16.78 220.44 16.78"/><g class="cls-3"><g class="cls-66"><g class="cls-3"><path class="cls-12" d="M240.19,24.51l1.75,1.75a5.64,5.64,0,0,0-.69-.59c-1.87-1.39-4.9-2.05-9.28-2.05l-1.74-1.75c4.38,0,7.41.67,9.28,2.05a6.39,6.39,0,0,1,.68.59" transform="translate(-9.79 -6.09)"/></g></g></g><polygon points="214.71 16.78 216.46 18.53 212.37 39.76 210.62 38.01 214.71 16.78"/><g class="cls-3"><g class="cls-67"><g class="cls-3"><path d="M239.48,25.21,241.22,27a4.37,4.37,0,0,0-.56-.49c-1.66-1.23-4.59-1.85-8.69-1.85l-1.74-1.75c4.1,0,7,.62,8.68,1.85a5.27,5.27,0,0,1,.57.49" transform="translate(-9.79 -6.09)"/></g></g></g><g class="cls-3"><g class="cls-68"><g class="cls-3"><path class="cls-12" d="M240.19,24.51l1.75,1.75a5.64,5.64,0,0,0-.69-.59c-1.87-1.39-4.9-2.05-9.28-2.05l-1.74-1.75c4.38,0,7.41.67,9.28,2.05a6.39,6.39,0,0,1,.68.59" transform="translate(-9.79 -6.09)"/></g></g></g><g class="cls-3"><g class="cls-69"><g class="cls-3"><path d="M252.58,16.3,254.32,18a15,15,0,0,0-1.7-1.46c-4.07-3-10.11-4.55-17.94-4.55l-1.75-1.74c7.84,0,13.88,1.53,17.94,4.54a15.33,15.33,0,0,1,1.71,1.47" transform="translate(-9.79 -6.09)"/></g></g></g><polygon points="217.27 39.01 219.01 40.75 211.15 40.75 209.41 39.01 217.27 39.01"/><g class="cls-3"><g class="cls-70"><g class="cls-3"><path d="M240.19,24.51l1.75,1.75a6.91,6.91,0,0,1,1.73,3.07l-1.74-1.74a6.87,6.87,0,0,0-1.74-3.08" transform="translate(-9.79 -6.09)"/><path d="M241.93,27.59l1.74,1.74A10.6,10.6,0,0,1,244,31.4l-1.75-1.75a10.64,10.64,0,0,0-.36-2.06" transform="translate(-9.79 -6.09)"/><path d="M242.29,29.65,244,31.4c0,.39.05.81.05,1.24s0,1.14-.06,1.68l-1.75-1.74c0-.55.06-1.11.06-1.69s0-.84-.05-1.24" transform="translate(-9.79 -6.09)"/><path d="M242.28,32.58,244,34.32a18.65,18.65,0,0,1-.4,2.73l-1.74-1.74a19.08,19.08,0,0,0,.39-2.73" transform="translate(-9.79 -6.09)"/><path d="M241.89,35.31l1.74,1.74a13.91,13.91,0,0,1-.65,2.13l-1.74-1.75a14.59,14.59,0,0,0,.65-2.12" transform="translate(-9.79 -6.09)"/><path d="M241.24,37.43,243,39.18a11.87,11.87,0,0,1-1,1.92l-1.74-1.74a12,12,0,0,0,1-1.93" transform="translate(-9.79 -6.09)"/><path d="M240.28,39.36,242,41.1a10.21,10.21,0,0,1-1.79,2.18c-2.54,2.37-6.39,3.56-11.43,3.56l-1.75-1.74c5,0,8.9-1.2,11.44-3.57a10.46,10.46,0,0,0,1.79-2.17" transform="translate(-9.79 -6.09)"/></g></g></g><path d="M239.51,23.92c1.88,1.4,2.84,3.75,2.83,7,0,4.7-1.3,8.28-3.85,10.64s-6.39,3.57-11.44,3.57h-7.86l4.49-23.23h6.55C234.61,21.87,237.64,22.54,239.51,23.92Zm-1.7,16.89c2.34-2.18,3.53-5.51,3.53-9.92,0-2.89-.82-5-2.43-6.17s-4.58-1.85-8.68-1.85H224.5L220.41,44.1h6.64c4.79,0,8.41-1.11,10.76-3.29" transform="translate(-9.79 -6.09)"/><polygon class="cls-5" points="215.83 50.59 217.58 52.34 208.84 52.34 207.1 50.59 215.83 50.59"/><polygon points="202.24 4.2 203.99 5.95 189.33 80.71 187.58 78.96 202.24 4.2"/><polygon class="cls-13" points="207.1 50.59 208.84 52.34 203.28 80.71 201.53 78.96 207.1 50.59"/><polygon points="215.83 51.59 217.57 53.34 209.67 53.34 207.93 51.59 215.83 51.59"/><g class="cls-3"><g class="cls-71"><g class="cls-3"><path class="cls-24" d="M252.58,16.3,254.32,18A14.29,14.29,0,0,1,258,24.33l-1.75-1.74a14.37,14.37,0,0,0-3.65-6.29" transform="translate(-9.79 -6.09)"/><path class="cls-23" d="M256.23,22.59,258,24.33a18.78,18.78,0,0,1,.61,3.46l-1.74-1.74a17.83,17.83,0,0,0-.62-3.46" transform="translate(-9.79 -6.09)"/><path class="cls-16" d="M256.85,26.05l1.74,1.74c.06.62.08,1.26.08,1.91q0,1.26-.09,2.52l-1.75-1.75c.06-.84.1-1.68.1-2.52,0-.65,0-1.28-.08-1.9" transform="translate(-9.79 -6.09)"/><path class="cls-15" d="M256.83,30.47l1.75,1.75a35.85,35.85,0,0,1-.8,5.31L256,35.78a35.63,35.63,0,0,0,.79-5.31" transform="translate(-9.79 -6.09)"/><path class="cls-48" d="M256,35.78l1.74,1.75a35.92,35.92,0,0,1-1,3.48c-.23.7-.47,1.38-.72,2l-1.75-1.75c.26-.65.5-1.32.73-2,.38-1.16.7-2.32,1-3.49" transform="translate(-9.79 -6.09)"/></g></g></g><g class="cls-3"><g class="cls-72"><g class="cls-3"><path class="cls-48" d="M256,35.78l1.74,1.75a35.92,35.92,0,0,1-1,3.48c-.23.7-.47,1.38-.72,2l-1.75-1.75c.26-.65.5-1.32.73-2,.38-1.16.7-2.32,1-3.49" transform="translate(-9.79 -6.09)"/></g></g></g><polygon class="cls-5" points="201.53 78.96 203.28 80.71 189.33 80.71 187.58 78.96 201.53 78.96"/><polygon points="202.36 79.96 204.1 81.71 188.11 81.71 186.37 79.96 202.36 79.96"/><polygon points="207.93 51.59 209.67 53.34 204.1 81.71 202.36 79.96 207.93 51.59"/><g class="cls-3"><g class="cls-73"><g class="cls-3"><path class="cls-48" d="M256,35.78l1.74,1.75a35.92,35.92,0,0,1-1,3.48c-.23.7-.47,1.38-.72,2l-1.75-1.75c.26-.65.5-1.32.73-2,.38-1.16.7-2.32,1-3.49" transform="translate(-9.79 -6.09)"/><path class="cls-43" d="M254.35,41.29,256.1,43A27.3,27.3,0,0,1,254,47.37l-1.74-1.74a27,27,0,0,0,2.14-4.34" transform="translate(-9.79 -6.09)"/><path class="cls-12" d="M252.21,45.63,254,47.37a18.12,18.12,0,0,1-1.83,2.5,22.22,22.22,0,0,1-9.64,6.53c-3.86,1.34-8.94,2-15.12,2l-1.74-1.75c6.18,0,11.26-.68,15.11-2a22.19,22.19,0,0,0,9.64-6.53,18.79,18.79,0,0,0,1.84-2.5" transform="translate(-9.79 -6.09)"/></g></g></g><path d="M251.48,14c4.28,3.17,6.45,7.86,6.45,13.92A37.3,37.3,0,0,1,256,39.57a26,26,0,0,1-4.9,9.21,23.07,23.07,0,0,1-10.07,6.82c-4,1.38-9.16,2.08-15.44,2.08h-7.91l-5.57,28.37h-16l.12-.59L211.21,9.29h21.72C241,9.29,247.22,10.88,251.48,14Zm3.6,25.24A36.65,36.65,0,0,0,256.93,28c0-5.73-2-10.13-6.06-13.12s-10.1-4.54-17.94-4.54H212L197.37,85.05h13.95l5.56-28.37h8.74c6.18,0,11.26-.68,15.11-2a22.19,22.19,0,0,0,9.64-6.53,25.31,25.31,0,0,0,4.71-8.86" transform="translate(-9.79 -6.09)"/><path class="cls-8" d="M250.87,14.83c4,3,6.06,7.39,6.06,13.12a36.65,36.65,0,0,1-1.85,11.32,25.31,25.31,0,0,1-4.71,8.86,22.19,22.19,0,0,1-9.64,6.53c-3.85,1.34-8.93,2-15.11,2h-8.74l-5.56,28.37H197.37L212,10.29h20.9C240.77,10.29,246.81,11.82,250.87,14.83Zm-12.38,26.7c2.55-2.36,3.85-5.94,3.85-10.64,0-3.22-1-5.57-2.83-7s-4.9-2.05-9.28-2.05h-6.55L219.19,45.1h7.86c5,0,8.9-1.2,11.44-3.57" transform="translate(-9.79 -6.09)"/><g class="cls-3"><g class="cls-74"><g class="cls-3"><path d="M253.3,15.6l1.75,1.75A15.23,15.23,0,0,1,258.93,24l-1.74-1.74a15.19,15.19,0,0,0-3.89-6.69" transform="translate(-9.79 -6.09)"/><path d="M257.19,22.29,258.93,24a19.14,19.14,0,0,1,.66,3.66L257.84,26a18.4,18.4,0,0,0-.65-3.66" transform="translate(-9.79 -6.09)"/><path d="M257.84,26l1.75,1.74c.05.65.08,1.32.08,2,0,.87,0,1.74-.1,2.61l-1.74-1.74c.06-.87.09-1.75.1-2.62,0-.68,0-1.35-.09-2" transform="translate(-9.79 -6.09)"/><path d="M257.83,30.57l1.74,1.74a36.4,36.4,0,0,1-.81,5.45L257,36a39,39,0,0,0,.81-5.44" transform="translate(-9.79 -6.09)"/><path d="M257,36l1.74,1.75c-.27,1.19-.6,2.38-1,3.56-.24.72-.49,1.41-.75,2.08l-1.75-1.74c.27-.67.52-1.36.75-2.09.39-1.18.72-2.37,1-3.56" transform="translate(-9.79 -6.09)"/><path d="M255.28,41.66,257,43.4a27.86,27.86,0,0,1-2.23,4.51l-1.74-1.75a28.58,28.58,0,0,0,2.22-4.5" transform="translate(-9.79 -6.09)"/><path d="M253.06,46.16l1.74,1.75a19.72,19.72,0,0,1-1.93,2.62,23.13,23.13,0,0,1-10.06,6.82,48.36,48.36,0,0,1-15.45,2.08l-1.74-1.75c6.28,0,11.48-.7,15.44-2.08a23.07,23.07,0,0,0,10.07-6.82,20,20,0,0,0,1.93-2.62" transform="translate(-9.79 -6.09)"/></g></g></g></g><g class="cls-3"><polygon points="285.72 4.2 287.47 5.95 266.56 5.95 264.82 4.2 285.72 4.2"/><polygon class="cls-5" points="283.02 15.79 284.76 17.53 278.21 17.53 276.46 15.79 283.02 15.79"/><polygon class="cls-13" points="276.46 15.79 278.21 17.53 273.73 40.75 271.98 39.01 276.46 15.79"/><polygon points="283.02 16.78 284.76 18.53 279.03 18.53 277.29 16.78 283.02 16.78"/><polygon points="277.29 16.78 279.03 18.53 274.93 39.76 273.19 38.01 277.29 16.78"/><g class="cls-3"><g class="cls-75"><g class="cls-3"><path class="cls-12" d="M302.77,24.52l1.74,1.75a5,5,0,0,0-.69-.6c-1.86-1.39-4.9-2.05-9.27-2.05l-1.75-1.75c4.38,0,7.42.67,9.28,2.05q.36.28.69.6" transform="translate(-9.79 -6.09)"/></g></g></g><g class="cls-3"><g class="cls-76"><g class="cls-3"><path d="M302.05,25.22,303.8,27a4.55,4.55,0,0,0-.58-.49c-1.66-1.23-4.58-1.85-8.67-1.85l-1.75-1.75c4.1,0,7,.62,8.68,1.85a5.37,5.37,0,0,1,.57.5" transform="translate(-9.79 -6.09)"/></g></g></g><g class="cls-3"><g class="cls-77"><g class="cls-3"><path d="M315.14,16.29,316.88,18a15,15,0,0,0-1.69-1.45c-4.07-3-10.1-4.55-17.94-4.55l-1.74-1.74c7.83,0,13.87,1.53,17.94,4.54a14.89,14.89,0,0,1,1.69,1.46" transform="translate(-9.79 -6.09)"/></g></g></g><polygon points="279.84 39.01 281.59 40.75 273.73 40.75 271.98 39.01 279.84 39.01"/><g class="cls-3"><g class="cls-78"><g class="cls-3"><path d="M302.77,24.52l1.74,1.75a6.84,6.84,0,0,1,1.73,3.05l-1.74-1.74a7,7,0,0,0-1.73-3.06" transform="translate(-9.79 -6.09)"/><path d="M304.5,27.58l1.74,1.74a10.75,10.75,0,0,1,.36,2.07l-1.74-1.75a10.64,10.64,0,0,0-.36-2.06" transform="translate(-9.79 -6.09)"/><path d="M304.86,29.64l1.74,1.75c0,.4,0,.82,0,1.25s0,1.14-.06,1.68l-1.74-1.74c0-.55.06-1.11.06-1.69s0-.85-.05-1.25" transform="translate(-9.79 -6.09)"/><path d="M304.85,32.58l1.74,1.74a18.68,18.68,0,0,1-.39,2.73l-1.75-1.74a17.75,17.75,0,0,0,.4-2.73" transform="translate(-9.79 -6.09)"/><path d="M304.45,35.31l1.75,1.74a15.12,15.12,0,0,1-.65,2.13l-1.74-1.75a14.59,14.59,0,0,0,.64-2.12" transform="translate(-9.79 -6.09)"/><path d="M303.81,37.43l1.74,1.75a11.87,11.87,0,0,1-1,1.92l-1.75-1.74a12,12,0,0,0,1-1.93" transform="translate(-9.79 -6.09)"/><path d="M302.84,39.36l1.75,1.74a10.52,10.52,0,0,1-1.79,2.18c-2.54,2.37-6.38,3.56-11.43,3.56l-1.74-1.74c5,0,8.89-1.2,11.43-3.57a10.41,10.41,0,0,0,1.78-2.17" transform="translate(-9.79 -6.09)"/></g></g></g><polygon points="264.82 4.2 266.56 5.95 251.9 80.71 250.16 78.96 264.82 4.2"/><g class="cls-3"><g class="cls-79"><g class="cls-3"><path class="cls-48" d="M318.6,35.82l1.75,1.74c-.26,1.16-.58,2.31-1,3.45-.23.69-.47,1.36-.72,2l-1.75-1.75c.26-.64.5-1.3.72-2a35.3,35.3,0,0,0,1-3.45" transform="translate(-9.79 -6.09)"/><path class="cls-43" d="M316.93,41.26,318.68,43a27.67,27.67,0,0,1-2.15,4.36l-1.75-1.74a26.15,26.15,0,0,0,2.15-4.37" transform="translate(-9.79 -6.09)"/><path class="cls-12" d="M314.78,45.63l1.75,1.74a18.2,18.2,0,0,1-1.85,2.5,22.07,22.07,0,0,1-9.63,6.53,47.17,47.17,0,0,1-15.11,2l-1.75-1.75c6.17,0,11.26-.68,15.12-2a22.22,22.22,0,0,0,9.63-6.53,18.79,18.79,0,0,0,1.84-2.5" transform="translate(-9.79 -6.09)"/></g></g></g><path class="cls-8" d="M313.45,14.83c4,3,6.05,7.39,6,13.12a36.34,36.34,0,0,1-1.84,11.32,25.31,25.31,0,0,1-4.71,8.86,22.22,22.22,0,0,1-9.63,6.53c-3.86,1.34-8.95,2-15.12,2h-8.73l-5.57,28.37H259.94L274.6,10.29h20.91C303.34,10.29,309.38,11.82,313.45,14.83Zm-12.39,26.7c2.54-2.36,3.84-5.94,3.85-10.64,0-3.22-1-5.57-2.83-7s-4.9-2.05-9.28-2.05h-6.55L281.77,45.1h7.86c5,0,8.89-1.2,11.43-3.57" transform="translate(-9.79 -6.09)"/><path d="M302.08,23.92c1.88,1.4,2.83,3.75,2.83,7,0,4.7-1.31,8.28-3.85,10.64s-6.39,3.57-11.43,3.57h-7.86l4.48-23.23h6.55C297.18,21.87,300.22,22.54,302.08,23.92Zm-1.7,16.89c2.33-2.18,3.53-5.51,3.53-9.92,0-2.89-.81-5-2.43-6.17s-4.58-1.85-8.68-1.85h-5.73L283,44.1h6.66c4.78,0,8.4-1.11,10.75-3.29" transform="translate(-9.79 -6.09)"/><polygon class="cls-5" points="278.41 50.59 280.15 52.34 271.42 52.34 269.67 50.59 278.41 50.59"/><polygon class="cls-13" points="269.67 50.59 271.42 52.34 265.85 80.71 264.11 78.96 269.67 50.59"/><polygon points="278.41 51.59 280.15 53.34 272.24 53.34 270.49 51.59 278.41 51.59"/><g class="cls-3"><g class="cls-80"><g class="cls-3"><path class="cls-24" d="M315.14,16.29,316.88,18a14.27,14.27,0,0,1,3.66,6.3l-1.74-1.75a14.29,14.29,0,0,0-3.66-6.29" transform="translate(-9.79 -6.09)"/><path class="cls-23" d="M318.8,22.58l1.74,1.75a17.83,17.83,0,0,1,.62,3.46l-1.74-1.74a18.73,18.73,0,0,0-.62-3.47" transform="translate(-9.79 -6.09)"/><path class="cls-16" d="M319.42,26.05l1.74,1.74c0,.62.08,1.26.08,1.91,0,.85,0,1.7-.1,2.55L319.4,30.5q.09-1.28.09-2.55c0-.65,0-1.28-.07-1.9" transform="translate(-9.79 -6.09)"/><path class="cls-15" d="M319.4,30.5l1.74,1.75a35.82,35.82,0,0,1-.79,5.31l-1.75-1.74a36,36,0,0,0,.8-5.32" transform="translate(-9.79 -6.09)"/><path class="cls-48" d="M318.6,35.82l1.75,1.74c-.26,1.16-.58,2.31-1,3.45-.23.69-.47,1.36-.72,2l-1.75-1.75c.26-.64.5-1.3.72-2a35.3,35.3,0,0,0,1-3.45" transform="translate(-9.79 -6.09)"/></g></g></g><polygon class="cls-5" points="264.11 78.96 265.85 80.71 251.9 80.71 250.16 78.96 264.11 78.96"/><polygon points="264.93 79.96 266.67 81.71 250.69 81.71 248.94 79.96 264.93 79.96"/><polygon points="270.49 51.59 272.24 53.34 266.67 81.71 264.93 79.96 270.49 51.59"/><path d="M314,14c4.29,3.17,6.46,7.86,6.45,13.92a37.29,37.29,0,0,1-1.89,11.62,26.21,26.21,0,0,1-4.91,9.21,23,23,0,0,1-10.06,6.82c-4,1.38-9.15,2.08-15.44,2.08h-7.91l-5.57,28.37h-16l.11-.59L273.78,9.29h21.73C303.56,9.29,309.8,10.88,314,14Zm3.61,25.24A36.34,36.34,0,0,0,319.49,28c0-5.73-2-10.13-6-13.12s-10.11-4.54-17.94-4.54H274.6L259.94,85.05h13.95l5.57-28.37h8.73c6.17,0,11.26-.68,15.12-2a22.22,22.22,0,0,0,9.63-6.53,25.31,25.31,0,0,0,4.71-8.86" transform="translate(-9.79 -6.09)"/><g class="cls-3"><g class="cls-81"><g class="cls-3"><path d="M315.87,15.6l1.74,1.75A15.15,15.15,0,0,1,321.5,24l-1.74-1.74a15.19,15.19,0,0,0-3.89-6.69" transform="translate(-9.79 -6.09)"/><path d="M319.76,22.29,321.5,24a18.4,18.4,0,0,1,.65,3.66L320.41,26a20,20,0,0,0-.65-3.66" transform="translate(-9.79 -6.09)"/><path d="M320.41,26l1.74,1.74q.09,1,.09,2c0,.87,0,1.74-.1,2.61l-1.75-1.74c.07-.87.1-1.75.1-2.62,0-.68,0-1.35-.08-2" transform="translate(-9.79 -6.09)"/><path d="M320.39,30.57l1.75,1.74a39.17,39.17,0,0,1-.81,5.45L319.58,36a36.27,36.27,0,0,0,.81-5.44" transform="translate(-9.79 -6.09)"/><path d="M319.58,36l1.75,1.75c-.27,1.19-.6,2.38-1,3.56-.23.72-.48,1.41-.75,2.08l-1.74-1.74c.26-.67.51-1.36.75-2.09.38-1.18.71-2.37,1-3.56" transform="translate(-9.79 -6.09)"/><path d="M317.85,41.66l1.74,1.74a28.7,28.7,0,0,1-2.22,4.51l-1.75-1.75a27.75,27.75,0,0,0,2.23-4.5" transform="translate(-9.79 -6.09)"/><path d="M315.62,46.16l1.75,1.75a20.64,20.64,0,0,1-1.93,2.62,23.16,23.16,0,0,1-10.07,6.82,48.27,48.27,0,0,1-15.43,2.08l-1.75-1.75c6.29,0,11.48-.7,15.44-2.08a23,23,0,0,0,10.06-6.82,19.09,19.09,0,0,0,1.93-2.62" transform="translate(-9.79 -6.09)"/></g></g></g></g><g class="cls-3"><g class="cls-3"><g class="cls-82"><g class="cls-3"><path class="cls-12" d="M344.66,60.46l1.74,1.74a18.76,18.76,0,0,1-8.09-4.37l-1.75-1.74a18.91,18.91,0,0,0,8.1,4.37" transform="translate(-9.79 -6.09)"/></g></g></g><g class="cls-3"><g class="cls-83"><g class="cls-3"><path d="M344.38,61.42l1.75,1.75a19.83,19.83,0,0,1-8.53-4.63l-1.74-1.75a19.63,19.63,0,0,0,8.52,4.63" transform="translate(-9.79 -6.09)"/></g></g></g><g class="cls-3"><g class="cls-84"><g class="cls-3"><path d="M376.1,30.82l1.74,1.75a61.7,61.7,0,0,0-8.89-2.2,56.93,56.93,0,0,0-9.36-.78c-7.49,0-13.58,1.73-18.07,5.15a17.46,17.46,0,0,0-4.35,4.69l-1.75-1.74a17.55,17.55,0,0,1,4.36-4.7c4.49-3.42,10.57-5.14,18.07-5.14a56.93,56.93,0,0,1,9.36.78,60.37,60.37,0,0,1,8.89,2.19" transform="translate(-9.79 -6.09)"/><path d="M335.42,37.69l1.75,1.74a14.63,14.63,0,0,0-1.24,2.47l-1.75-1.75a15.32,15.32,0,0,1,1.24-2.46" transform="translate(-9.79 -6.09)"/><path d="M334.18,40.15l1.75,1.75a14.74,14.74,0,0,0-.71,2.31l-1.75-1.75a16.68,16.68,0,0,1,.71-2.31" transform="translate(-9.79 -6.09)"/><path d="M333.47,42.46l1.75,1.75a15.89,15.89,0,0,0-.37,2.53L333.1,45a18.79,18.79,0,0,1,.37-2.53" transform="translate(-9.79 -6.09)"/><path d="M333.1,45l1.75,1.75c0,.45-.05.91-.05,1.38s0,1.13.06,1.68l-1.74-1.75c-.05-.54-.07-1.1-.07-1.68s0-.92.05-1.38" transform="translate(-9.79 -6.09)"/><path d="M333.12,48.05l1.74,1.75a16,16,0,0,0,.53,3L333.65,51a16.09,16.09,0,0,1-.53-3" transform="translate(-9.79 -6.09)"/><path d="M333.65,51l1.74,1.74A11.68,11.68,0,0,0,337.56,57a8.28,8.28,0,0,0,.75.82l-1.75-1.74c-.26-.27-.51-.54-.74-.82A11.52,11.52,0,0,1,333.65,51" transform="translate(-9.79 -6.09)"/></g></g></g><g class="cls-3"><g class="cls-85"><g class="cls-3"><path d="M356.51,51.93l1.75,1.75c-4.46-1.29-7.26-2.39-8.56-3.36a6.4,6.4,0,0,1-.62-.53l-1.74-1.74a8,8,0,0,0,.61.53c1.31,1,4.1,2.07,8.56,3.35" transform="translate(-9.79 -6.09)"/></g></g></g><polygon points="318.82 65.2 320.56 66.95 318.19 78.8 316.45 77.06 318.82 65.2"/><polygon points="315.71 77.85 317.45 79.59 317.04 79.45 315.3 77.7 315.71 77.85"/><polygon class="cls-5" points="339.32 55.59 341.06 57.33 336.61 56.12 334.87 54.37 339.32 55.59"/><polygon points="339.05 56.55 340.79 58.29 336.34 57.08 334.6 55.33 339.05 56.55"/><polygon points="350.49 46.91 352.23 48.65 348.47 47.59 346.73 45.84 350.49 46.91"/><g class="cls-3"><g class="cls-86"><g class="cls-3"><path class="cls-12" d="M373.78,42.53l1.74,1.75a29.8,29.8,0,0,0-7.72-3.69,31.09,31.09,0,0,0-9.28-1.39,14.55,14.55,0,0,0-7.84,1.85,6.84,6.84,0,0,0-2.18,2.13l-1.75-1.74a6.9,6.9,0,0,1,2.19-2.14,14.52,14.52,0,0,1,7.83-1.85,31,31,0,0,1,9.28,1.4,29.51,29.51,0,0,1,7.73,3.68" transform="translate(-9.79 -6.09)"/><path class="cls-43" d="M346.75,41.44l1.75,1.74a5,5,0,0,0-.45.89l-1.74-1.75a6,6,0,0,1,.44-.88" transform="translate(-9.79 -6.09)"/><path class="cls-48" d="M346.31,42.32l1.74,1.75a5.44,5.44,0,0,0-.25.81l-1.75-1.74a6,6,0,0,1,.26-.82" transform="translate(-9.79 -6.09)"/><path class="cls-15" d="M346.05,43.14l1.75,1.74a5.16,5.16,0,0,0-.13.89L345.93,44a6.22,6.22,0,0,1,.12-.88" transform="translate(-9.79 -6.09)"/><path class="cls-16" d="M345.93,44l1.74,1.75c0,.15,0,.31,0,.47s0,.33,0,.5L345.93,45a4.1,4.1,0,0,1,0-.5,3.7,3.7,0,0,1,0-.47" transform="translate(-9.79 -6.09)"/><path class="cls-23" d="M345.93,45l1.74,1.75a5.19,5.19,0,0,0,.18,1L346.1,46a6,6,0,0,1-.17-1" transform="translate(-9.79 -6.09)"/><path class="cls-24" d="M346.1,46l1.75,1.75a4.73,4.73,0,0,0,1.23,2.08l-1.74-1.74A4.82,4.82,0,0,1,346.1,46" transform="translate(-9.79 -6.09)"/></g></g></g><polygon class="cls-13" points="366.31 24.73 368.06 26.48 365.73 38.19 363.99 36.45 366.31 24.73"/><g class="cls-3"><g class="cls-87"><g class="cls-3"><path d="M373.83,43.78l1.74,1.75a28.4,28.4,0,0,0-8.07-4,30.11,30.11,0,0,0-9-1.35,13.64,13.64,0,0,0-7.3,1.7,5.91,5.91,0,0,0-1.87,1.81L347.61,42a5.66,5.66,0,0,1,1.86-1.81,13.67,13.67,0,0,1,7.3-1.7,30.12,30.12,0,0,1,9,1.35,28.77,28.77,0,0,1,8.07,4" transform="translate(-9.79 -6.09)"/><path d="M347.61,42l1.74,1.74a4.84,4.84,0,0,0-.36.72l-1.75-1.74a4.08,4.08,0,0,1,.37-.72" transform="translate(-9.79 -6.09)"/><path d="M347.24,42.68,349,44.42a4,4,0,0,0-.21.67L347,43.35a4.73,4.73,0,0,1,.2-.67" transform="translate(-9.79 -6.09)"/><path d="M347,43.35l1.74,1.74a6,6,0,0,0-.11.74l-1.74-1.74a4.4,4.4,0,0,1,.11-.74" transform="translate(-9.79 -6.09)"/><path d="M346.93,44.09l1.74,1.74c0,.14,0,.27,0,.41a2.75,2.75,0,0,0,0,.41l-1.75-1.74c0-.14,0-.27,0-.42s0-.27,0-.4" transform="translate(-9.79 -6.09)"/><path d="M346.93,44.91l1.75,1.74a4,4,0,0,0,.14.79l-1.75-1.74a4.08,4.08,0,0,1-.14-.79" transform="translate(-9.79 -6.09)"/><path d="M347.07,45.7l1.75,1.74a3.69,3.69,0,0,0,1,1.65l-1.75-1.75a3.85,3.85,0,0,1-1-1.64" transform="translate(-9.79 -6.09)"/></g></g></g><polygon points="364.67 38.15 366.42 39.89 365.79 39.44 364.04 37.7 364.67 38.15"/><polygon points="367.46 24.07 369.2 25.81 366.42 39.89 364.67 38.15 367.46 24.07"/><g class="cls-3"><g class="cls-88"><g class="cls-3"><path class="cls-12" d="M357.88,65.34l1.74,1.74a3.45,3.45,0,0,0-.28-.26c-1.1-.94-3.87-2-8.49-3.4l-1.74-1.75c4.62,1.36,7.39,2.47,8.48,3.4l.29.27" transform="translate(-9.79 -6.09)"/></g></g></g><g class="cls-3"><g class="cls-89"><g class="cls-3"><path d="M357.19,66.07l1.75,1.74-.25-.23c-1-.83-3.7-1.9-8.11-3.2l-1.74-1.74c4.4,1.29,7.13,2.36,8.1,3.2a2.73,2.73,0,0,1,.25.23" transform="translate(-9.79 -6.09)"/></g></g></g><g class="cls-3"><g class="cls-90"><g class="cls-3"><path d="M368.87,57.57l1.74,1.74a19.78,19.78,0,0,0-8.6-4.57L360.27,53a19.74,19.74,0,0,1,8.6,4.58" transform="translate(-9.79 -6.09)"/></g></g></g><g class="cls-3"><g class="cls-91"><g class="cls-3"><path d="M357.88,65.34l1.74,1.74a4.77,4.77,0,0,1,1.22,2.08l-1.75-1.74a4.6,4.6,0,0,0-1.21-2.08" transform="translate(-9.79 -6.09)"/><path d="M359.09,67.42l1.75,1.74a6.48,6.48,0,0,1,.2,1.1l-1.75-1.74a5.37,5.37,0,0,0-.2-1.1" transform="translate(-9.79 -6.09)"/><path d="M359.29,68.52,361,70.26c0,.2,0,.39,0,.6s0,.36,0,.54l-1.74-1.75c0-.18,0-.36,0-.54a5.68,5.68,0,0,0,0-.59" transform="translate(-9.79 -6.09)"/><path d="M359.3,69.65,361,71.4a6.38,6.38,0,0,1-.15,1l-1.74-1.75a7.86,7.86,0,0,0,.15-1" transform="translate(-9.79 -6.09)"/><path d="M359.15,70.64l1.74,1.75a6.14,6.14,0,0,1-.27.89l-1.75-1.74a5.53,5.53,0,0,0,.28-.9" transform="translate(-9.79 -6.09)"/><path d="M358.87,71.54l1.75,1.74a5.38,5.38,0,0,1-.48,1l-1.75-1.74a6.14,6.14,0,0,0,.48-1" transform="translate(-9.79 -6.09)"/><path d="M358.39,72.5l1.75,1.74a7.26,7.26,0,0,1-2.45,2.34c-2.15,1.31-5.17,2-9,2A33,33,0,0,1,339,77a37.22,37.22,0,0,1-8.68-4l-1.74-1.74a36.6,36.6,0,0,0,8.68,4A32.67,32.67,0,0,0,347,76.81c3.8,0,6.81-.66,9-2a7.24,7.24,0,0,0,2.45-2.33" transform="translate(-9.79 -6.09)"/></g></g></g><g class="cls-3"><g class="cls-92"><g class="cls-3"><path class="cls-24" d="M368.87,57.57l1.74,1.74c.23.23.44.46.64.7a11.43,11.43,0,0,1,2.26,4.35l-1.74-1.75a11.65,11.65,0,0,0-2.26-4.35c-.2-.23-.42-.47-.64-.69" transform="translate(-9.79 -6.09)"/><path class="cls-23" d="M371.77,62.61l1.74,1.75a14.59,14.59,0,0,1,.53,3l-1.74-1.75a16.24,16.24,0,0,0-.53-3" transform="translate(-9.79 -6.09)"/><path class="cls-16" d="M372.3,65.59,374,67.34c0,.54.07,1.1.07,1.68s0,1.08-.06,1.6l-1.74-1.75q.06-.78.06-1.59c0-.58,0-1.14-.07-1.69" transform="translate(-9.79 -6.09)"/><path class="cls-15" d="M372.31,68.87l1.74,1.75a19.81,19.81,0,0,1-.41,2.84l-1.75-1.74a18.45,18.45,0,0,0,.42-2.85" transform="translate(-9.79 -6.09)"/><path class="cls-48" d="M371.89,71.72l1.75,1.74a16.88,16.88,0,0,1-.77,2.5l-1.74-1.75a17.1,17.1,0,0,0,.76-2.49" transform="translate(-9.79 -6.09)"/><path class="cls-43" d="M371.13,74.21,372.87,76a16,16,0,0,1-1.28,2.55l-1.74-1.75a15.59,15.59,0,0,0,1.28-2.55" transform="translate(-9.79 -6.09)"/><path class="cls-12" d="M369.85,76.76l1.74,1.75a16.91,16.91,0,0,1-4.27,4.61c-4.54,3.41-11,5.14-19.12,5.14a63.31,63.31,0,0,1-10.44-.87,62.07,62.07,0,0,1-9.78-2.5l-1.75-1.75a61.38,61.38,0,0,0,9.79,2.5,62.26,62.26,0,0,0,10.44.88c8.14,0,14.57-1.73,19.12-5.15a16.91,16.91,0,0,0,4.27-4.61" transform="translate(-9.79 -6.09)"/></g></g></g><path class="cls-8" d="M357.85,27.85a56.93,56.93,0,0,1,9.36.78,60.37,60.37,0,0,1,8.89,2.19l-2.32,11.71a29.51,29.51,0,0,0-7.73-3.68,31,31,0,0,0-9.28-1.4,14.52,14.52,0,0,0-7.83,1.85,6,6,0,0,0-3,5.19,4.92,4.92,0,0,0,2,4.09c1.31,1,4.1,2.07,8.56,3.35L360.27,53c4.21,1.22,7.32,3,9.24,5.27a13.64,13.64,0,0,1,2.86,9,16.76,16.76,0,0,1-6.79,14.09c-4.55,3.42-11,5.15-19.12,5.15A62.26,62.26,0,0,1,336,85.64a61.38,61.38,0,0,1-9.79-2.5l2.38-11.85a36.6,36.6,0,0,0,8.68,4A32.67,32.67,0,0,0,347,76.81c3.8,0,6.81-.66,9-2a6.42,6.42,0,0,0,3.38-5.72,5.07,5.07,0,0,0-1.73-4c-1.09-.93-3.86-2-8.48-3.4l-4.45-1.21c-4-1.19-7-2.93-8.84-5.19a13.67,13.67,0,0,1-2.77-8.9A16.12,16.12,0,0,1,339.78,33C344.27,29.57,350.35,27.85,357.85,27.85Z" transform="translate(-9.79 -6.09)"/><g class="cls-3"><g class="cls-93"><g class="cls-3"><path d="M369.59,56.87l1.74,1.74q.36.38.69.75a12.77,12.77,0,0,1,2.47,4.74l-1.75-1.74a12.68,12.68,0,0,0-2.46-4.74q-.33-.39-.69-.75" transform="translate(-9.79 -6.09)"/><path d="M372.74,62.36l1.75,1.74a17.2,17.2,0,0,1,.56,3.16l-1.74-1.74a17,17,0,0,0-.57-3.16" transform="translate(-9.79 -6.09)"/><path d="M373.31,65.52l1.74,1.74c.05.57.07,1.16.07,1.76s0,1.13-.06,1.68L373.31,69c0-.54.07-1.1.07-1.67s0-1.19-.07-1.76" transform="translate(-9.79 -6.09)"/><path d="M373.31,69l1.75,1.75a20.5,20.5,0,0,1-.44,3l-1.74-1.75a20.31,20.31,0,0,0,.43-3" transform="translate(-9.79 -6.09)"/><path d="M372.88,71.94l1.74,1.75a16.38,16.38,0,0,1-.81,2.63l-1.74-1.74a18.82,18.82,0,0,0,.81-2.64" transform="translate(-9.79 -6.09)"/><path d="M372.07,74.58l1.74,1.74a16.6,16.6,0,0,1-1.35,2.7l-1.74-1.75a16.5,16.5,0,0,0,1.35-2.69" transform="translate(-9.79 -6.09)"/><path d="M370.72,77.27,372.46,79a18.08,18.08,0,0,1-4.54,4.89c-4.72,3.55-11.35,5.36-19.72,5.36a64.4,64.4,0,0,1-10.61-.9,60.56,60.56,0,0,1-10.35-2.69l-1.74-1.74a61.48,61.48,0,0,0,10.35,2.68,63.15,63.15,0,0,0,10.61.9c8.36,0,15-1.8,19.72-5.36a17.94,17.94,0,0,0,4.54-4.89" transform="translate(-9.79 -6.09)"/></g></g></g><path d="M376.83,30l.41.15-2.78,14.07-.63-.45a28.77,28.77,0,0,0-8.07-4,30.12,30.12,0,0,0-9-1.35,13.67,13.67,0,0,0-7.3,1.7,5,5,0,0,0-2.56,4.34,3.9,3.9,0,0,0,1.65,3.29c1.17.89,3.95,2,8.23,3.19L360.54,52c4.41,1.28,7.68,3.16,9.74,5.59a14.62,14.62,0,0,1,3.1,9.66,17.71,17.71,0,0,1-7.2,14.88c-4.73,3.56-11.36,5.36-19.72,5.36a63.15,63.15,0,0,1-10.61-.9,61.48,61.48,0,0,1-10.35-2.68l-.42-.15,2.83-14.14.63.41a36.33,36.33,0,0,0,9,4.28A31.62,31.62,0,0,0,347,75.81c3.61,0,6.45-.61,8.44-1.82a5.43,5.43,0,0,0,2.9-4.88,4,4,0,0,0-1.38-3.27c-1-.84-3.7-1.91-8.1-3.2l-4.46-1.22c-4.21-1.24-7.35-3.1-9.33-5.52a14.63,14.63,0,0,1-3-9.53,17.09,17.09,0,0,1,7.12-14.17c4.67-3.55,11-5.35,18.68-5.35a57.78,57.78,0,0,1,9.52.79A62.94,62.94,0,0,1,376.83,30Zm-3.06,12.52,2.33-11.71a60.37,60.37,0,0,0-8.89-2.19,56.93,56.93,0,0,0-9.36-.78c-7.5,0-13.58,1.72-18.07,5.14a16.12,16.12,0,0,0-6.73,13.38,13.67,13.67,0,0,0,2.77,8.9c1.85,2.26,4.83,4,8.84,5.19l4.45,1.21c4.62,1.36,7.39,2.47,8.48,3.4a5.07,5.07,0,0,1,1.73,4,6.42,6.42,0,0,1-3.38,5.72c-2.15,1.32-5.16,2-9,2a32.67,32.67,0,0,1-9.69-1.52,36.6,36.6,0,0,1-8.68-4l-2.38,11.85a61.38,61.38,0,0,0,9.79,2.5,62.26,62.26,0,0,0,10.44.88c8.14,0,14.57-1.73,19.12-5.15a16.76,16.76,0,0,0,6.79-14.09,13.64,13.64,0,0,0-2.86-9c-1.92-2.27-5-4-9.24-5.27l-3.76-1.06c-4.46-1.28-7.25-2.38-8.56-3.35a4.92,4.92,0,0,1-2-4.09,6,6,0,0,1,3-5.19,14.52,14.52,0,0,1,7.83-1.85,31,31,0,0,1,9.28,1.4,29.3,29.3,0,0,1,7.72,3.68" transform="translate(-9.79 -6.09)"/></g><g class="cls-3"><polygon points="418.78 4.2 420.52 5.95 408.04 5.95 406.29 4.2 418.78 4.2"/><polygon points="406.29 4.2 408.04 5.95 401.53 38.77 399.79 37.03 406.29 4.2"/><polygon class="cls-13" points="418.78 4.2 420.52 5.95 414.16 38.54 412.42 36.8 418.78 4.2"/><polygon points="419.99 3.2 421.74 4.95 415.13 38.77 413.39 37.03 419.99 3.2"/><polygon points="399.79 37.03 401.53 38.77 399.89 56.3 398.15 54.55 399.79 37.03"/><polygon class="cls-5" points="407.32 54.55 409.06 56.3 399.89 56.3 398.15 54.55 407.32 54.55"/><polygon class="cls-94" points="412.42 36.8 414.16 38.54 409.06 56.3 407.32 54.55 412.42 36.8"/><polygon class="cls-8" points="406.29 4.2 418.78 4.2 412.42 36.8 407.32 54.55 398.15 54.55 399.79 37.03 406.29 4.2"/><path d="M415.26,9.29h14.52l-6.61,33.83-5.31,18.52h-11L408.58,43Zm6.94,33.59,6.36-32.59H416.08l-6.51,32.83-1.64,17.52h9.18l5.09-17.76" transform="translate(-9.79 -6.09)"/><polygon points="413.39 37.03 415.13 38.77 409.82 57.3 408.07 55.55 413.39 37.03"/><polygon points="408.07 55.55 409.82 57.3 398.8 57.3 397.06 55.55 408.07 55.55"/></g><g class="cls-3"><polygon points="394.25 65.6 395.99 67.34 393.38 80.71 391.63 78.96 394.25 65.6"/><polygon points="406.72 65.6 408.47 67.34 395.99 67.34 394.25 65.6 406.72 65.6"/><polygon class="cls-5" points="404.12 78.96 405.86 80.71 393.38 80.71 391.63 78.96 404.12 78.96"/><polygon class="cls-13" points="406.72 65.6 408.47 67.34 405.86 80.71 404.12 78.96 406.72 65.6"/><path d="M400.2,86.05l3-15.36h14.51l-3,15.36Zm16.31-14.37H404l-2.61,13.37H413.9l2.61-13.37" transform="translate(-9.79 -6.09)"/><polygon class="cls-8" points="391.63 78.96 394.25 65.6 406.72 65.6 404.12 78.96 391.63 78.96"/><polygon points="404.93 79.96 406.68 81.71 392.16 81.71 390.42 79.96 404.93 79.96"/><polygon points="407.94 64.6 409.68 66.34 406.68 81.71 404.93 79.96 407.94 64.6"/></g></svg>